/* XPM */
static char *_f5bab1a007a4e30b2eb5e98fa2c07a1yyT3hC8Vup20ccPt[] = {
/* columns rows colors chars-per-pixel */
"64 64 129 2 ",
"   c None",
".  c #C89D32",
"X  c #CBA037",
"o  c #CCA23B",
"O  c #CEA541",
"+  c #CFA84B",
"@  c #D0A642",
"#  c #D2AA45",
"$  c #D2AB49",
"%  c #D8B144",
"&  c #D5B04F",
"*  c #DAB44C",
"=  c #DEB94D",
"-  c #D2AD53",
";  c #D3AF59",
":  c #D6B253",
">  c #DAB654",
",  c #DFBA51",
"<  c #D5B15B",
"1  c #DAB75E",
"2  c #DEBC5A",
"3  c #E0BB51",
"4  c #E0BE5D",
"5  c #D5B462",
"6  c #D8B765",
"7  c #DCBC64",
"8  c #DDBD6A",
"9  c #E0BF62",
"0  c #E6C255",
"q  c #E9C557",
"w  c #E1C05F",
"e  c #EAC759",
"r  c #EBC859",
"t  c #DEC06F",
"y  c #E3C263",
"u  c #E6CA66",
"i  c #ECCB63",
"p  c #E6C769",
"a  c #E7CD6B",
"s  c #EDCD6B",
"d  c #EED067",
"f  c #E3C674",
"g  c #ECCE71",
"h  c #E6CC7C",
"j  c #EACE7D",
"k  c #EED174",
"l  c #EFD877",
"z  c #EFD37B",
"x  c #EED878",
"c  c #F0D57E",
"v  c #F3DB7C",
"b  c #F5E07F",
"n  c #E9CF83",
"m  c #EFD580",
"M  c #E9D084",
"N  c #E8D085",
"B  c #EAD286",
"V  c #EBD585",
"C  c #EFD684",
"Z  c #EED482",
"A  c #EBD288",
"S  c #EDD489",
"D  c #EEDA8F",
"F  c #F0D580",
"G  c #F0D581",
"H  c #F0D681",
"J  c #F0D682",
"K  c #F0D683",
"L  c #F0D684",
"P  c #F0D784",
"I  c #F0D685",
"U  c #F0D785",
"Y  c #F0D786",
"T  c #F0D787",
"R  c #F1D787",
"E  c #F1D888",
"W  c #F0D889",
"Q  c #F1D889",
"!  c #F1D989",
"~  c #F2DB89",
"^  c #F1D88A",
"/  c #F1D88B",
"(  c #F1D98B",
")  c #F1D98C",
"_  c #F1D98D",
"`  c #F1D98E",
"'  c #F2DB8E",
"]  c #F3DD8F",
"[  c #EFDB91",
"{  c #F1DA90",
"}  c #F1DA91",
"|  c #F1DB92",
" . c #F1DB93",
".. c #F2DB92",
"X. c #F3DC90",
"o. c #F2DC96",
"O. c #F7E486",
"+. c #F6E38D",
"@. c #F7E68A",
"#. c #F8E78F",
"$. c #F7E793",
"%. c #F8E791",
"&. c #F8E894",
"*. c #F8E896",
"=. c #F8E897",
"-. c #F8E997",
";. c #F5E49B",
":. c #F7E69C",
">. c #F7E89F",
",. c #F8E999",
"<. c #F8E99A",
"1. c #F8E99B",
"2. c #F8E99C",
"3. c #F8EA9D",
"4. c #F9EA9E",
"5. c #F9EA9F",
"6. c #F3DFA2",
"7. c #F9EBA0",
"8. c #F9EBA1",
"9. c #F9EBA2",
"0. c #F9EBA4",
"q. c #F8EBA5",
"w. c #F9EBA5",
"e. c #F8EAA6",
"r. c #F9ECA6",
"t. c #F9ECA7",
"y. c #F3E1A9",
"u. c #F9ECA8",
"i. c #F9ECA9",
/* pixels */
"                                                                                                                                ",
"                                                                                                                                ",
"                                                    c k z z k z k z g k p . . o                                                 ",
"                                              T c c : o . . . . . . . . # k j a . . o                                           ",
"                                          T H 9 o . * r i r r r r r r r = . . o k k * - &                                       ",
"                                        T 9 @ $ i s i r i r i r r r r r r r r % . o k y & &                                     ",
"                                    ! B + $ s d s i i i r i r r r r r r r r r r r % . p k . . .                                 ",
"                                  _ 9 $ k k k s s i i i i r r r r r r r r r r r r r r . o k * & &                               ",
"                                R < 7 c k g d s s s i i i r r i r r r r e r r r r r r r # . k > & &                             ",
"                              _ ; j c k k k k s s s i i i i r r r r r r r e r r r r r r r # . k X X o                           ",
"                            _ < B ~ c c c k k k s i i i i r r r r r r r e r r r e r r r r r % X k . X o                         ",
"                          } 6 j :.c c c c k k k s s i i i r i r r r r r r e r r r r r r r r r o . k & & :                       ",
"                        y.j 6 e.L G G c c z z s s s i i i r r r r r r r r r r r e r r r r r r = $ @ s : & &                     ",
"                        } 5 e.C R L L G c z k k s s i i i r r r r r r r r r r r r r r r e r q r $ . k . . . .                   ",
"                       .5 q.q.Y R R G c z z z s s s i r i r r r r r r r r r r r r r e r r r q r e $ . k $ : $                   ",
"                      N f q.T ! R L L c c k k s s i i i r i r r r r r r r r r r r r r r r r r r r $ $ O y : : :                 ",
"                    | 5 e.q.R _ R R T c z c g s s i i i r r r r r r r r r r r r r r r q r r q r r e $ . k . . .                 ",
"                    h [ i.R ! ! R ! T H z k k s s i i r i r r e r r q r r r r r r r r r r r r r r r $ $ o > o o o               ",
"                  } 5 i.i.! _ ! _ R C c c k s s i i i r r r r i r r r r r r q r r r r r r r r r r r 0 $ . g - : :               ",
"                  A N q._ _ _ _ R R T z k k s s i i i i r r r r r r q r r r r r r r r r r r r q r e e $ $ * > $ & >             ",
"                6.6 q.i.R _ _ _ R L c c k k s d i i r r r r r r r r r q r r r r r r r r r q r r r r r # $ . s . . .             ",
"                } 6 i.i._ _ ! ! R G c c k k s i i i i r r r r r r r r r r r r r r r r r r r r r r r r 0 $ o k & $ :             ",
"                B _ q.} _ ! _ R L L c k k s s i i r r i r r r r r r r r r r r r r r r r r r r r r r r r $ $ # > : & :           ",
"                6 q.i.! _ _ _ R L G c z s s s i i i r r r r r r r r r r r q r r r r r r r r r r e r r r $ $ . 4 . . .           ",
"              o.5 i.i.! / R / R L c c g s d s i r r r r r r r r r r r r r q r r r r r r r r r r r r r r $ $ . k . . X           ",
"              } 8 i.i.! / R R T G c c s s s i i i r i r r r r r r r r r r r r r r r r r r r r r r r r r 3 $ # a $ : :           ",
"              S N q.;.! R R I G c z g s d s i i r i r r r r r r r r r r r r r r r r r r r q r r r r e r 0 $ $ 2 & $ & 6         ",
"              h 7.q.] T T T I c k z k k i i i r i r r r r r r r r r r q r r r r r r r r r r r r e r r e e $ $ o o . . .         ",
"              8 7.e.! T H T c c c k k d i i i i r r r r r r r r r r r r r r r r r r r r r r r r r r r r r $ $ . 2 & & :         ",
"              < 8.q.T H H c c c k k s s i i r i r r r r r r r r r r r r r r q r r r q r r r r e r r r r e $ # . y & & $         ",
"              ; 8.8.H H H c c c k k s s i i i r i r r r r r r r r r r r r r r r r q r q q r r r r r e r r $ $ . 4 . . .         ",
"              ; 5.8.c H c c c g k s d i i i i r r r r r r r r r r r r r r q r r r r r r r r r r r r r r r $ $ . y . . .         ",
"              - 4.4.c c c k k k k d d d d r r r r r r r r q r r r r r r r r r q r r r r r r r r r r r r r % % X a & & &         ",
"              - 5.4.k c c c k k d d d r r d r r r r r r r r r r r r r r r r r r r q r r r r r r r r r r r = # X t $ & %         ",
"              - ,.,.c k k k k s s d d r d r r r r r r r r r r r q r r r r r r r r r q r r r r r r r r r r o o . 2 . . .         ",
"              $ ,.,.k k k s k s s i d d r r r r r r r r q r r r r r q r r r r r r r r r q r r r q r r r d o % . 4 & & &         ",
"              1 =.,.c s k d s d d i i i r r r r r r r r r r r r r r r r r r r r r r r r r r r r r r r r q % % . > & & &         ",
"              f &.&.H s s s s i i i i r r r r r r r r r r r r r r r r r r r r q r r q r r r r r r r r q = % o % X . . X         ",
"              j g &.#.s s s i i i i i r r r r r r r r r q r r r q r r r r r r r r r r r r q r r r r r r % % % q X X X           ",
"              m 1 %.%.d i s i i i i i r r r r r r r r r r r r r r r q r r q r r r r r r r r r q r r r r % % . r & & &           ",
"                o %.%.i i i i i r i r r i r r r r r r r r r r r r r r r r r r r r r r r q r r r r r r r $ $ . g & & &           ",
"                $ #.#.i i i i i r r r i r r r r r r r r r r q r r r r r r r r q r r r r r r r r r r r e $ $ . % . . .           ",
"                p c #.v i i r r r r r r r r r r q r r r r r r r q r r r r r r r r q r r r r r r r r r * $ + * - $ &             ",
"                c o @.@.r i r i i r r r r r r r r r r q r r r r r r r r r r r r r r r r q r r r r r r $ $ @ g * & &             ",
"                  o @.@.i r r i i r r r r r r r q r r r r r r r r r r r r r r r r r r r r r r r r r e $ $ . > . . .             ",
"                  p a @.c i r r e r r r r r r r r r r r r r r r q r r r r r r r r q r r r r r r e r % $ $ > o X o               ",
"                  c . O.O.r r r r r r r r r r r r r r r r r r r r r r r q r r r r r q r r r r r r r $ $ . a & & &               ",
"                    4 c O.i r r r r r r r r r r q r r r r r r r r r q r r r r r r r r r r q r r e > $ $ # $ $ $ $               ",
"                    c . O.O.r r r r r r r r r r r q r r r r r r r r r r q r r q r r e r r r r r r $ $ . g . . .                 ",
"                      a p O.s r q r r r r r r r r r r r r r r r r r r r r r r r r r r r r r r r * $ $ # $ : & &                 ",
"                        X O.O.r r r r r r r r r r r r r r r r r q r r r r r r r r e r e r e r r $ $ . s $ : :                   ",
"                        k . O.b r r r r r r r r r r r r r r r r r r r q r r r r r r e r e r r $ $ . k . . .                     ",
"                          p = O.i r r r r r r r r r r r r q r r r r r r r r r r r r r r r r 3 # # % . o o .                     ",
"                            # k O.r r r r r r r r r r r r r r q r r r r r r r r r r r r r q $ $ . 9 : $ :                       ",
"                              o l O.r r r r r r r r r q r q r r r r r r r r r r r q r e r $ % . p # # $                         ",
"                              k o s b r r r r r r r r r r r r r r r r r r r r r r r r r $ $ . p . . .                           ",
"                                  # 2 O.r r r r r r r e e r r r r r r r r r r r r r r $ # . a - & &                             ",
"                                    4 X b r r r q r r r r r r r r r r r r r r r r r $ X # y & & &                               ",
"                                      k . u r r r r r r r r r r r r r r r r r r r $ . g X . . X                                 ",
"                                          y . % r r r r r r r r q r r r r r r = . $ a o X o                                     ",
"                                            k p . . = e e r e e r r r r 0 . . = g & & &                                         ",
"                                                  k w X . . . . . . . o % d 3 % $ &                                             ",
"                                                          k k k k y * . . .                                                     ",
"                                                                                                                                "
};
