/* XPM */
static char *e83feaeae7c94d5fc0b1b01f468a25c43gyO0vqHlI6RLVxz[] = {
/* columns rows colors chars-per-pixel */
"64 64 115 2 ",
"   c None",
".  c #C89D32",
"X  c #CBA036",
"o  c #CCA23B",
"O  c #D0A73F",
"+  c #D2A83C",
"@  c #CEA644",
"#  c #CEA748",
"$  c #CFA94B",
"%  c #D1A741",
"&  c #D2AA45",
"*  c #D2AB4A",
"=  c #DAB245",
"-  c #D5B04F",
";  c #D9B34D",
":  c #D2AD51",
">  c #D6B152",
",  c #DAB553",
"<  c #DDB953",
"1  c #D7B45A",
"2  c #D8B65C",
"3  c #DDBB5C",
"4  c #E0BA4C",
"5  c #E2BD53",
"6  c #E1BE5A",
"7  c #D9B760",
"8  c #DABA64",
"9  c #DBBC6A",
"0  c #DEBF70",
"q  c #E9C556",
"w  c #E5C25D",
"e  c #E3C55F",
"r  c #E0C15B",
"t  c #EAC758",
"y  c #EBC758",
"u  c #EAC75A",
"i  c #EAC759",
"p  c #EBC859",
"a  c #EBC85A",
"s  c #EBC95B",
"d  c #EBC95C",
"f  c #ECCA5E",
"g  c #ECCA5F",
"h  c #ECCC5E",
"j  c #EBC859",
"k  c #DFC278",
"l  c #E1C060",
"z  c #E2C060",
"x  c #E3C162",
"c  c #E3C262",
"v  c #E3C263",
"b  c #E7C564",
"n  c #E7C667",
"m  c #E4C363",
"M  c #E8C660",
"N  c #ECCA60",
"B  c #ECCB61",
"V  c #ECCB62",
"C  c #ECCB63",
"Z  c #E9C865",
"A  c #EAC864",
"S  c #EAC965",
"D  c #ECCC64",
"F  c #ECCC65",
"G  c #EECF64",
"H  c #EDCC66",
"J  c #E7C869",
"K  c #E7C86A",
"L  c #E8C86A",
"P  c #E9C96B",
"I  c #E9CA6B",
"U  c #EACF6B",
"Y  c #E9CA6D",
"T  c #EBCD6F",
"R  c #E9CB6D",
"E  c #EED066",
"W  c #EED065",
"Q  c #EFD36A",
"!  c #F1D56F",
"~  c #E4C671",
"^  c #E5C870",
"/  c #EBCD70",
"(  c #EBCE73",
")  c #EDCF73",
"_  c #EBCF75",
"`  c #ECCF76",
"'  c #EDCE72",
"]  c #EED573",
"[  c #EDD074",
"{  c #ECD174",
"}  c #EED074",
"|  c #EED174",
" . c #EED075",
".. c #EED175",
"X. c #EFD175",
"o. c #EFD275",
"O. c #EED176",
"+. c #EED175",
"@. c #F2D974",
"#. c #F2D975",
"$. c #F1D872",
"%. c #F2DC7B",
"&. c #F4DF7E",
"*. c #F3DD7B",
"=. c #EED381",
"-. c #F0D683",
";. c #F4E080",
":. c #F5E180",
">. c #F6E282",
",. c #F6E384",
"<. c #F6E485",
"1. c #F7E486",
"2. c #F7E586",
"3. c #F7E587",
"4. c #F7E587",
/* pixels */
"                                                                                                                                ",
"                                                                                                                                ",
"                                                        | o.] [ o.../ ; . o . . .                                               ",
"                                                    o...O . . . . . X I ..m . . . . .                                           ",
"                                                ..... . 4 q y s p p p . . < ..> ; - - - -                                       ",
"                                              [ O . y y s y y s p p p p p + . ..8 * - - - -                                     ",
"                                            [ . = s y s y y y y p p p p p p i . I < . . . . .                                   ",
"                                          o.. q y y s y y s s y p p p p p p p i . b 3 - - - - -                                 ",
"                                        ... @.y p p p p p p p p p p p p p p p p p . T > > : - > >                               ",
"                                      ..o %.s y p p p p p p p p p p p p p p p p p i . ... . . . X                               ",
"                                      r r s s y p p p p p p p p p p p p p p p p p p ; . P . o . . @                             ",
"                                    ... >.y y s p p p p p p p p p p p p p p p p p p p & 5 > - - * - -                           ",
"                                    O <.p p p p p p p p p p p p p p p p p p p p p p p < . ..* > > - -                           ",
"                                  ..; &.p p p p p p p p p p p p p p p p p p p p p p p p & * O . . . . .                         ",
"                                  o 3.p p p p p p p p p p p p p p p p p p p p p p p p p ; o o.> - > > -                         ",
"                                [ ; 3.p p p p p p p p p p p p p p p p p p p p p p p p p s * , * > - - > >                       ",
"                                ; 3.W p p p p p p p p p p p p p y y y s y s s y a a a a y $ . P . . . . .                       ",
"                              o.X 3.p p p p p p p p p p p p p p j s y y y y y y a a a a a 5 * Y . o o o @                       ",
"                              / ] >.p p p p p p p p p p p p p p j j s y s y y s a a a a a a * o 1 > > > > >                     ",
"                              % 3.! p p p p p p p p p p p p p p j j y y s y s y a a a a a a * o _ , 1 1 1 ,                     ",
"                              X 3.p p p p p p p p p p p p p p p j j j j y s y s a a a g s s > - ` o o o o @                     ",
"                            ..e 3.p p p p p p p p p p p p p p p j j j j s y s y a a y a g f 5 > 1 1 2 1 1 2 9                   ",
"                            T 3.>.p p p p p p p p p p p p p p p j j j j y s y y s y g g f f C > o 7 2 2 7 7 7                   ",
"                            % 3.@.p p p p p p p p p p p p p p p j j j j s y s g y y g y f N S : & ^ # # # # #                   ",
"                            . 3.h p p p p p p p p p p p p p p p j j j j j j j j y s g g g g G > 1 =.$ : $ : :                   ",
"                            X 3.p p p p p p p p p p p p p p p p j j j j j j j j y s s g g C S 1 1 =.8 8 9 9 9                   ",
"                          ..r 3.p p p p p p p p p p p p p p p p j j j j p p j j s g s g g C D 2 1 ~ 8 8 9 8 9                   ",
"                          ..&.3.p p p p p p p p p p p p p p p p j j j j p p p h y s s g g C D 3 1 1 : : : : : 9                 ",
"                          ..3.3.p p p p p p p p p p p p p p p p y y y s p d p p y g s g C C H v 1 $ 9 9 9 0 9 k                 ",
"                          ..3.3.p p p p p p p p p p p p p p p p s s y y p p p d y g s g g S H b 7 $ 9 9 9 9 9 0                 ",
"                          I 3.3.p p p p p p p p p p p p p p p p y y y s s i p d s s s g g C S b 1 $ : $ : : : :                 ",
"                          c 3.,.p p p p p p p p p p p p p p p p y s s y s d p p y s s g g C L K 1 # # : : : : :                 ",
"                          r 3.3.p p p p p p p p p p p p p p p p y s j j j j j j g s s g g g C M 1 # 8 8 8 9 9 8                 ",
"                          c 3.>.p p p p p p p p p p p p p p p p y y j y j j j j y s s g g g A d > # 2 7 7 7 2 2                 ",
"                          K 3.3.p p p p p p p p p p p p p p p p s s y y p p j j s y i d g g g w : @ @ @ # @ # #                 ",
"                          ..3.3.p p p p p p p p p p p p p p p p y y y s p p p h i g y d i g g 6 : o 2 1 2 2 2 7                 ",
"                          ..3.3.p p p p p p p p p p p p p p p p p p p p p p p p a a a g N a N < : o 2 1 2 1 2 7                 ",
"                          ..3.3.p p p p p p p p p p p p p p p p p p p p p p p p a a a a d a a > : % . o @ . o                   ",
"                          ..Q 3.p p p p p p p p p p p p p p p p p p p p p p p p a a a a i a N * * 6 o o % o o                   ",
"                            o 3.p p p p p p p p p p p p p p p p p p p p p p p p a a a a a a a * * } > > > > >                   ",
"                            . 3.W p s y y y s y p p p p p p p p p p p p p p p p p p p p a a a & & ..> > > > :                   ",
"                            X 3.%.p y y s y j y p p p p p p p p p p p p p p p p p p p d a a a * o , . . . . .                   ",
"                            I 3.3.t s s j j j j p p p p p p p p p p p p p p p p p p p p y a < * . > > - > > >                   ",
"                            ..%.3.t y y j j j j p p p p p p p p p p p p p p p p p p p p a y * & * > - > - -                     ",
"                              O 2.j j j j j j j p p p p p p p p p p p p p p p p p p p p p p & * T . . . . .                     ",
"                              X 2.$.j j j j j j p p p p p p p p p p p p p p p p p p p p p p & o 6 o o o o o                     ",
"                              T 2.2.j j j j j j p p p p p p p p p p p p p p p p p p p p p , & . > > * > > *                     ",
"                                = 2.j j j j j j p p p p p p p p p p p p p p p p p p p p p & & n * & & * &                       ",
"                                % 3.! p p p p p p p p p p p p p j j j j j j j j s y s y i & o , . . . . .                       ",
"                                { U 3.p p p p p p p p p p p p p y j j j j j j j y s y y * & & - - - - - *                       ",
"                                  . 3.d p p p p p p p p p p p p j j j j j j y j s y y g & o / - - - - *                         ",
"                                  T { 3.p p p p p p p p p p p p j j j j j j y s y s y ; & O . . . . . .                         ",
"                                    X 3.g p p p p p p p p p p p j j j j s y y y y y s & o T X o X o o                           ",
"                                    ..< 3.p p p p p p p p p p p j j j j y y s y s y * & ; - - - - -                             ",
"                                      ; &.W p p p p p p p p p p j j j j y s y s s y * . 3 % & & & &                             ",
"                                        X 3.p p p p p p p p p p j j j j y s y y y * X / . . . . .                               ",
"                                        ... 3.p j j y y y y y s j j j j j j j j * % c - - - - -                                 ",
"                                          ... *.j j j s s s y y j j j j j j t q % , - - - - - -                                 ",
"                                            ... $.j y y y y s y j j j j p p q X < X . . . . X                                   ",
"                                              ..X 4 s y y s y y j j j j p q . T O o @ o o o                                     ",
"                                                  c . = s s s y s y s q . o [ - > - - -                                         ",
"                                                    ..b . . . . . . . & / & & & & *                                             ",
"                                                          ......| I ; . X . . .                                                 ",
"                                                                                                                                "
};
