/* XPM */
static char *d3b0299278324cc9b8b26e9c127c7a0dVEz0Y5IHzhfrWFje[] = {
/* columns rows colors chars-per-pixel */
"64 64 145 2 ",
"   c None",
".  c #A07200",
"X  c #A17300",
"o  c #A37400",
"O  c #A27500",
"+  c #A37500",
"@  c #A47600",
"#  c #A57600",
"$  c #A57700",
"%  c #A67800",
"&  c #A77800",
"*  c #A87A00",
"=  c #AA7B00",
"-  c #AA7C00",
";  c #AB7D00",
":  c #AC7E00",
">  c #AD7E00",
",  c #AE7F00",
"<  c #A67B10",
"1  c #AF8000",
"2  c #AD8500",
"3  c #B08100",
"4  c #B08200",
"5  c #B18200",
"6  c #B28300",
"7  c #B28400",
"8  c #B38500",
"9  c #B48500",
"0  c #B58600",
"q  c #B58700",
"w  c #B68700",
"e  c #B78800",
"r  c #B28C00",
"t  c #B88900",
"y  c #B98A00",
"u  c #BA8B00",
"i  c #BA8C00",
"p  c #BB8C00",
"a  c #BD8E00",
"s  c #BE8F00",
"d  c #B69200",
"f  c #BF9000",
"g  c #B89500",
"h  c #BB9A00",
"j  c #BD9D00",
"k  c #BE9E00",
"l  c #C09100",
"z  c #C19100",
"x  c #C19200",
"c  c #C29300",
"v  c #C39400",
"b  c #C49400",
"n  c #C59600",
"m  c #C69600",
"M  c #C69700",
"N  c #C79800",
"B  c #C89800",
"V  c #C99A00",
"C  c #CA9A00",
"Z  c #CA9B00",
"A  c #CB9B00",
"S  c #CB9C00",
"D  c #C4A700",
"F  c #CAA100",
"G  c #CEAD00",
"H  c #D0A000",
"J  c #D0A100",
"K  c #D1A100",
"L  c #D2A200",
"P  c #D5A500",
"I  c #D8A800",
"U  c #D8A900",
"Y  c #D9A900",
"T  c #D9AA00",
"R  c #DBAB00",
"E  c #DCAC00",
"W  c #DDAD00",
"Q  c #DEAE00",
"!  c #DFAF00",
"~  c #D6B500",
"^  c #DAB900",
"/  c #E1B100",
"(  c #E2B200",
")  c #E3B300",
"_  c #E4B400",
"`  c #E6B600",
"'  c #E7B700",
"]  c #E0BE00",
"[  c #E8B800",
"{  c #ECBC00",
"}  c #EFBE00",
"|  c #F0BF00",
" . c #D5C000",
".. c #DBCA00",
"X. c #E2C100",
"o. c #E8C600",
"O. c #EBC900",
"+. c #F1C100",
"@. c #F3C300",
"#. c #F4C400",
"$. c #F6C500",
"%. c #F8C700",
"&. c #F9C800",
"*. c #FAC900",
"=. c #FACA00",
"-. c #FDCC00",
";. c #FFCE00",
":. c #F3D100",
">. c #F7D500",
",. c gold",
"<. c #FBD900",
"1. c #FFD800",
"2. c #FFDB00",
"3. c #FFDD00",
"4. c #FFDF00",
"5. c #FFDF10",
"6. c #EBE100",
"7. c #ECE300",
"8. c #EDE500",
"9. c #FFE000",
"0. c #FFE300",
"q. c #FFE600",
"w. c #F0E800",
"e. c #FFE800",
"r. c #FFEC00",
"t. c #FFEE00",
"y. c #F9F600",
"u. c #FFF700",
"i. c #FFF900",
"p. c #FFFB00",
"a. c #FFFC00",
"s. c #FFFD00",
"d. c yellow",
"f. c #FFFF10",
"g. c #FFD730",
"h. c #FFFF20",
"j. c #E9C540",
"k. c #FFFF40",
"l. c #F1D980",
"z. c #FFEE80",
"x. c #FFFF8F",
"c. c #FFFF9F",
"v. c #FFF7BF",
"b. c #FFFFDF",
"n. c white",
/* pixels */
"                                              O ^ 3.3.3.3.3.;.;.. ( ( ( ( ( ( 6 .                                               ",
"                                        3.3.3.3.3.3.3.3.3.3.3.;.;.;.;.;.. ( ( ( ( ( ( (                                         ",
"                                  d 3.3.3.3.3.3.3.3.3.3.3.3.3.;.;.;.;.;.;.;.;.;.;.;.;.;.;.;..                                   ",
"                              . 3.3.3.3.3.3.t.d.f.d.d.d.d.t.3.3.;.;.;.;.;.;.;.;.' ;.;.;.;.;.;.;.                                ",
"                            3.3.3.3.3.d.d.b.n.n.d.d.d.d.d.d.d.d.d.d.;.;.;.;.;.;.;.{ 7 ;.;.;.;.;.;.;.                            ",
"                        2 3.3.3.3.t.d.n.n.n.f.3.3.3.3.3.3.3.3.3.,.;.;.d.d.;.;.;.;.;.{ { ;.;.;.;.;.;.;..                         ",
"                      ] 3.3.3.3.d.n.n.n.5.3.3.3.3.>.j j j j ~ 3.3.;.;.;.;.;.;.;.;.;.{ { { d.d.d.d.d.d.d.r                       ",
"                    O.O.3.3.t.x.n.n.3.3.3.~ j j j j j j j j j j j . . ;.;.;.;.;.;.;.{ { { { d.d.d.d.d.d.d.8.                    ",
"                  X.O.3.3.d.d.q.3.3.3.j j j j j j 3.3.3.3.3.3.G j . . . . ;.;.;.;.;.{ { { { { n.n.n.n.n.n.n.<                   ",
"                o.O.3.3.d.d.3.3.3.G j j j >.3.3.3.r.d.D . d.d.d.d.;.;.. . . . ;.;.;.{ { { { { { d.d.d.d.d.d.d.j                 ",
"              h O.O.3.d.d.3.3.3.j j j 3.3.3.d.d.f.d.d.. ;.d.d.u.2.;.;.;.;.. . . 6 ( { { { { { { { d.d.d.d.d.d.d..               ",
"              O.O.3.d.d.3.3.3.j j ^ 3.3.d.c.n.n.d.d.d.d.;.F 3.3.3.;.;.;.;.;.;.. . . I P { { { { { P d.d.d.d.d.d.d.              ",
"            ( O.O.3.d.3.3.:.j j 3.3.q.b.n.n.n.d.d.d.. ;.;.. 3.3.3.;.;.;.;.;.;.;.. . . P P P { { { { % ;.;.;.;.;.;.;.            ",
"          ( ( ( 3.d.3.3.<.j j 3.3.i.n.n.n.d.d.k.3.3.g ;.;.( 3.3.;.;.;.;.;.;.;.;.;.. . . P P P { { { P ;.;.;.;.;.;.;.V           ",
"          ( ( ( d.3.3.3.j j 3.3.n.n.n.d.d.d.3.z.3.3.d.;.;.( . 3.;.;.;.;.;.;.;.;.;.;.. . . P P P { { P P ;.;.;.;.;.;.;.          ",
"        ( ( ( ( 3.3.3.j j 3.3.h.d.d.d.d.d.3.3.v.3.. d.;.;.( ; 2.;.;.;.;.;.;.;.;.;.;.{ . . s P P P { Q P ( ( ( ( ( ( ( (         ",
"        ( ( ( d.;.3.j j 3.3.d.d.d.d.d.3.3.3.3.n.3.d.d.;.;.( ( ;.;.;.;.;.;.;.;.;.;.;.{ { . . P P P P { P P ( ( ( ( ( ( (         ",
"      ( ( ( ( ;.;.m j ^ 2.d.d.d.d.d.3.3.3.3.3.n.. d.;.;.;.( ;.. ;.;.;.;.;.;.;.;.;.;.{ { R . . P P P { P P ( ( ( ( ( ( ( (       ",
"      ( ( K ( ;.;.. j 3.3.d.d.d.d.3.3.3.3.3.3.n.. d.;.;.;.( ( ( ;.;.;.;.;.;.;.;.;.;.{ { { V . * P P P P P P ( ( ( ( ( ( (       ",
"    s ( ( ( 6.;.$ . ;.3.d.d.d.d.3.3.3.3.3.3.3.n.d.d.;.;.;.( ( ;.. ;.;.;.;.;.;.;.;.{ { { { P . . m P P P P P ( ( ( ( ( ( ( .     ",
"    P ( ( ( ;.R . . ;.d.d.d.d.3.3.3.3.3.3.3.3.n.d.d.;.;.;.( ( ;.6 ;.;.;.;.;.;.;.;.{ { { { { K . w P P P P P m ( ( ( ( ( ( (     ",
"  . P P p ( ;.p . ;.;.d.d.d.3.3.3.3.3.3.3.3.3.n.n.d.;.;.;.( ( ;.;.;.;.;.;.;.;.;.&.{ { { { { P . . w P P P V S ( ( ( ( ( ( (     ",
"  P P P p ( ( . . ;.d.d.d.,.;.;.3.3.z.n.n.n.n.n.n.n.n.n.n.j.( ( ;.. s ;.;.;.;.;.{ { { { { { ( V . w P P P V S ) ( ( ( ( ( ( s   ",
"  P P P m ( p . 6 +.. . . . . u ;.,.d.d.d.d.d.n.n.;.;.;.;.( ( ( ;.;.( ( ( ( ( ( x . . . . . R P . O w P K V V K ( ( ( ( ( ( (   ",
"  P P w P ( p . ;.D d.d.d.d.d.d.d.d.d.d.0.;.;.n.g.;.;.;.;.( ( ( ' ;.;.;.;.;.#.( ( ( ( ( B B . P . . w P V S V * ( ( ( ( ( ( (   ",
"  P P w P V . . ;.d...d.d.;.;.;.;.;.;.;.;.;.;.n.;.;.;.;.;.( ( ( ( ( ( ( ( ( ( ( ( ( ( B B . { { . . w w S V S S ( ( ( ( ( ( (   ",
". P P w P w . . ;.d.d.&.d.d.' ;.;.;.;.;.;.;.;.n.;.;.;.;.;.( ( ( ( ( ( ( ( ( ( ( ( B B B . { { { P . w 6 V S S V ( ( ( ( ( ( ( . ",
"P P P w P w . . d.d.d.;.;.8.d.%.( ;.;.;.;.;.;.n.;.;.;.;.;.( ( ( ( ( ( ( ( ( ( ( B B B . { { { { P . 6 6 S V V S ( ( ( ( ( ( ( . ",
"P P P w P w . { w.d.;.;.;.;.D d.-.( ( ( { ;.;.n.;.;.;.;.( ( ( ( ( ( ( ( ( ( Q V m V Q { { { { { P . . 6 e V S V ( ( ( ( ( ( ( ( ",
"P P P w P w . P 7.7.;.;.;.;.;.y.d.-.( ( ( ( ( l.( ( ( ( ( ( ( ( ( ( ( ( ( B B B V 7 { { { { { { P . . 6 6 S V S x x x x x x x x ",
"P P P w P w . P 7.7.{ ;.;.;.;.;...d.+.( ( ( ( ( ( ( ( ( ( ( ( ( ( ( ( ( m u B B K { { { { { { { V . . 6 6 V S V x x x x x x x x ",
"P P P w u w . P 7.7.{ { { ;.;.;.;.. d.' ( ( ( ( ( ( ( ( ( ( ( ( ( ( ( B . B B { { { { { { { { Q S . . 6 6 S V V x x x x x x x x ",
"P P P w w w . P 7.{ { { { { { +.;.;.. d.( ( ( ( ( ( ( ( ( ( ( ( ( B B . B l { { { { { { { { E Q V . . 6 6 V V S x x x x x x x x ",
"P P P w w w . P ^ { { { { { { { { { { . i.( ( ( ( ( ( ( ( ( ( ( ( B . B w { { { { { { { { Q Q E V . . 6 6 V S V x x x x x x x x ",
"P P P w w w . P P { { { { { { { { { { { d.;.( ( ( ( ( ( ( ( ( ( ( E B B { { { { { { { { E Q E Q V . . 6 6 V V S x x x x x x x x ",
"V P P w w w . P P P { { { { { { { { { s d.;.&.( ( ( ( ( ( ( ( ( ( ( B . . { { { { { { E Q E Q E V . . 6 w V S V x x x x x x x x ",
"V V P e w w . . P P { { { { { { { { { . d.;.;.( ( ( ( ( ( ( ( ( ( ( B . m { { { { ! Q Q E Q Q F A . 6 6 6 V V S x x x x x x x . ",
". V V w w w . . P P P { { { { { { { { d.;.;.;.( ( ( ( ( ( ( ( ( ( ( B . B { { { Q E Q E Q Q Q S V . 6 6 6 V S V x x x x x x x . ",
"  V S 6 w w . . P P P { { { { { { { . d.;.;.;.( ( ( ( B B B B B ( ( B B s . E Q E Q E Q E Q I S . . w 6 6 V S V x x x x x x x   ",
"  V V w 7 7 r . P P P P { { { { { { . d.;.;.;.( ( ( ( B B B B B B B B B . B Q E Q E Q E Q E V S . . 6 6 6 V V $ x x x x x x x   ",
"  S S V 7 6 6 . % P P P R { { { { { d.d.;.;._ ( ( ( V x . B B B B B B B . B K Q E Q E Q Q V V V . O 6 6 7 S S f x x x x x x x   ",
"  V V S 6 6 6 . . P P P P ( { { { . d.;.;.;.( ( ( m . B m . 6 B B B B B B B . Q Q E Q E Q S S p . 6 6 6 S N S x x x x x x x ;   ",
"    S V 6 6 6 6 . S S P P P { { { . d.;.;.( ( ( m V . { { . B . B B B B B u B Q E Q E Q S V V . . 6 6 6 V S S f x x x x x x     ",
"    V S V 6 6 6 . . V V V V P I { d.d.;.;.( ( N w V { Q E Q E . B . B B B . B * Q E Q V V V m . 6 6 6 6 S V e x x x x x x x     ",
"    6 V S 6 6 6 $ . V S V S V S . d.d.;.( ( V . Q Q R R R Q Q Q s w o . B o B . E V S V S V . . 6 6 6 N S V 6 1 6 1 6 2 6 .     ",
"      S V 7 6 6 6 . . V S V S V y.d.3.' ( . E Q R Q Q Q Q Q R R E E . B . B B B A V V S V s . , 6 6 7 S V N 1 6 1 1 6 1 1       ",
"      V V S 6 6 6 6 . % V S S N d.d.;.u V Q Q E R Q Q Q Q R Q Q Q E Q Q . B w B . V A V V . . 6 6 6 w V V 6 1 6 2 6 1 7 6       ",
"        S V 6 6 7 7 . . S V V . d.;.. V V V V R Q Q R R Q Q Q Q E Q E V V $ m B , V V S . . 6 6 6 6 S V V 6 2 1 1 6 1 6         ",
"        V S V 6 6 6 6 . . V V d.. V S V S V S V S V S V S V S V S V S V S V S . N S V . . 1 6 6 6 w V V 1 1 6 6 6 1 1 1         ",
"          V S 6 6 6 6 6 . . 7 V S V V S V S V S V S V S V S V S V S V S V S V V V . . . . 6 6 6 6 V V S 6 6 1 2 6 1 6           ",
"          V S V 6 6 6 6 6 . . S V S V S S V S V S V S V S V S V S V S V S V V S S . . . 6 6 6 6 N S S 1 1 2 6 6 1 6 O           ",
"            V S m 6 6 6 6 6 . . S V S V V S V S V S V S V S V S V S V S V S S V . . . 6 6 6 6 6 S S O 6 6 1 1 2 2 6             ",
"              V V 7 6 6 6 6 6 . . O V S V S V S S V V S V S S V S V S V S V S . . . 6 6 6 6 6 S S N 6 1 1 6 7 1 7               ",
"              . S V 6 6 6 6 6 6 . . . V S V S V V S S V S V V S V S V S V . . . ; 6 6 6 6 6 V V S 1 6 2 2 1 1 1 .               ",
"                x S V 7 6 6 6 6 6 , . . . 7 V S S V V S V S V V S V S . . . . 6 6 6 6 6 6 6 S S 1 6 1 1 6 1 6 O                 ",
"                  w S V 6 6 6 6 6 6 6 . . . . . . x S V S V S . . . . . . 6 6 6 6 6 6 6 7 V S 1 2 6 1 6 6 1 .                   ",
"                    V V S 6 6 6 6 6 6 6 6 1 . . . . . . . . . . . . . 6 6 6 6 6 6 6 6 6 V S 6 1 2 1 1 6 6 %                     ",
"                      6 V S e 6 6 6 6 6 6 6 6 6 6 6 $ . . . , 6 6 6 6 6 6 6 6 6 6 7 V S V 6 6 2 6 7 1 1 .                       ",
"                        . V V S 6 6 6 6 6 6 6 6 6 6 6 6 6 6 6 6 6 6 6 6 6 6 6 6 6 V V S 1 6 1 1 6 1 6                           ",
"                            S V S V 6 6 6 6 6 6 6 6 6 6 6 6 6 6 6 6 6 6 6 6 7 V S V % ; ; * * $ O .                             ",
"                                V S V S w 6 6 7 6 6 6 6 6 6 6 6 6 6 6 7 m S V S 6 . . . . . . .                                 ",
"                                  . S V V S V V 6 6 6 6 6 7 6 6 6 S V V S V m . . . . . . . .                                   ",
"                                        V V V S S V V V S V S V V S V S . . . . . . . .                                         ",
"                                              . . S V S V S V w . . . . . . . .                                                 "
};
