/* XPM */
static char *f48496a022624226c15ba65dc88fd467uRzrySY0hgbk9E5u[] = {
/* columns rows colors chars-per-pixel */
"64 64 148 2 ",
"   c None",
".  c #C89D32",
"X  c #CA9F38",
"o  c #CBA137",
"O  c #CCA33C",
"+  c #D0A73F",
"@  c #D2A93E",
"#  c #CDA542",
"$  c #CEA648",
"%  c #CFA84A",
"&  c #D2AB43",
"*  c #D2AC4C",
"=  c #DBB346",
"-  c #D6B14D",
";  c #DAB44B",
":  c #DEB94E",
">  c #D1AD52",
",  c #D2AF58",
"<  c #D6B253",
"1  c #D9B452",
"2  c #DDB955",
"3  c #D5B25C",
"4  c #D9B65C",
"5  c #DDBB5D",
"6  c #E1BB4F",
"7  c #E1BE5D",
"8  c #D7B663",
"9  c #D9B763",
"0  c #DBBA63",
"q  c #DCBD6A",
"w  c #E0BF64",
"e  c #E8C556",
"r  c #E3C35B",
"t  c #EAC759",
"y  c #EBC85A",
"u  c #DFC171",
"i  c #E4C363",
"p  c #E8C766",
"a  c #ECCB63",
"s  c #E4C569",
"d  c #E7CA6E",
"f  c #EDCE6C",
"g  c #EED167",
"h  c #EFD26C",
"j  c #F0D46C",
"k  c #E4C673",
"l  c #EBCE72",
"z  c #EED174",
"x  c #EED877",
"c  c #EFD37A",
"v  c #EDD27D",
"b  c #EFD37C",
"n  c #EFD47C",
"m  c #EFD47D",
"M  c #EFD47E",
"N  c #EFD57E",
"B  c #EFD47F",
"V  c #EFD37B",
"C  c #EFD978",
"Z  c #EFD979",
"A  c #F0D174",
"S  c #F1D770",
"D  c #F1D872",
"F  c #F1D973",
"G  c #F0D57E",
"H  c #F0D57F",
"J  c #F0D57F",
"K  c #F2DE7E",
"L  c #F4DE7D",
"P  c #F4DE7E",
"I  c #F5E07F",
"U  c #ECD180",
"Y  c #EDD385",
"T  c #EFD587",
"R  c #EFD687",
"E  c #EED485",
"W  c #EED589",
"Q  c #EFD689",
"!  c #EED78B",
"~  c #F0D580",
"^  c #F0D581",
"/  c #F0D582",
"(  c #F0D682",
")  c #F0D683",
"_  c #F0D684",
"`  c #F0D784",
"'  c #F0D685",
"]  c #F0D785",
"[  c #F0D786",
"{  c #F1D786",
"}  c #F0D787",
"|  c #F1D787",
" . c #F0D683",
".. c #F0D788",
"X. c #F1D788",
"o. c #F1D789",
"O. c #F1D888",
"+. c #F1D889",
"@. c #F1D88A",
"#. c #F1D88B",
"$. c #F1D98B",
"%. c #F0D88C",
"&. c #F1D88C",
"*. c #F1D98C",
"=. c #F1D98D",
"-. c #F1D98E",
";. c #F1DA8E",
":. c #F1DA8F",
">. c #F2DA8F",
",. c #F1D98C",
"<. c #F2DA90",
"1. c #F2DA91",
"2. c #F2DB91",
"3. c #F2DB92",
"4. c #F2DB93",
"5. c #F2DB94",
"6. c #F2DC94",
"7. c #F2DC95",
"8. c #F2DC96",
"9. c #F2DC97",
"0. c #F2DD97",
"q. c #F3DD97",
"w. c #F2DB94",
"e. c #F2DD98",
"r. c #F3DD98",
"t. c #F3DD99",
"y. c #F3DE9A",
"u. c #F3DE9B",
"i. c #F3DE9C",
"p. c #F3DE9D",
"a. c #F3DF9D",
"s. c #F3DF9E",
"d. c #F3DF9F",
"f. c #F3DE9C",
"g. c #F5E080",
"h. c #F6E282",
"j. c #F6E283",
"k. c #F7E587",
"l. c #F7E587",
"z. c #F4E0A0",
"x. c #F4E0A1",
"c. c #F4E0A2",
"v. c #F4E0A3",
"b. c #F4E1A3",
"n. c #F4E1A4",
"m. c #F4E1A5",
"M. c #F4E1A6",
"N. c #F4E1A3",
/* pixels */
"                                                                                                                                ",
"                                                                                                                                ",
"                                                q U ....T E { U c v c c c z z                                                   ",
"                                          k *.*.! 3 > > > % * # # # O X X X O i z c z                                           ",
"                                    q ! :...3 3 3 l v G A z l h f f a y y a t X X . 2 z z                                       ",
"                                q Y <.u 8 8 T T { Y ~ ~ v z z h f f a a a y y y y y o . o z z                                   ",
"                            8 4 ! k 3 q E T +.+.....{ ~ H c z z f f f a y a y y y y y y = . O A z                               ",
"                          0 T T 3 0 E } +...*.*.*.*...{ ~ H A z h a a a a a y y y y y y y y = @ i z                             ",
"                        0 ..q < c E { +.<.<.6.6.<.<.*.+.{ H c z l f a a y a y y y y y y y y y y Z o z                           ",
"                    > * ` * 3 v ~ ..*.<.6.6.e.6.6.5.<.*.` ~ v z f f f a a a y y y y y y t y y y y k.. z                         ",
"                  9 5 ( % i c v { *.<.5.e.p.e.p.e.e.6.+.` ~ c z f f a a a y a y y y y y y y y y y y k.o z z                     ",
"                  0 E $ s G v ( +.<.5.9.p.p.z.a.s.e.<.*.+.~ c z z f a a a y y y y y t y y y y t y y y k.O l A                   ",
"                4 ~ # i z G H { *.5.e.p.z.z.z.z.y.q.<.*.{ H c z f f a a y y y y y y y t y y t t y y y y k.o D                   ",
"              O v # 7 z z v { +.<.9.p.z.z.v.z.z.s.q.<.*.{ v A z f a a a y a y y y y y y y y y y y y y y ` k.. z                 ",
"            < c 1 * h z c H { *.5.e.z.v.v.v.z.z.s.e.<.*.{ G z j f f a a a a y y y y y y y y y y y y y y y k.k.. z               ",
"          < 5 l # f z A v T +.<.5.p.z.v.v.v.z.z.y.6.<...~ v z f f a a y y y y y y y y y y y y y y y y y y y k.Z 1 z             ",
"          X c O f f z z ~ ` *.5.y.s.v.v.m.v.v.z.e.5.*.{ ~ c z f g g g y y y y y y y y y y y y y y y y y y y I k.@ j             ",
"        * l < - f f z G ~ +.<.6.y.v.v.m.m.v.v.y.6.6.+.{ v z z f g y y g y y y y y y y e y y y y y y y y y y y k.k.. z           ",
"        < G O f f z c H { *.6.y.s.v.v.m.v.v.a.y.6.<.+.~ G z f f g y y y y y y y y e y y e y y y y y e y y y y I k.r f           ",
"      * l # 2 f f z c ~ +.<.6.e.s.v.m.m.v.v.z.e.<.*.{ v z z f a g y y y y y y y y y y y y y y y y y y y y y y y k.k.. z         ",
"      X A O a f h A v ~ *.<.6.e.v.m.m.m.v.v.y.6.<...~ G z f h a a a a y y y y y y y y y y y y y y y y y y y y y k.k.; z         ",
"    < 5 5 - f f z G H { *.6.y.z.v.m.m.m.v.a.y.6.*.{ ~ c z f f a a y y y y y y y y y y y y y y y y y e y y y y e F k.k.. z       ",
"    < c O a f f z v { +.<.6.e.v.v.v.v.v.v.s.6.6.*.{ v A l f f a a a y y y y e y y y y y y e y y y y y y y y y y y k.k.. z       ",
"    X v # a f z A v { *.<.y.p.v.n.n.v.v.z.y.6.6.+.{ A A h f a a y y a y y y y y y y y y y y y y y y y y e y y y y k.k.x s       ",
"  * * 5 1 f f z A ~ +.*.6.y.z.v.n.n.n.m.s.y.<.*.{ H A z f a a y a y a y y y y y e y y y y y e y y y y y y y y y y I k.k.o z     ",
"  < l # a f h z E ~ +.6.e.e.v.v.n.n.v.v.s.e.<.+.{ v z f f a a a a y y y y y y y y y y y y y y y y e y y y y y y y g k.k.. z     ",
"  & c O a f z G ~ ` *.6.y.z.v.m.m.m.v.a.e.6.*.{ H G z h f a a a y y y y y y y y y y y y y y y y y y y y y y y y y y k.k.. A     ",
"  X v # f f z c { +.<.6.e.z.v.m.m.m.v.a.e.<.*.{ v A l f a a a y y y y y y y y y y y y y y y y y y y e y y y y y y y k.k.r d     ",
"  3 v # f h z H { +.<.e.z.v.m.m.m.v.v.e.6.6.+.~ G z l f a a a y y y y y y y y y y y y y y y y e y y y y y e y y y y k.k.g.<     ",
"  < l - f z c ~ ..*.6.e.p.v.m.m.n.v.z.y.6.*.` H A z h a a y a y y y y y y y y y y y y y y y y y y y y y y y y y y y k.k.j.O     ",
"# O 0 7 l z v ~ +.<.e.p.v.m.m.m.n.v.a.6.<.+.{ c z z f f a a y y y y y y y y y y y y y y y e y y y y y e y y y y y y k.k.k.O     ",
"< > 5 s A A H { *.<.e.z.v.m.m.m.v.a.e.6.*.{ v G z f a a a y a y y y e y y y y y y e y y y y y y y y y y y y e y y y k.k.k.O z   ",
"4 4 5 p z c ~ ..*.5.p.z.z.m.m.m.v.s.y.6.+.{ v c z f a a a a y y y y y y y y y y y y e y y y y y y y y y y e y y y y I k.k.@ F   ",
"> * 0 s z G ~ +.<.e.p.z.m.m.m.m.v.y.6.*.+.{ A c l f a a y y a y y y y y y y y e y y y y e y y y y e y y y y y y y y I I I @     ",
"$ # k 5 c v { *.5.e.p.z.m.m.v.v.s.q.6.*.T ~ A z f f a a y y a y y y y y y y y y y y y y y y y e e y y y y y y y y y F I h.@     ",
"  4 { < A H ..*.5.e.z.z.m.m.v.z.s.6.6.+.( v z h f a a a y a y y y y y y y y y y y e y y y y y y y y y y y y y y y y I I K =     ",
"  9 { > G H { <.6.y.s.v.v.m.z.z.y.5.*...~ G z f f a a y y y y y y y y y y y y y y y y y y y y y y y y e y y e y y y l.l.r 5     ",
"  # { > v ~ +.*.e.s.z.z.v.v.z.s.y.<.*.{ E A z f a a y a a y y y e y y y y y y y y y e y y y y y y y y y y y y y y g l.l.. x     ",
"  3 v > H ~ +.<.5.p.z.z.z.z.s.y.q.<...~ ~ A j f a a a y y y y y y y y y y y y y y y y y e y y y y y y y y e y y y I l.l.o z     ",
"  0 q , v ~ +.<.5.e.p.z.z.s.s.y.<.*...~ A l f f a a a y y y y y y y y y y y y y y y y y y y y y y y y y y y y y y l.l.l.. z     ",
"  8 * ! 3 / ..-.6.e.s.s.s.y.y.5.<.+.~ v z h f a a a y y y y y y y e y y y y y y y y y e y y y y y y y y y y y y y l.k.h @       ",
"    % ! , / { -.<.6.y.s.y.t.6.5.*.{ ~ c z z f a a a y y y y y y y y y y y y y y y y y y y y y y y y y y y y y y h l.k.. z       ",
"    0 k , G { ..<.6.6.e.5.e.<.*.+.~ v A z f f a a y y y a y y y y y y y y y e y y y y y y y y y y y y y e y y y l.l.l.. z       ",
"      q -.8 ~ ..*.<.<.6.5.<.<.*.{ ~ G z f f a a a y a y y y y y y y y y y y y y y e y y y e y y y y y y y y y y l.l.: ;         ",
"      % Y , G ' +.+.*.<.<.*.*.` { v A z f f a y a y y y y y y y y y y y e y y y y y y y y y y y y y y y y y y I k.k.. z         ",
"      q 8 U 9 / { +.+.*.*.+.` ~ H A z f f a a a y y y y y y e y y y y y y y y y e y y y y e y y e y y y y y y l.k.r @           ",
"        0 ..> G H ~ T { { { ~ H c z z f f a a y y y y y y y y y y y e y y e y y y y y e y y y y y y y e y y I k.k.. z           ",
"          > W , H v H ~ H H v c z z h f a a a y y y y y y y y y y y y y y y y y y y y y y y y e y y y y y y k.k.@ 1             ",
"          % 0 3 s c H A v H A z z f f f a a a y y y y y y y y y y y e y y y y e y y y y y y y y y y y y y k.k.F . z             ",
"            0 ! * z z A z z z z f f f a a y a y y y y y y y y y y y y y y y y y y y y y y y y t y y y e S k.k.. z               ",
"              0 Y * l l l h z f f a a a a y y y y y y y y y y t y y y y y e y y y y y y y e y y y y y y k.k.o 5                 ",
"              % * k % f f f f f f a a a y a a y y y y y y y y y y y y y y y y y y y y y y y y y y y y I k.& @                   ",
"                4 0 5 * f a f a a a a a y a y y y y y y y t y y y y y y y y y y y y y y y y y y y y l.l.= o z                   ",
"                  4 q 4 # a a a a y a y y y y y t a y y y y y y y y y y y y y y e y y y y y y y y k.l.= o z                     ",
"                    * 1 0 O a a a a a y a y y y t y y y y y t y y y y y y y y e y y e y y y y y I I @ @ z                       ",
"                      O O l o t y a y y y y y y y y y y y y y y y y y e y y y y y y y y y y y k.S o 6                           ",
"                          < c o @ y y y y y y y y y y y y y y y y y y y e y y y y y y t y g k.= . z                             ",
"                            > i i . 6 y y y y y y y y y y t y y y e y y y y y y y y y y I y . & z                               ",
"                                X l & . 2 t y y y y y y y y y y y y y y y y y y y y j t . o z                                   ",
"                                  < < z - . . y e y y y y y y t y y y y y y y y t @ . o A                                       ",
"                                        - d A o . . @ t y y y t y y y y e = . . o l z                                           ",
"                                              o 6 f f & o . . . . . . @ @ y j j                                                 ",
"                                                        o + - 7 r                                                               ",
"                                                                                                                                "
};
