/* XPM */
static char *f42c2f146c8e4b52cd294958d9015529lE2BsiPXwPXOlCO9[] = {
/* columns rows colors chars-per-pixel */
"64 64 141 2 ",
"   c None",
".  c #C89D32",
"X  c #CAA037",
"o  c #CCA23B",
"O  c #D0A63A",
"+  c #D4AB3E",
"@  c #CEA642",
"#  c #D2AA45",
"$  c #D3AC4A",
"%  c #DAB246",
"&  c #D5B04F",
"*  c #DAB34D",
"=  c #D3AE52",
"-  c #D5B152",
";  c #DAB654",
":  c #DEB850",
">  c #D5B35B",
",  c #DDBA5B",
"<  c #E1BD53",
"1  c #E1BF5F",
"2  c #D6B563",
"3  c #D9B762",
"4  c #D8B866",
"5  c #D9BA6A",
"6  c #E7C356",
"7  c #E3C058",
"8  c #EAC759",
"9  c #EBC85A",
"0  c #DFC275",
"q  c #E4C566",
"w  c #ECCB63",
"e  c #E5C568",
"r  c #E7C869",
"t  c #EDCE6C",
"y  c #EED16C",
"u  c #E2C575",
"i  c #ECCE72",
"p  c #E1C578",
"a  c #E5CA7C",
"s  c #EACF79",
"d  c #EED174",
"f  c #EFD37B",
"g  c #F2D975",
"h  c #F0D57F",
"j  c #F0D57E",
"k  c #F3DA79",
"l  c #F0DA7A",
"z  c #E9CE83",
"x  c #E7D084",
"c  c #EBD180",
"v  c #EFD683",
"b  c #EFD682",
"n  c #EAD58A",
"m  c #EFD88E",
"M  c #EFD88F",
"N  c #EFD88F",
"B  c #F0D580",
"V  c #F0D581",
"C  c #F0D582",
"Z  c #F0D682",
"A  c #F0D683",
"S  c #F0D684",
"D  c #F0D784",
"F  c #F0D685",
"G  c #F0D785",
"H  c #F0D787",
"J  c #F1D787",
"K  c #F0D684",
"L  c #F1D884",
"P  c #F1D788",
"I  c #F1D888",
"U  c #F1D889",
"Y  c #F1D88A",
"T  c #F1D98A",
"R  c #F1D98B",
"E  c #F3DF88",
"W  c #F1D98C",
"Q  c #F1D98D",
"!  c #F0D88E",
"~  c #F0D98E",
"^  c #F1D98E",
"/  c #F1DA8E",
"(  c #F2DA8F",
")  c #F1D98C",
"_  c #EEDA90",
"`  c #F0D890",
"'  c #F0D991",
"]  c #F2DA90",
"[  c #F2DB90",
"{  c #F2DB91",
"}  c #F2DB92",
"|  c #F2DB93",
" . c #F2DC93",
".. c #F2DC94",
"X. c #F2DC95",
"o. c #F2DC96",
"O. c #F2DD96",
"+. c #F2DC97",
"@. c #F3DD97",
"#. c #F2DC94",
"$. c #F3DD98",
"%. c #F3DD99",
"&. c #F3DE9A",
"*. c #F3DE9B",
"=. c #F3DE9C",
"-. c #F3DE9D",
";. c #F3DF9E",
":. c #F3DF9F",
">. c #F3DE9C",
",. c #F6E385",
"<. c #F7E689",
"1. c #F7E58C",
"2. c #F7E68C",
"3. c #F7E58F",
"4. c #F8E78F",
"5. c #F3E093",
"6. c #F5E090",
"7. c #F8E791",
"8. c #F8E896",
"9. c #F8E997",
"0. c #F5E19B",
"q. c #F7E899",
"w. c #F8E99A",
"e. c #F8E99B",
"r. c #F8EA9D",
"t. c #F9EA9F",
"y. c #F4E1A3",
"u. c #F9EBA1",
"i. c #F9EBA3",
"p. c #F9EBA4",
"a. c #F9EBA5",
"s. c #F9ECA5",
"d. c #F9ECA6",
"f. c #F9ECA7",
"g. c #F9EBA6",
"h. c #F5E3AA",
"j. c #F9ECA8",
"k. c #F9ECA9",
"l. c #F9EDAA",
"z. c #F9EDAB",
"x. c #F9ECA9",
/* pixels */
"                                                                                                                                ",
"                                                                                                                                ",
"                                          X . . . . . i d d d y d d d d                                                         ",
"                                      & & $ $ $ # d i . . . . . . . . * d d                                                     ",
"                                    & & & - - y d . . 8 9 9 8 9 9 9 9 + . * d                                                   ",
"                                  @ o @ @ o d : . 8 9 8 9 9 8 9 9 9 9 9 8 + . i                                                 ",
"                                . . . . . d X O 8 9 9 9 9 8 8 8 9 9 9 8 9 9 8 . i                                               ",
"                              & & & & & d X % 9 9 9 9 9 9 9 9 8 8 8 9 9 9 9 9 8 . d                                             ",
"                            - & & & & q # # 9 9 9 9 9 9 9 9 8 9 9 9 8 9 9 9 9 9 w . d                                           ",
"                          . . . X . . q O 8 8 9 9 8 9 8 8 9 9 9 8 9 9 9 9 9 9 9 9 ,.. d                                         ",
"                          $ # $ & # g X 6 9 8 8 9 9 9 8 9 8 9 9 9 9 9 9 9 9 9 9 9 9 k *                                         ",
"                        - & & & & 7 O + 8 8 9 8 9 8 8 8 9 8 9 8 9 9 9 9 9 9 9 9 9 9 k o d                                       ",
"                        o o o o O w + 9 9 8 9 9 9 9 8 8 9 9 9 9 9 9 9 9 9 9 w 9 9 9 9 2.o j                                     ",
"                      . . . . . % . + 9 9 9 9 9 8 8 8 9 9 9 8 9 9 9 9 9 9 9 9 9 9 w 9 k q i                                     ",
"                      & & & - & 9 + % 9 9 9 9 8 8 9 8 9 9 9 9 9 9 8 9 9 9 9 9 9 w 9 w w 2.X                                     ",
"                    & & & & - ; O + 9 9 8 9 9 9 9 9 9 8 9 9 9 9 9 9 9 9 9 9 w w w w w 9 4.q f                                   ",
"                    . . . . . d o % 9 9 9 9 9 8 9 9 9 9 9 9 9 9 9 9 9 9 9 w w 9 w 9 w w y 4.&                                   ",
"                  & $ $ $ $ $ , $ 6 9 9 9 9 9 9 9 9 9 9 9 9 9 9 9 9 9 w w 9 w w w t w t t 7.$ v                                 ",
"                  & & & & & ; . # 8 8 9 8 9 9 9 9 9 9 9 9 9 9 9 9 9 9 9 9 w w w t t t t t 1.E s                                 ",
"                  o o o o X d # $ 8 8 8 8 8 8 9 9 9 9 9 9 9 9 9 9 w w 9 9 t w t t t t y t j 8.-                                 ",
"                  . . X . . r $ % 9 8 9 9 9 9 9 9 9 9 9 9 9 9 9 9 9 w w w t w t t t d d i d w.=                                 ",
"                & & $ - - $ . $ 9 9 9 9 8 8 8 9 9 9 9 9 9 9 9 9 9 w w 9 9 t t t y d d d d i w.s P                               ",
"                & & - $ & ; . $ 9 9 9 9 9 8 9 9 9 9 9 9 9 9 9 9 9 9 w w w t y d d d d j f f w.w.c                               ",
"                . . . . . d # # 9 9 9 8 9 9 9 9 9 9 9 9 9 9 9 9 w 9 w w t t d d d f f f f f 3.t.3                               ",
"                & $ $ & $ d $ $ 8 9 8 9 9 9 9 9 9 8 8 9 9 9 9 9 9 w t w t t d d f f A B B B L t.=                               ",
"                & & & & $ q $ $ 9 9 8 8 9 8 9 9 8 9 9 9 9 9 9 w 9 w 9 t t y d h f h J A J A h i.4                               ",
"              o X X X X X # $ * 9 9 9 8 8 9 8 9 8 9 9 8 9 9 9 w w w t t t d j f A J J R J n J i.u $.                            ",
"              X . . X . . . # < 9 9 9 9 8 9 8 8 9 9 9 9 9 9 9 9 w w w y d d f A A R R R P P J p.5./                             ",
"              & & & & & & . $ 6 9 9 9 9 9 9 9 9 9 9 9 9 8 9 9 w 9 w t t d f h A R R / ] / R P z.i./                             ",
"              - & & & & $ . # 8 9 8 9 8 9 8 8 9 9 9 9 9 9 9 w 9 w t t d d h A J / / ] ] ] / / g.p.m                             ",
"              . . . . . X . $ 8 8 8 8 9 9 9 9 9 8 9 9 9 9 9 9 9 t t t d f h A R /  . .+. .] / g.p./                             ",
"              $ & $ & & - . $ 8 8 9 9 9 8 9 9 9 9 9 9 8 9 9 9 9 w t t d f A J R ] +.+.$.+.] / z.g.m                             ",
"              - & - & & - . # 9 9 9 9 9 9 9 9 9 9 9 9 9 9 9 w w t t i j j A R / _ $.$.$.$.+.] l.d._                             ",
"              . . . . . . . $ 9 8 8 9 9 9 9 8 9 9 9 9 w w 9 w w t t t j h J / ] +.$.0.-.$.+.] l.d._                             ",
"              . . . . . . . $ 6 9 8 9 9 9 8 8 8 9 9 9 9 9 w w t t d d j J P ] o.$.-.-.-.$.+. .l.g.`                             ",
"              & & & - - - . # < 9 8 9 8 9 9 9 9 9 9 9 9 9 w 9 t t t j h P / ] $.-.-.y.-.-.+.( l.z.]                             ",
"              - & $ - & $ . $ ; 8 9 9 9 9 9 8 9 9 9 9 w 9 t t t i i f v P ] +.$.-.0.y.:.0.+. .z.p.]                             ",
"              X . . . . . . $ % 8 8 9 9 9 9 9 9 9 9 9 9 w 9 w t d f f J / ] $.-.-.y.y.-.-.+.( z.+.-.                            ",
"                $ $ $ $ $ ; # $ 8 9 9 9 9 9 9 9 9 9 w w w t t t d j A J ] o.$.y.-.y.y.y.$.+.] z.0                               ",
"                * & = * = i $ $ 8 8 9 9 9 9 9 9 9 9 w 9 9 t t d d j v m ] +.-.0.y.y.y.y.0.+.+.z.5                               ",
"                . . . . . d $ $ 9 9 9 9 9 9 9 9 9 w 9 w w t t d j h J P o.$.-.y.y.y.y.:.-.+.0.z.2                               ",
"                . . . . . # O # 9 9 9 9 8 9 9 9 9 9 w w w t t d j h P ] o.-.:.y.y.y.y.:.$. .z.p.a                               ",
"                - - - $ $ & . $ % 9 9 9 9 9 9 9 9 w 9 w t t y d f J / ] +.:.y.y.y.y.y.:.$. .z.p._                               ",
"                  $ - * & & $ # % 9 9 9 9 9 9 9 9 9 w w t t d j v P / o.-.:.y.h.h.y.y.-.$. .z.a h.                              ",
"                  . . . . . i $ % 9 9 9 9 9 9 9 9 w w w t y d f A P ] o.-.:.y.y.y.y.:.-.o.+.z.2                                 ",
"                  & $ & $ $ , o # 9 9 9 9 9 9 9 9 w t t t i j h J / o.-.-.y.y.h.y.y.:.+.o.p.p.a                                 ",
"                  = - ; - & - . # * 9 9 9 9 9 9 w w w t i d f A P ] o.$.y.y.y.y.y.y.-.+.] z._ +.                                ",
"                    . . . . . r $ # 9 9 9 9 9 9 9 w t t t j f J / ] $.-.:.y.h.y.y.:.-.o. .p.2                                   ",
"                    . . . . . + X $ 6 9 9 9 9 w w w t t d j h J m +.$.-.y.y.y.y.y.-.$.] g.z.z                                   ",
"                      - $ - - $ - $ $ 9 9 9 9 w w w t i i f A J / +.-.-.y.y.y.y.-.-.$.] z.0 y.                                  ",
"                      - & - - & e o $ 9 9 w 9 9 9 t t i d h J P  .+.-.y.y.y.y.-.-.$.] 0.p.0                                     ",
"                      . . . . . . % $ $ 9 9 w w w t t d j h J ^  .+.-.:.y.y.y.y.$.+./ z.p 0.                                    ",
"                        & & & & - q . $ 8 w 9 w t t i d k B P ^  .$.>.0.y.0.:.$.+.] 0.d.p                                       ",
"                          & & & $ > 1 $ $ 9 w 9 w t t d h B P ] ] +.-.-.y.-.-.+. ./ z.2 h.                                      ",
"                          . . . . . o . $ 7 9 t w t t d j B P Y ] +.$.-.$.$.+.o.m g.x ]                                         ",
"                            . . . . . r . = w w w t d d f h J Y / +.+.$.+.+.] / / u.p                                           ",
"                              & - & & - i o = w t t y d f h J R / / ] ] o.] / P p.4                                             ",
"                                & - - - - i o ; w t t d f f v J P / / / / P P p.2                                               ",
"                                  . . X . . f X 1 w t d d f c A J J R J I n n 4                                                 ",
"                                    - & > - > f o & t i d d f f h A A A A 2 z                                                   ",
"                                      - - - > > 3 i @ = t d d f f f u > 3 ]                                                     ",
"                                          X . X o @ > c > = $ = = > s ]                                                         ",
"                                                  $ $ > =                                                                       ",
"                                                                                                                                "
};
