/* XPM */
static char *a0a2fba9114048e4d63d788d8b268db7U4se6RTZ9bbt69FP[] = {
/* columns rows colors chars-per-pixel */
"64 64 128 2 ",
"   c None",
".  c #A07200",
"X  c #A27400",
"o  c #A37500",
"O  c #A47600",
"+  c #A57600",
"@  c #A57700",
"#  c #A67800",
"$  c #A77800",
"%  c #A57A00",
"&  c #A67B00",
"*  c #A87900",
"=  c #AB7C00",
"-  c #AD7E00",
";  c #AD7F00",
":  c #AE7F00",
">  c #AC8400",
",  c #B08100",
"<  c #B18200",
"1  c #B28300",
"2  c #B28400",
"3  c #B38400",
"4  c #B38500",
"5  c #B48500",
"6  c #B58600",
"7  c #B58700",
"8  c #B68700",
"9  c #B78700",
"0  c #BB8C00",
"q  c #BD8E00",
"w  c #BE8F00",
"e  c #BF9000",
"r  c #B89500",
"t  c #BB9A00",
"y  c #BD9D00",
"u  c #C09100",
"i  c #C19200",
"p  c #C29300",
"a  c #C39300",
"s  c #C49400",
"d  c #C49500",
"f  c #C59600",
"g  c #C69700",
"h  c #C79800",
"j  c #C89800",
"k  c #CA9B00",
"l  c #CB9B00",
"z  c #CC9D00",
"x  c #CD9E00",
"c  c #CE9F00",
"v  c #CF9F00",
"b  c #C0A000",
"n  c #C1A100",
"m  c #CDAD00",
"M  c #CEAD00",
"N  c #D0A000",
"B  c #D1A200",
"V  c #D4A400",
"C  c #D4A500",
"Z  c #D5A500",
"A  c #D6A600",
"S  c #D7A700",
"D  c #D0A800",
"F  c #D0AC00",
"G  c #D8A800",
"H  c #D8A900",
"J  c #D9A900",
"K  c #D9AA00",
"L  c #DAAA00",
"P  c #DBAB00",
"I  c #DCAC00",
"U  c #DDAD00",
"Y  c #DEAE00",
"T  c #DFAF00",
"R  c #CAB000",
"E  c #DBB500",
"W  c #D0B900",
"Q  c #E0B000",
"!  c #E2B200",
"~  c #E4B400",
"^  c #E7B700",
"/  c #E2B800",
"(  c #E0BE00",
")  c #E8B800",
"_  c #E9B900",
"`  c #EBBB00",
"'  c #ECBB00",
"]  c #ECBC00",
"[  c #EDBD00",
"{  c #DBCA00",
"}  c #E2C500",
"|  c #E6C500",
" . c #E9C300",
".. c #EAC900",
"X. c #EBC900",
"o. c #ECCA00",
"O. c #F1C000",
"+. c #F7C600",
"@. c #F8C700",
"#. c #FBCB00",
"$. c #FDCC00",
"%. c #FFCE00",
"&. c #E3D100",
"*. c #F3D100",
"=. c #F4D200",
"-. c #F9D600",
";. c #FFD400",
":. c #FFDA00",
">. c #FFDB00",
",. c #FFDD00",
"<. c #ECE100",
"1. c #ECE300",
"2. c #FFE000",
"3. c #FFE700",
"4. c #F3ED00",
"5. c #FFEC00",
"6. c #FFED00",
"7. c #FFEE00",
"8. c #FFF600",
"9. c #FFFB00",
"0. c yellow",
"q. c #FFFF10",
"w. c #FFE330",
"e. c #FFFF40",
"r. c #FFFFAF",
"t. c #FFFDEF",
"y. c #FFFFEF",
"u. c white",
/* pixels */
"                                                    . b ,.,.,.,.,.,.%.%.. .                                                     ",
"                                            # ,.,.,.,.,.,.,.,.,.,.,.,.%.%.%.%.%.%..                                             ",
"                                      . ,.,.,.,.,.,.,.,.,.,.,.,.,.,.,.,.%.%.%.%.%.%.%.%.                                        ",
"                                    ,.,.,.,.,.,.,.6.0.0.0.0.0.0.0.6.,.,.%.%.%.%.%.%.%.%.%.%.                                    ",
"                                ,.,.,.,.,.,.0.0.u.u.u.0.0.0.0.0.0.0.0.0.0.0.0.%.%.%.%.%.%.%.%.`                                 ",
"                            ( ,.,.,.,.,.0.r.u.u.u.q.,.,.,.,.,.,.,.,.,.,.,.%.%.%.0.3.%.%.%.%.%.` ] Z                             ",
"                          X.,.,.,.,.0.u.u.u.u.,.,.,.,.,.,.m y y y y m ,.,.%.%.%.%.%.%.;.%.%.%.%.] ] ]                           ",
"                      r X.,.,.,.0.0.u.u.w.,.,.,.y y y y y y y y y y y y y . . # %.%.%.%.%.%.%.%.] ] ] ] .                       ",
"                    r X.=.,.,.0.0.9.,.,.,.,.y y y y y y X.,.,.,.,.,.,.| y . . . . . %.%.%.%.%.%.] ] ] ] ] .                     ",
"                  b X.X.,.,.0.0.,.,.,.,.y y y y ,.,.,.,.,.0.0.. . 0.0.0.0.%.%.%.. . . . %.%.%.%.] ] ] ] ] ] .                   ",
"                t X.X.,.,.0.0.,.,.,.y y y y ,.,.,.0.0.e.0.0.0.> %.0.0.0.,.%.%.%.%.%.. . . . ! ^ ] ] ] ] ] ] ] .                 ",
"              . X.X.*.,.0.,.,.,.X.y y y ,.,.,.0.u.u.u.0.0.0.4.>.%.. ,.,.,.%.%.%.%.%.%.%.. . . Z Z Z ] ] ] ] ] ] .               ",
"              !  .X.,.0.,.,.,.y y y ,.,.,.0.u.u.u.y.0.0.0.,.. %.%.L ,.,.,.%.%.%.%.%.%.%.%.%.. . . Z Z Z ] ] ] ] Z               ",
"            ! ! ! o.0.,.,.,.y y y ,.,.,.u.u.u.u.0.0.0.,.,.,.0.%.%.! E ,.,.%.%.%.%.%.%.%.%.%.%.. . . Z Z Z ] ] ] ] Z             ",
"          L ! ! ! 0.,.,.,.y y y ,.,.y.u.u.0.0.0.0.,.,.,.,.. 0.%.%.! . ,.%.%.%.%.%.%.%.%.%.%.%.%.. . . Z Z Z ] ] ] Z j           ",
"          ! ! ! ! >.,.,.b y y ,.>.e.0.0.0.0.0.0.,.,.,.,.,.0.0.%.%.! ! ,.%.%.%.%.%.%.%.%.%.%.%.%.] . . o Z Z Z ] ] Z Z           ",
"        ! ! ! ! 0.%.,.m y y ,.,.0.0.0.0.0.0.,.,.,.,.,.,.. 0.%.%.%.! [ . %.%.%.%.%.%.%.%.%.%.%.%.] ] . . l Z Z Z ] ] Z Z         ",
"      . ! ! ! ! %.%.#.y y ,.,.0.0.0.0.0.9.,.,.,.,.,.,.,.F 0.%.%.%.! ~ ! %.%.%.%.%.%.%.%.%.%.%.%.] ] Z . . Z Z Z Z ] Z Z .       ",
"      ! ! ! ! } %.%.. . ,.,.0.0.0.0.0.,.,.,.,.,.,.,.,.D 0.0.%.%.%.` ! #.. %.%.%.%.%.%.%.%.%.%.] ] ] ] Z . . Z Z Z Z Z Z Z       ",
"      ! ! ! ! 6.%.g . . %.,.0.0.0.0.,.,.,.,.,.,.,.,.,.. 0.0.%.%.%.+.! %.L %.%.%.%.%.%.%.%.%.%.] ] ] ] Z . . 7 Z Z Z Z Z Z       ",
"    Z Z ! 0 / %.' . . %.%.0.0.0.0.,.,.,.,.,.,.,.,.,.-.0.0.2.%.%.%.%.! ] %.. %.%.%.%.%.%.%.%.] ] ] ] ] ] Z . . 7 Z Z Z Z Z z     ",
"    Z Z ! L ! %.0 . # %.0.0.0.0.,.,.,.,.,.,.,.,.,.,.. 0.0.%.%.%.%.%.! ! %.L %.%.%.%.%.%.%.%.] ] ] ] ] ] Z . . 7 z Z Z Z l j     ",
"  . Z Z s ! ! z . . %.0.0.0.0.%.%.%.,.,.,.,.,.,.D . 0.0.0.%.%.%.%.#.! ! %.%.. N %.%.%.%.%.` ] ] ] ] ] ] ] Z . . 9 Z Z Z j z .   ",
"  Z Z Z 7 Y O.0 . . %.W . . . . . . ^ %.3.0.0.0.0.0.0.0.0.%.%.%.%.] ! ! ! %.%.! ! ! ! ! ! Y 1 . . . . . 4 Z . . 9 9 Z Z z j z   ",
"  Z Z Z 9 Z ! 3 . %.;.. 0.0.0.0.0.0.0.0.0.0.0.3.%.%.%.%.%.%.%.%.%.! ! ! ! %.%.%.%.%.%.%.^ ! ! ! ! ! j j 4 ] Z . 7 9 Z z z j z   ",
"  Z Z Z 7 Z 7 . . %.0.0.. 0.0.%.%.%.%.%.%.%.%.%.%.%.%.%.%.%.%.%.%.! ! ! ! ! ! ! ! ! ! ! ! ! ! ! ! j j . ] ] Z . . 9 e j h z z   ",
". Z Z 7 9 Z 7 . . %.0.0.0.. 0.0.#.%.%.%.%.%.%.%.%.%.%.%.%.%.%.%.%.! ! ! ! ! ! ! ! ! ! ! ! ! ! j j j . ] ] ] Z . . 7 1 z h z j . ",
"w Z Z 7 7 Z 9 . . %.0.0.%.%.%.0.0.%.! ! %.%.%.%.%.%.%.%.%.%.%.%.%.! ! ! ! ! ! ! ! ! ! ! ! Y g j j . ] ] ] ] I . . 4 1 j z z j 1 ",
"Z Z Z 9 7 Z 1 . ' 1.0.0.%.%.%.%.# 0.%.! ! ! ! ] %.%.%.%.%.%.%.%.! ! ! ! ! ! ! ! ! ! ! ! j 9 j j ^ ] ] ] ] ] ] Z . 4 1 1 j h z h ",
"Z Z Z 7 7 u . . Z 1.1.%.%.%.%.%.%.. 0.%.! ! ! ! ! ! ! ! ! ! ! ! ! ! ! ! ! ! ! ! ! ! ! j . j * ] ] ] ] ] ] ] ] z . . 1 1 z z z z ",
"Z Z Z 9 7 9 . . Z 1.1.] +.%.%.%.%.%.. 0.%.! ! ! ! ! ! ! ! ! ! ! ! ! ! ! ! ! ! ! ! j j . j . ] ] ] ] ] ] ] ] ` z . . 1 1 z h h z ",
"Z Z Z 7 9 7 . . Z 1.1.] ] ] +.%.%.%.%.. 0.%.! ! ! ! ! ! ! ! ! ! ! ! ! ! ! ! ! Z j . . j . ] ] ] ] ] ] ] ` ` I j . . 4 4 h z z h ",
"Z Z Z 7 9 7 . . Z &.1.] ] ] ] ] ] ] %.%.] 8.6.! ! ! ! ! ! ! ! ! ! ! ! ! ! ! j j . j j . ] ] ] ] ] ] ] ] E Y I l . . 1 1 j z z j ",
"Z Z Z 9 7 9 . . Z Z ' ] ] ] ] ] ] ] ] ] ] ] . 0.! ! ! ! ! ! ! ! ! ! ! ! ! ! j . j a L ] ] ] ] ] ] ] ` Y I Y Y j . . 1 1 z j j z ",
"Z Z V 9 9 7 . . Z Z ] ] ] ] ] ] ] ] ] ] ] ] ] 0.%.! ! ! ! ! ! ! ! ! ! ! ! ! j + j ] ] ] ] ] ] ] ] ` Y I Y I h z . + 1 1 s z z z ",
"l Z V 9 7 9 7 . Z Z Z ] ] ] ] ] ] ] ] ] ] ] . 0.%.%.! ! ! ! ! ! ! ! ! ! ! ! j j . . ] ] ] ] ] ] ` Y I Y I I z h . 3 1 1 z j z j ",
"7 z Z 7 9 7 9 . . Z Z ' ] ] ] ] ] ] ] ] ] ] . 0.%.%.! ! ! ! ! ! ! ! ! ! ! ! Y j . j ] ] ] ] ] I Y I Y I Y I h . . 1 1 1 j h z ; ",
". j j u 7 9 7 . . Z Z Z ' ' ] ] ] ] ] ] ] N 0.%.%.%.%.! ! ! ! ! ! ! ! ! ! ! ! j . h . ] ] I Y Y I Y I Y Y j z . . 1 1 1 z z h . ",
"  z l j 1 7 7 . . Z Z Z V ' ] ] ] ] ] ] ] . 0.%.%.%.%.! ! ! ! j j j j j L ! ! j j 4 s ^ Y I Y I Y I Y I Y z j . . 1 1 1 j z z   ",
"  j z z 1 1 9 7 . Z Z Z V E ] ] ] ] ] ] ' 0.0.%.%.%.! ! ! ! j j j j j j g j j j j . h e I Y I Y I Y I Y z j z . 1 1 1 4 z j z   ",
"  j z z 1 1 1 1 . . Z Z Z Z ] ] ] ] ] ] . 0.0.%.%.%.! ! ! Y j ; . j j j j j j j j . j . Y I Y I I Y Y N z j . . 1 1 4 1 j z z   ",
"  o j z 0 1 1 1 . . Z Z Z Z Z ] ] ] ] ] { 0.%.%.%.! ! ! ! g . j a . . j j j j j j j w j I Y I Y Y I Y z z j . . 1 1 4 j z j .   ",
"    j j j 1 1 1 1 . o j Z Z Z Z ] ] ] Y 0.0.%.%.! ! ! ! 1 g . ' ` . j . . j j j j j . j . I I I I Y z j j . . 1 1 1 1 z z z     ",
"    z z z 1 1 1 1 . . j j z j N Z Z ] . 0.0.%.%.! ! H h . ` ] Y Y Y Y . j . . j j j . j e I Y I z j z j z . . 1 1 1 1 j j j     ",
"      z j h 4 1 1 1 . . z z h z z z j 0.0.%.%.! ! H . I Y I Y I I Y I Y I . j . . j h j j z Y z z z j z . . 1 1 1 1 z z z       ",
"      j z z 1 1 1 1 . . h h z z h j o 0.0.%.! ! . H I Y I Y I Y Y I Y I I Y Y . j . + . g . j z z h h z . . 1 1 1 4 h j j       ",
"      . h z h 1 1 1 1 . . z z h z j R 0.0.] + e I I Y I Y I Y I I Y I Y Y I Y Y Y o j . j j j z z z z . . 1 1 1 1 j j z         ",
"        z z j 1 1 1 1 > . . h z z h 0.0.# 9 z j z z Z Y I Y I I Y I Y I I Y I Z j j j o j j o j h h . . 1 1 1 > 4 z z z         ",
"          j z z 1 1 1 1 o . . j z . N # z j z z h z z h z z h z z h h z h z z h z h j z j . 9 z z . . # 1 1 1 1 j z j           ",
"          w j z 1 1 1 1 1 . . . j o z j j z h z z h h z h z z h h z z h z z h z h z z j z j 7 . . . . 1 1 1 1 4 j z 4           ",
"            z j j 4 4 1 1 1 . . . j j z z z j h z z z z z h h z z z z z h z h z z z z z j z j . . . 1 1 1 1 1 z z z             ",
"              z z j 1 1 1 1 4 . . . z j z j z z h h z h z h z z z h h z h z z h z h j z j z . . . 1 1 1 1 4 j z j               ",
"              . z j a 4 1 1 1 1 > . . . h z j z z h h z z h z h h h z h z h z z h h z h . . . 1 1 1 1 1 1 4 z j                 ",
"                . z j 4 1 1 1 1 1 1 . . . . z j z z z h h z h z z z z z z j h z z z . . . . 1 1 1 1 1 4 4 j j .                 ",
"                  . z j h 4 1 1 1 1 1 1 . . . . g h z z z z h z z z h z h z z s . . . . 1 1 1 1 1 1 1 4 j z .                   ",
"                    . z j j 1 1 1 1 1 1 1 4 . . . . . . ; h z j h j h ; . . . . . . 4 4 1 1 1 1 1 1 1 j z .                     ",
"                      . z z j 4 1 1 1 1 1 1 1 1 * . . . . . . . . . . . . . . # 1 1 1 1 1 1 1 1 4 0 z j o                       ",
"                          j j z 1 1 1 1 1 1 1 1 1 1 1 1 1 ; . . . . ; 1 1 1 1 4 1 1 1 1 1 1 > 4 j j z                           ",
"                            4 z z z 1 4 1 1 1 1 1 1 1 1 1 1 1 1 4 1 1 1 1 1 1 1 1 1 1 1 1 4 h z z ;                             ",
"                                j z j z 1 1 1 1 1 1 1 1 1 1 1 1 1 1 1 1 1 1 1 1 1 1 1 1 j z z j                                 ",
"                                    z j z z j 4 1 1 1 1 1 1 1 1 1 1 1 1 1 1 1 1 1 j z z z j                                     ",
"                                        j j z z j z j 7 1 > 1 1 1 1 1 1 1 s z j z j z j                                         ",
"                                            o j j z z j k k z h j z j z j z z j z .                                             ",
"                                                      . s h z z h z z e o                                                       "
};
