/* XPM */
static char *_0aa40cef21645e8b805cdc19f7ae34fAIv5c03ESManVPxB[] = {
/* columns rows colors chars-per-pixel */
"64 64 142 2 ",
"   c None",
".  c #A07200",
"X  c #A17300",
"o  c #A27400",
"O  c #A37500",
"+  c #A57600",
"@  c #A57700",
"#  c #A67700",
"$  c #A47800",
"%  c #A67800",
"&  c #A67900",
"*  c #A77900",
"=  c #A67B00",
"-  c #A87A00",
";  c #A97B00",
":  c #AA7B00",
">  c #AA7C00",
",  c #AB7C00",
"<  c #AB7D00",
"1  c #AC7E00",
"2  c #AD7E00",
"3  c #AC7F00",
"4  c #AD7F00",
"5  c #AE7F00",
"6  c #AE8000",
"7  c #AC8400",
"8  c #AF8800",
"9  c #B08100",
"0  c #B08200",
"q  c #B18200",
"w  c #B28300",
"e  c #B28400",
"r  c #B38400",
"t  c #B48500",
"y  c #B58600",
"u  c #B58700",
"i  c #B68700",
"p  c #B78800",
"a  c #B28D00",
"s  c #B88900",
"d  c #B98A00",
"f  c #BA8C00",
"g  c #BB8C00",
"h  c #BD8E00",
"j  c #BE8F00",
"k  c #BD9D00",
"l  c #C09100",
"z  c #C19100",
"x  c #C19200",
"c  c #C29300",
"v  c #C39300",
"b  c #C39400",
"n  c #C49500",
"m  c #C59600",
"M  c #C69600",
"N  c #C69700",
"B  c #C79800",
"V  c #C89800",
"C  c #C99A00",
"Z  c #CA9B00",
"A  c #CB9B00",
"S  c #CB9C00",
"D  c #CD9D00",
"F  c #CD9E00",
"G  c #C0A000",
"H  c #C1A100",
"J  c #C9A900",
"K  c #D0A000",
"L  c #D2A200",
"P  c #D5A500",
"I  c #D6A600",
"U  c #D7A700",
"Y  c #D5AC00",
"T  c #D9AA00",
"R  c #DAAA00",
"E  c #DBAB00",
"W  c #DCAC00",
"Q  c #DDAD00",
"!  c #DEAE00",
"~  c #DFAF00",
"^  c #CAB000",
"/  c #D0B900",
"(  c #DAB900",
")  c #E1B100",
"_  c #E2B200",
"`  c #E4B400",
"'  c #E6B600",
"]  c #E7B700",
"[  c #E5BB00",
"{  c #E9B900",
"}  c #EABA00",
"|  c #EBBB00",
" . c #ECBC00",
".. c #EDBD00",
"X. c #E4B710",
"o. c #D5C100",
"O. c #E6C500",
"+. c #E8C600",
"@. c #EBC900",
"#. c #EDC900",
"$. c #F1C000",
"%. c #F1C100",
"&. c #F3C300",
"*. c #F4C400",
"=. c #F6C500",
"-. c #F8C700",
";. c #F9C800",
":. c #FACA00",
">. c #FDCC00",
",. c #FFCE00",
"<. c #FFCF00",
"1. c #E6DA00",
"2. c #F7D500",
"3. c #FFD100",
"4. c #F9D700",
"5. c gold",
"6. c #FBD900",
"7. c #FFDA00",
"8. c #FFDB00",
"9. c #FFDD00",
"0. c #FFDF00",
"q. c #ECE300",
"w. c #EDE500",
"e. c #FFE100",
"r. c #FFE300",
"t. c #FFE600",
"y. c #FFE700",
"u. c #F3ED00",
"i. c #FFEA00",
"p. c #FFF300",
"a. c #FFF600",
"s. c #FFF900",
"d. c #FFFB00",
"f. c #FFFC00",
"g. c #FFFD00",
"h. c yellow",
"j. c #FFFF20",
"k. c #FFFF30",
"l. c #FFEE80",
"z. c #FFFF8F",
"x. c #F9F6EF",
"c. c white",
/* pixels */
"                                          k 9.9.9.9.9.,.w R _ _ _ _ _ _ _ _ _ _ _ L . .                                         ",
"                                  * 9.9.9.9.9.9.9.9.9.,.,.,.,.,.w _ _ _ _ { ..,.,.,.,.,.,.,.,.                                  ",
"                              8 9.9.9.9.9.9.9.9.9.9.9.9.,.,.,.,.,.,.. ,.,.,.,.,.,.,.,.,.,.,.,.,..                               ",
"                            9.9.9.9.9.9.h.h.h.h.h.h.9.9.,.,.,.,.,.,.,.,.,.,.,.,.,.,.,.,.,.,.,.,.,.,.                            ",
"                        a 9.9.9.9.h.h.c.c.h.h.h.h.h.h.h.h.h.8.,.,.,.,.,.,.* ,.,.,.,.,.,.,.,.,.,.,.,.,..                         ",
"                      ( 9.9.9.r.h.c.c.c.9.9.9.9.9.9.9.9.9.,.,.h.8.,.,.,.,. .{ ,.,.,.,.,.,.,.,.,.,.,.,.,.N                       ",
"                    @.9.9.9.h.c.c.c.9.9.9.9.9.k k k k 2.9.,.,.,.,.r.,.,.,. . . .h.h.h.h.h.h.h.h.h.h.h.h.h.h.                    ",
"                  @.9.9.9.h.c.c.9.9.9.k k k k k k k k k k . . ,.,.,.,.,.,. . . . .h.h.h.h.h.h.h.h.h.h.h.h.h.h.                  ",
"                +.@.9.9.h.h.9.9.9.k k k k G 9.9.9.9.9.9.J . . . . ,.,.,.,.&.{  . . .c.c.c.c.c.c.c.c.c.c.c.c.c.x.                ",
"              G @.9.9.h.s.9.9.O.k k k 9.9.9.r.h.. 7 h.h.h.,.,.. . . @ ,.,.:. . . . .. h.h.h.h.h.h.h.h.h.h.h.h.h.*               ",
"              @.@.9.h.h.9.9.k k k 9.9.9.h.k.h.h.. . h.h.9.,.,.,.,.. . . _ ,. . . . . .7 h.h.h.h.h.h.h.h.h.h.h.h.h.              ",
"            [ @.9.h.i.9.9.k k G 9.9.h.c.c.h.h.u.p.R 9.9.9.,.,.,.,.,.N . . _ P  . . . . .h.h.h.h.h.h.h.h.h.h.h.h.h.h.            ",
"          - _ @.r.h.9.9.k k 2.9.s.c.c.c.h.h.h.. ,.&.@ 9.9.,.,.,.,.,.,.,.. . P P P  . . .A ,.,.,.,.,.,.,.,.,.,.,.,.,.*           ",
"          _ _ 4.h.9.9.k k 9.9.h.c.c.z.h.h.9.9.7 ,.,.. 9.9.,.,.,.,.,.,.,.,.. . P P P  . .P ,.,.,.,.,.,.,.,.,.,.,.,.,.,.          ",
"        _ _ _ h.8.9.k k 6.9.c.c.j.h.h.h.9.9.#.h.,.,.W 9.,.,.,.,.,.,.,.,.,.,.. . P P _  .` P ,.,.,.,.,.,.,.,.,.,.,.,.,.,.        ",
"        _ _ _ 8.9.9.k k 9.t.h.h.h.h.s.9.9.9.. h.,.,._ . ,.,.,.,.,.,.,.,.,.*.. . P P P  . .P A _ _ _ _ _ _ _ _ _ _ _ _ _         ",
"      R _ _ ` ,.9.k k 9.9.h.h.h.h.9.9.9.9.9.. a.,.,._ . ,.,.,.,.,.,.,.,.,. . .. . P P P  .P P _ _ _ _ _ _ _ _ _ _ _ _ _ P       ",
"      _ _ _ ,.,.N k 9.9.h.h.h.h.9.9.9.9.9.9.h.,.,.,._ _ ,.,.,.,.,.,.,.,.,. . .P . p P P P P P _ _ _ _ _ _ _ _ _ _ _ _ _ _       ",
"    . _ _ _ ,.,.. k 9.h.h.h.h.9.9.9.9.9.9.c.h.,.,.,._ ,.. ,.,.,.,.,.,.,.,. . . .. . P P P P P . _ _ _ _ _ _ _ _ _ _ _ _ _ .     ",
"    P _ P _ ,.u . ,.r.h.h.h.9.9.9.9.9.9.c.c.c.,.,.,._ ,.. ,.,.,.,.,.,.,.:. . . .P . e P P P P P _ _ _ _ _ _ _ _ _ _ _ _ _ _     ",
"    P _ N _ ,.. o ,.h.h.h.9.9.9.9.l.c.c.c.c.c.c.c.c.X._ ` ,.,.,.,.,.,.,. . . . .W o . p P P P F _ _ _ _ _ _ _ _ _ _ _ _ _ _     ",
"  . P W _ { g . ` r.h.h.h.9.9.9.9.9.9.9.c.c.c.,.,.,._ _ ,.. ,.,.,.,.,.,. . . . . .P . u P P P A . _ _ _ _ _ _ _ _ _ _ _ _ _ .   ",
"  P P P _ ,.* . ,.h.h.h.,.,.9.9.9.9.9.2 w.c.p.,.,.,._ _ ,.. s ,.,.,.,. . . . . . .P . . u P P A A _ _ _ _ _ _ _ _ _ _ _ _ _ _   ",
"  P P u _ ` . . &.. . . . . ` 3.h.h.h.h.h.h.,.,.,.,._ _ =.,._ _ _ _ _ L . . . . . ` . . u P L B A _ _ _ _ _ _ _ _ _ _ _ _ _ _   ",
"  P P u P g . ,.o.h.h.h.h.h.h.h.h.8.,.,.,.,.,.,.,.,._ _ _ ,.,.,.,.,.,.[ _ _ _ V B [ L . u P A A A _ _ _ _ _ _ _ _ _ _ _ _ _ _   ",
"  P P u P u . ,.h.* h.a.,.,.,.,.,.,.,.,.,.,.,.,.,.,._ _ _ _ _ _ _ _ _ _ _ _ V x j  .P . u u A A A _ _ _ _ _ _ _ _ _ _ _ _ _ _   ",
". P P p P u . ,.h.h.. h.,.,.,.,.,.,.,.,.,.,.,.,.,.,._ _ _ _ _ _ _ _ _ _ W V V -  . .P . # w A A A 7 _ _ _ _ _ _ _ _ _ _ _ _ _ . ",
", P P u P . . t.h.h.,.. h.,._ -.,.,.,.,.,.,.,.,.,._ _ _ _ _ _ _ _ _ _ A V V .  . . .Q . . w A A A . _ _ _ _ _ _ _ _ _ _ _ _ _ . ",
"V P P u u . . q.h.,.,.,.. h.,._ _ _ >.,.,.,.,.,.,._ _ _ _ _ _ _ _ _ V . V .  . . . . .. . w e A A u _ _ _ _ _ _ _ _ _ _ _ _ _ L ",
"P P V u p . . q.q.,.,.,.,.. h.,._ _ _ _ _ _ _ _ _ _ _ _ _ _ _ _ _ V . V .  . . . . . .u . w e A A A x x x x x x x x x x x x x x ",
"P P u p u . , q.q. .,.,.,.,.. h.=._ _ _ _ _ _ _ _ _ _ _ _ _ _ _ V . V .  . . . . . ._ j . w w A A A x x x x x x x x x x x x x x ",
"P P p u p . 2 q.q. . . .,.,.,.. h._ _ _ _ _ _ _ _ _ _ _ _ _ _ N . V .  . . . . . . .Q A . w e Z B A x x x x x x x x x x x x x x ",
"P P u p u . 7 1. . . . . . .,.,.. ,._ _ _ _ _ _ _ _ _ _ _ A V . V .  . . . . . . .W W Z . e w A A Z c j x x x x x x x x x x x x ",
"P P l u p . . U  . . . . . . . . .2 ,._ _ _ _ _ _ _ _ _ _ Q , V .  . . . . . . .~ W ~ x . e w A B Z c c x x x x x x x x x x x x ",
"P P V u u . . P  . . . . . . . . .7 h. ._ _ _ _ _ _ _ _ _ _ V V  . . . . . . .! W W A < . w w A Z Z c j x x x x x x x x x x x x ",
"l P P u p . . P P  . . . . . . . .. h.,._ _ _ _ _ _ _ _ _ _ V . .  . . . . .! W W W A . . w w A Z e c c x x x x x x x x x x c s ",
". A P u u . . P P {  . . . . . . .J ,.,.{ _ _ _ _ _ _ _ _ _ V . .  . . .' W ! W W ~ Z . . w 7 A Z . x x x x x x x x x x x x x . ",
". V A p p u . P P Q  . . . . . .R h.,.,.,._ _ _ _ _ _ _ _ _ V @ V  . .! W ! W ! W W Z o - w w A A 7 x x x x x x x x x x x x x . ",
"  A A w u u . P P P  . . . . . .. h.,.,.,._ _ _ V V A V W _ V V V s ! W ! W ! W W Z A . w w e A A x x x x x x x x x x x x x x   ",
"  A A w w p . P P P P  . . . . .. h.,.,._ _ _ W V V V V V V V V u . W ! W ! W ! W A g . w w e Z A j x x x x x x x x x x x x x   ",
"  A Z e e w . . P P P {  . . . .h.,.,.,._ _ _ A . . B N B A V V . 2 Q Q ~ W W W Z Z o o w w w B A x x x x N z z x x x x x x x   ",
"  A B A e w < . P P P P  . . .. h.,.,._ _ _ N . s A . A N N V V . V . Q W W ~ Z Z Z . . w w A A j x x x x z z z x x x x x x x   ",
"  . A A w w w . 7 A P P P  . .. h.,.,._ _ N N .  . .. x . A V V V V . Q W ~ W Z A A . e e w B A - x x x x x z z x x x x x x .   ",
"    A A w w w . . Z Z Z F P  .h.h.,._ _ A u L { W W W < x . N V V V l Q W W Z Z A . . w e e Z A x x x x x x l l x x x x x x     ",
"    A A p w w 7 . A A Z A A @ h.h.,._ _ . ! W ! W W ~ ~ W . j . V . V V Q A A B B . w w w c A A w w 2 w w w 5 7 7 w w 7 w w     ",
"    . A A w w w . . A B A A . h.,._ _ . W W ! W ~ W W W W W o A . . V . A A A A . . w w e Z A . 7 w 7 w 5 7 w w 5 w 5 w 7 .     ",
"      A A w w w e . Z Z B Z / h.,.. W W W ! W ! ~ W W W W ~ W W . l V . A A B N . w e w w A B w 7 w 5 w w w 5 7 w w w 2 w       ",
"      7 A A w w e . . Z Z . h.:.o A A A F W ! W W W ~ ~ W W U Z V . V V A A A . . e w w A A Z 7 w 2 w w 5 w w w w 5 w 7 .       ",
"        A B e e w w . . A . . Z Z Z Z Z Z Z Z Z Z Z Z Z Z Z Z Z Z Z A . . A . . w w e e A A 5 7 5 7 5 w w 7 5 5 w w w 5         ",
"        A A Z e w w o . o o Z Z Z Z Z Z Z Z Z Z Z Z Z Z Z Z Z Z Z Z B A . x . - w w w c A N w w w w 5 w w 5 w w 5 7 7 <         ",
"          A A w w w w . . N Z Z Z Z Z Z Z Z Z Z Z Z Z Z Z Z Z Z Z Z A A p . . w w w w A A 2 5 w 5 w w w w w w 5 w w w           ",
"          . A A w w w w . . . Z Z Z Z Z Z Z Z Z Z Z Z Z Z Z Z Z Z Z A e . . w w w w A A @ w w w w w 5 7 5 7 w w w 5 .           ",
"            A A e w w w w . . . Z Z Z Z Z Z A A Z Z Z Z Z Z Z Z Z Z . . . w w w w w A A w 5 w 5 w 7 w 7 5 w 5 w w w             ",
"              A Z w w w w w . . . Z Z Z Z Z B A Z Z Z Z Z Z Z Z Z . . . w w w w w A A 7 w 5 w 7 w 5 w 5 5 w 7 w 7               ",
"              . Z Z w w w w e w . . . B Z Z A A Z Z Z Z Z Z Z . . . e e w w w w A A . 7 w 7 w 5 w w 7 w w 5 w w .               ",
"                - Z A w w w w w e . . . . . p A Z Z Z j o . . . . w w w w w w j A x w 5 w 5 w 7 5 w 5 w w 7 w 5                 ",
"                  B Z Z e w w w w w w @ . . . . . . . . . . . w w w w w w e p Z A 7 5 5 w w w w w w w w w 7 w                   ",
"                    B Z Z e w w w w w w w w w w 5 2 w w w w w w w w w w w B Z c w w w w 5 7 5 w 5 5 7 5 w w                     ",
"                      . A A g w w w w w w w w w w w w w w w w w w w w w A A * 7 w 5 w w w w w w w w 7 w 2 .                     ",
"                          A A A w w w e w w w w w w w w w w w w w w A A A . w w w 5 7 5 w 5 7 5 5 7 w w                         ",
"                            e A Z Z j e w w w w w w w w w w w 7 A A A V 7 w 7 5 w w 7 w 7 w w 7 w w w                           ",
"                                Z Z Z Z A A w e w w w w j B A A A A . . . . . . . . . . 2 2 w w w 5                             ",
"                                    p Z A B Z Z A A A A A A A N . . . . . . . . . . . . . . . . .                               ",
"                                            o A B A A 2 . . . . . . . . . . . . . . . .                                         "
};
