/* XPM */
static char *_dc814258d56423a85e5b47d56c28775SeSqRI9aomTIb72B[] = {
/* columns rows colors chars-per-pixel */
"64 64 147 2 ",
"   c None",
".  c #C79C31",
"X  c #C89D32",
"o  c #CA9F38",
"O  c #CAA036",
"+  c #CCA33C",
"@  c #D0A93F",
"#  c #CEA642",
"$  c #CFA844",
"%  c #CFA749",
"&  c #CFA849",
"*  c #D1AA45",
"=  c #D2AB49",
"-  c #D5B04F",
";  c #D9B34E",
":  c #D2AD52",
">  c #D6B153",
",  c #DAB654",
"<  c #DCB856",
"1  c #D6B35A",
"2  c #D8B65C",
"3  c #DDBB5B",
"4  c #E2BE53",
"5  c #E0BD5C",
"6  c #D8B662",
"7  c #DBBA64",
"8  c #DAB969",
"9  c #E6C255",
"0  c #E1C25D",
"q  c #E9C65A",
"w  c #EBC95B",
"e  c #DFC069",
"r  c #E3C363",
"t  c #ECCB63",
"y  c #E5C56B",
"u  c #E7C96A",
"i  c #EDCE6C",
"p  c #EED066",
"a  c #EED06F",
"s  c #F0D56D",
"d  c #E4C672",
"f  c #E5C975",
"g  c #ECCE72",
"h  c #E7CB79",
"j  c #EACF7D",
"k  c #EED174",
"l  c #EFD47D",
"z  c #EFD47E",
"x  c #EFD47F",
"c  c #EFD37B",
"v  c #F2D874",
"b  c #F2D872",
"n  c #F0D57E",
"m  c #F0D57F",
"M  c #F0D67E",
"N  c #F0D57F",
"B  c #F1DC7E",
"V  c #F4DE7C",
"C  c #EBCF80",
"Z  c #EDD382",
"A  c #EFD580",
"S  c #EFD685",
"D  c #EED882",
"F  c #EFDA88",
"G  c #F0D580",
"H  c #F0D581",
"J  c #F0D582",
"K  c #F0D682",
"L  c #F0D683",
"P  c #F0D684",
"I  c #F0D685",
"U  c #F0D786",
"Y  c #F0D787",
"T  c #F1D787",
"R  c #F0D683",
"E  c #F0D788",
"W  c #F1D788",
"Q  c #F1D789",
"!  c #F1D788",
"~  c #F1D888",
"^  c #F1D889",
"/  c #F1D88A",
"(  c #F1D98A",
")  c #F1D88B",
"_  c #F1D98B",
"`  c #F1DD8B",
"'  c #F1D98C",
"]  c #F1D98D",
"[  c #F1D98E",
"{  c #F1DA8E",
"}  c #F2DA8F",
"|  c #F1D98C",
" . c #F2DA90",
".. c #F2DB90",
"X. c #F2DB91",
"o. c #F2DB92",
"O. c #F2DB93",
"+. c #F1DB94",
"@. c #F2DB94",
"#. c #F2DC94",
"$. c #F2DC95",
"%. c #F2DC96",
"&. c #F2DC97",
"*. c #F3DD97",
"=. c #F2DB94",
"-. c #F3DD98",
";. c #F3DD99",
":. c #F3DE9A",
">. c #F3DE9B",
",. c #F3DE9C",
"<. c #F3DE9D",
"1. c #F3DF9D",
"2. c #F3DF9E",
"3. c #F3DF9F",
"4. c #F3DE9B",
"5. c #F5E282",
"6. c #F5E187",
"7. c #F7E486",
"8. c #F7E587",
"9. c #F7E587",
"0. c #F7E588",
"q. c #F7E589",
"w. c #F7E68A",
"e. c #F7E68B",
"r. c #F4E08C",
"t. c #F6E38C",
"y. c #F7E58C",
"u. c #F7E68D",
"i. c #F8E790",
"p. c #F8E893",
"a. c #F8E897",
"s. c #F3DFA0",
"d. c #F4E0A0",
"f. c #F4E0A1",
"g. c #F4E0A2",
"h. c #F4E0A3",
"j. c #F4E1A3",
"k. c #F4E1A4",
"l. c #F4E1A5",
"z. c #F4E1A6",
"x. c #F4E2A6",
"c. c #F4E2A7",
"v. c #F4E1A4",
"b. c #F4E2A8",
"n. c #F5E2A8",
"m. c #F5E3A9",
"M. c #F5E2A8",
/* pixels */
"                                                                                                                                ",
"                                                                                                                                ",
"                                              . X = g n m m m G G A G P P                                                       ",
"                                        # o o a k u O o o o o # # % % % : Z P E                                                 ",
"                                    > - ; k b X o O w t t t t i i i k g g : : : ) E                                             ",
"                                - = - i k X X 9 w w w t t p i a a k k c c c l y : 1 ] @.                                        ",
"                              . X X k 4 X 4 w w w t w t t i g a k n l l m G A A l y : C E                                       ",
"                            - - , k X + w w w w w t t p t a a k k m G P P E P P P A l 1 1 E                                     ",
"                          - - < i X * w w w w w w t t t i a k k m P P ) ] } E E E P G m f : F                                   ",
"                        . . + k . ; w w w w w w w t t i i a c m G P ) } ........} E P G l F & P                                 ",
"                      = # + k . * w w 9 w w w w t t t i a k c G U ) ....;.@.;.@...} E P l m ` = G                               ",
"                    - - - k . = w w w w w w w w t t i i a c m J ) } $.;.;.;.<.<.@...} P l c r.U & G                             ",
"                  ; - - g O = 4 w w w w w w w w t t i i k c G T } ..;.;.a.s.s.s.;.@.} F G c k a.3 2 A                           ",
"                o X . # r # = w q q q w q w t t t t i a k n T ! ..$.<.<.s.s.s.s.;.;.} ) P l k g p.# l                           ",
"                = > = k X * w w w w w w w w w t t i i k c n T } @.;.<.f.s.m.s.b.<.$...) P l k g t.p.+ c                         ",
"              - - - t + = = 9 w w w w w w w w t t i a k n G !  .$.<.f.l.m.s.s.s.<.;.@.) P l c i i u.y 3                         ",
"              . X X k o * 4 w 4 w w w w w w w w t a a k c T }  .s.s.s.s.m.m.m.s.<.;...) m n k i i t.u.o c                       ",
"            = # + 5 + * ; w w w w w w w w w w p t a k c G ! } @.s.s.m.m.m.m.s.s.<.$...) G n k a t t u.B ;                       ",
"            - - ; k o * 4 w w w w w w w w t t p i i k c G !  .;.s.s.m.m.s.m.m.s.<.$.} P G n k i t t e.e.o k                     ",
"          = = * ; = = * w w w w w w w w w w t p i a c n T ! @.;.s.s.s.m.m.m.s.s.;.$.} P m k k i i t t e.u r                     ",
"          . . . s X = ; w w w 9 w w w w t t p p a a c J T } *.<.s.m.m.m.m.s.s.s.;.@.) P c k k i t t t w.w.. n                   ",
"          - : ; p @ = 4 9 w w w w w t w w t t i a k c J !  .*.<.s.s.s.m.m.m.m.s.$...) G c k i i t t w 8.w.O k                   ",
"        > = ; , @ * @ w w w w w w w w w t t t i a k n R |  .;.s.s.s.m.m.m.s.f.;.#.} U G n k i i t w w t w.k 5                   ",
"        . . . r X ; @ w 9 w w w 4 w t 4 t t i i a n n T } *.<.s.m.m.m.m.s.s.a.;...} P m k k i t t t t w 8.8.O                   ",
"        + + o k o = = w 9 w w w w w w t t t i i k c J Q  .;.<.s.m.m.m.s.m.s.s.s.} ) G n k a i t t w w w 7.7.o k                 ",
"        - - - t * = 4 w w w w w w w w t t t i a c c T Q  .<.s.s.s.m.m.m.s.s.s.;.} U m c k i t t t t w w 7.7.- k                 ",
"      = = # = < * * 9 w 9 w w 9 w w w t t i i a c m T Q <.<.s.s.m.m.m.m.s.s.;.+.) U l k a i t t w t w w b 7.u u                 ",
"      . . X O @ = * w w w w w w w w w t t i a k c T Q  .s.s.s.m.m.m.m.m.s.s.&. .) U l k a i t t w w w w p 7.5.4                 ",
"      > > - < . = = w w 9 w w w w t t t p i a c c T Q *.;.<.s.m.m.m.m.s.s.<.+.[ U G c k a i t t t w w w w w.8.*                 ",
"      = - - r X = * w q w w w w w w w t t i a c m T Q *.;.s.s.m.m.m.m.m.s.<.+.] P l k k i t t w w w w w w 8.8..                 ",
"      . . . r X = = q w w w w w w w p p i i k c m Q  .*.<.s.s.m.m.s.s.s.s.&. .Q L l k a i t t t w w w w w 8.8..                 ",
"      @ + + u X = * q w w w w w t t t t i a c c J Q  .;.s.s.s.m.m.m.s.s.<.@.] Q A k k a i t w t w w w w w 8.8..                 ",
"      - - - g X = * w w w w w t w w t i i a n G Q ) @.<.s.m.m.m.m.m.m.s.<.@.} I m k g i i t t w w w w w w 7.7.X                 ",
"      = = # y X * * 9 9 q w w w t t t i i g n G Q  .&.s.s.s.m.m.m.s.s.s.&.@.! J m k i i p w w t w w w w w 8.9.X                 ",
"      . . X 4 . = = w w w w w w w p t i a n m G Q @.s.s.s.m.m.m.m.s.s.s.@.] ! J n a i i t t w w w w w w w 8.8..                 ",
"      - - - 5 X = = w w w w w w t t i i a k G P ] @.s.s.s.m.m.m.m.s.s.s.O.} P m n a i i t t w w w w q w w 8.8.O                 ",
"      > - - , X = = q w w w w t t t t a k n m !  .&.<.s.s.m.m.m.l.f.<.;.O.! P m k a i t t w w w w q w 9 w 7.8.;                 ",
"      X X X X * = = 4 w w w t w t t i a k m G )  .&.s.s.m.m.m.m.l.f.<.*.] ! m n k a t t t t w w w w w w s 7.~ 5                 ",
"        # # * 5 = * ; w w w w w t i i a k n I ] @.<.s.s.m.m.m.m.l.f.;.@.] P n k a i p t t w w w w w w w 7.8.t i                 ",
"        - - - a # * * w w w t t t t a k n J ! O.*.<.s.n.s.m.m.m.l.<.&.O.E G m k i i t p w t w w q w w 9 7.8.@ v                 ",
"        # @ # i o = = w w w t t t i a k m J ] O.<.s.s.s.m.m.m.s.f.<.*.} E G n k i i t w w w w w w w w w 8.8..                   ",
"        X . . * . = = q w w t t i i a k m J ] @.s.s.s.b.m.m.m.s.f.;...} P l k g i i t t w w w w w q w w 8.8.*                   ",
"          - - - < = = , w w t t i i k n G ! } @.s.s.s.m.m.s.m.m.<.*...) G l k a i t t t w w 9 w 9 w w V 8.i u                   ",
"          - - - g @ = = w t t t i i k m P ! O.&.s.s.m.m.m.m.s.s.<.$.} ) m n k i i t t w w w w w w w w e.7.. k                   ",
"          . . X = o = = w t t t i i k m P ) O.;.s.s.m.m.m.b.s.s.;.$.} P l c k i p t w t w w w w w w w V 8.@                     ",
"            # @ # 5 = = = t t i i g n m ! O.*.;.s.m.m.m.s.b.s.s.*.#.} G c k i i t t t t w w w w w 9 V 8.r a                     ",
"            - - : i + = : t t i i k n m ) ..*.<.s.m.m.s.m.s.s.s.$.} U G c k i i t t w w w w w w w w 8.8..                       ",
"            * + + # ; = = < t i i n n G ) ..*.<.s.s.m.m.m.m.a.;.#.} P m c i i i t t w w w w w w w s 8.b u                       ",
"              . X o u o : : p i k k m P ) #.;.s.s.s.m.b.l.s.<.;.} ) U l k a a i p p w w w w w q w 8.8.O k                       ",
"                = ; : 5 - - , i k k m G ) ..;.a.s.s.s.b.l.s.<.$.} ) m c k a t t w w w w q w q w b V ; s                         ",
"                > - > u o 1 1 i k k l P ) #.$.<.s.l.b.s.s.<.;...) U m k k i t t w w w w w w w w 8.8.O                           ",
"                  o . o c o > 1 g c l G ) } $.<.s.s.l.s.<.;.@...U L c k a i t t w p w 9 w w w 5.8.. v                           ",
"                  * * = = 5 - 2 7 c m G ) } @.;.<.<.a.s.,.@.@.] U M c k a t t t w w w w w w p 9.@ g                             ",
"                    : > 1 7 = , 1 g c m Z ) ..@.;.;.;.*.@.+.[ E L c k a a t t t w w w w w w 9.q ,                               ",
"                      = * & e % 2 8 k l L ) } ..*.#.#.#...[ ] J l c k a a t t t w w w w w 8.u *                                 ",
"                        o o + y & 2 8 c M L P } } } } } ] E S G c k a a t p w t w w w w 8.r *                                   ",
"                          , 1 2 f > 1 8 l A P E ) E } E P P G l k k a i t t w t w w w 7.* ;                                     ",
"                            2 2 6 e d : 8 l l P P P G G G l c c k a i t t t w w w w 7.X u                                       ",
"                                # # & P : 6 g l l l l l l c k k a i t i t t w w w * o k                                         ",
"                                  > 1 6 d C : 1 k c c c k k k i i i t t w t w + o k                                             ",
"                                      2 7 7 h A : : 3 g k g i i i i t w * o + k                                                 ",
"                                          8 : : : j Z > = # # # + + # = k c                                                     ",
"                                                  1 & % = e ) Z G                                                               ",
"                                                                                                                                "
};
