/* XPM */
static char *cfa3e7e186a747f7d03a8c414860c0a7dXonztHqe74QY4w2[] = {
/* columns rows colors chars-per-pixel */
"64 64 151 2 ",
"   c None",
".  c #A07200",
"X  c #A17300",
"o  c #A27400",
"O  c #A37400",
"+  c #A37500",
"@  c #A57600",
"#  c #A57700",
"$  c #A67700",
"%  c #A77800",
"&  c #A87900",
"*  c #A87A00",
"=  c #A87B00",
"-  c #A97B00",
";  c #AA7C00",
":  c #AB7C00",
">  c #AB7D00",
",  c #AC7E00",
"<  c #AD7E00",
"1  c #AD7F00",
"2  c #AE7F00",
"3  c #AB8200",
"4  c #AE8000",
"5  c #B08100",
"6  c #B08200",
"7  c #B18200",
"8  c #B28300",
"9  c #B28400",
"0  c #B38400",
"q  c #B38500",
"w  c #B48500",
"e  c #B58600",
"r  c #B58700",
"t  c #B68700",
"y  c #B78800",
"u  c #B28C00",
"i  c #B88900",
"p  c #B98A00",
"a  c #BA8B00",
"s  c #BA8C00",
"d  c #BB8C00",
"f  c #BC8D00",
"g  c #BD8E00",
"h  c #BE8F00",
"j  c #B89500",
"k  c #BA9600",
"l  c #BD9D00",
"z  c #BE9E00",
"x  c #C09100",
"c  c #C19100",
"v  c #C19200",
"b  c #C29300",
"n  c #C39300",
"m  c #C39400",
"M  c #C49500",
"N  c #C59600",
"B  c #C69600",
"V  c #C69700",
"C  c #C79800",
"Z  c #C89800",
"A  c #C99A00",
"S  c #CA9A00",
"D  c #CA9B00",
"F  c #CB9C00",
"G  c #CD9E00",
"H  c #CE9E00",
"J  c #CF9F00",
"K  c #C0A000",
"L  c #C1A100",
"P  c #C9A900",
"I  c #CEAD00",
"U  c #D0A000",
"Y  c #D1A100",
"T  c #D1A200",
"R  c #D2A200",
"E  c #D4A400",
"W  c #D5A500",
"Q  c #D5A600",
"!  c #D6A600",
"~  c #D5AC00",
"^  c #D9AA00",
"/  c #DBAB00",
"(  c #DBAC00",
")  c #DCAC00",
"_  c #DDAD00",
"`  c #DFAF00",
"'  c #D6B500",
"]  c #E1B100",
"[  c #E2B200",
"{  c #E3B300",
"}  c #E2B600",
"|  c #E4B400",
" . c #E6B600",
".. c #E7B700",
"X. c #E4B800",
"o. c #E8B800",
"O. c #E9B900",
"+. c #EABA00",
"@. c #ECBC00",
"#. c #EDBD00",
"$. c #EFBE00",
"%. c #DBCA00",
"&. c #EBC900",
"*. c #F1C000",
"=. c #F1C100",
"-. c #F2C200",
";. c #F3C300",
":. c #F4C400",
">. c #F8C700",
",. c #F9C800",
"<. c #FAC900",
"1. c #FBCB00",
"2. c #FFCE00",
"3. c #E6DA00",
"4. c #E7DC00",
"5. c #F3D100",
"6. c #FFD100",
"7. c #F9D700",
"8. c #FFD600",
"9. c gold",
"0. c #FFDB00",
"q. c #F9DE00",
"w. c #FFDD00",
"e. c #FFDF00",
"r. c #ECE300",
"t. c #FFE100",
"y. c #FFE300",
"u. c #FFE600",
"i. c #FFE700",
"p. c #FFEA00",
"a. c #FFF000",
"s. c #FFF900",
"d. c #FFFC00",
"f. c #FFFD00",
"g. c yellow",
"h. c #FFFF10",
"j. c #FFD420",
"k. c #FFD730",
"l. c #FFFF20",
"z. c #CEB640",
"x. c #E9C540",
"c. c #F3DA40",
"v. c #FFE640",
"b. c #FFFF40",
"n. c #F1D980",
"m. c #FFE780",
"M. c #FFEE80",
"N. c #FFEA8F",
"B. c #FFFBBF",
"V. c #FFFDEF",
"C. c white",
/* pixels */
"                                        . . W [ [ [ [ [ [ [ [ [ [ [ W I w.w.w.w.w.2..                                           ",
"                                  2.2.2.2.2.2.2.2.*.O.[ [ [ [ * w.w.w.w.w.w.w.w.w.2.2.2.2.2..                                   ",
"                              8 2.2.2.2.2.2.2.2.2.2.2.2.2.L w.w.w.w.w.w.w.w.w.w.w.w.2.2.2.2.2.2..                               ",
"                            2.2.2.2.2.2.2.2.2.2.2.2.2.2.w.w.w.w.w.w.g.g.g.g.g.g.w.w.2.2.2.2.2.2.2.2.                            ",
"                        . 2.2.2.2.2.2.2.2.2.2.2.2.2.P w.w.w.w.g.g.C.C.g.g.g.g.g.g.g.g.g.2.2.2.2.2.2.2..                         ",
"                      ..2.2.2.2.2.2.2.2.2.2.2.2.2.&.w.w.w.g.g.C.C.C.w.w.v.w.w.w.w.w.w.2.2.g.8.2.2.2.2.@.g                       ",
"                    g.g.g.g.g.g.g.g.g.g.g.g.g.g.&.w.w.w.g.C.C.C.w.w.w.w.c.l l l l w.w.2.2.2.2.y.2.2.2.@.@.@.                    ",
"                  g.g.g.g.g.g.g.g.g.g.g.g.g.g.&.w.w.w.g.C.C.w.w.w.l l l z.l l l l l l . . 2.2.2.2.2.2.@.@.@.@.                  ",
"                C.C.C.C.C.C.C.C.C.C.C.C.C.C.&.&.w.w.g.g.w.w.w.l l l l ' M.w.w.w.w.w.l . . . . 2.2.2.2.@.@.@.@.^                 ",
"              j g.g.g.g.g.g.g.g.g.g.g.g.g.K &.w.w.g.w.w.w.l l l l w.w.w.B.g.. . g.g.g.2.2.. . . @.2.2.@.@.@.@.@..               ",
"            . g.g.g.g.g.g.g.g.g.g.g.g.g.3 &.&.w.g.w.w.w.l l l w.w.a.g.b.C.g.. . g.g.w.2.2.2.2.. . . [ *.@.@.@.@.@.              ",
"            g.g.g.g.g.g.g.g.g.g.g.g.g.g.&.&.w.g.p.w.w.l l 5.w.w.g.C.C.g.C.g.g.[ w.w.w.2.2.2.2.2.. . . ` W @.@.@.@.@.            ",
"          M 2.2.2.2.2.2.2.2.2.2.2.2.2.[ ..&.g.i.w.w.l l w.w.s.C.C.C.g.g.C.. 2.>.. w.w.2.2.2.2.2.2.( . . W W O.O.@.@..           ",
"          2.2.2.2.2.2.2.2.2.2.2.2.2.;.[ [ 7.g.w.w.l l w.w.g.C.C.g.g.g.w.C.. 2.2.. w.8.2.2.2.2.2.2.2.2.. . W W ..@.@.W           ",
"        2.2.2.2.2.2.2.2.2.2.2.2.2.2.[ [ [ g.w.w.l l w.w.C.C.l.g.g.s.w.w.C.g.2.2.[ w.2.2.2.2.2.2.2.2.2.W . . W W [ O.W W         ",
"        [ [ [ [ [ [ [ [ [ [ [ [ [ y [ [ [ 0.w.w.l l w.i.g.g.g.g.w.w.w.w.C.g.2.2.[ . 2.2.2.2.2.2.2.2.6.@.. . W W W @.@.W         ",
"      [ [ [ [ [ [ [ [ [ [ [ [ [ [ [ [ [ a.2.w.l l w.w.g.g.g.g.w.w.w.w.v.C.g.2.2.[ . 2.2.2.2.2.2.2.2.2.@.@.. . W W W @.W s       ",
"      [ [ [ [ [ [ [ [ [ [ [ [ [ [ [ [ [ 2.2.j l w.w.g.g.g.g.w.w.w.w.w.C.C.C.2.2.[ [ 2.2.2.2.2.2.2.2.2.@.@.W . W W W O.W W       ",
"    . [ [ [ [ [ [ [ [ [ [ [ [ [ e [ [ [ 2.2.. l w.g.g.g.g.w.w.w.w.w.w.C.C.C.2.2.[ 2.. 2.2.2.2.2.2.2.2.@.@.@.. . W W W W W .     ",
"    [ [ [ [ [ [ [ [ [ [ [ [ [ [ W [ W } 2.y . 2.y.g.g.g.w.w.w.w.w.w.w.C.C.C.2.2.[ ,.. 2.2.2.2.2.2.2.,.@.@.@.W . e W W W W R     ",
"    [ [ [ [ [ [ [ [ [ [ [ [ [ [ W [ M ..1.. . 2.g.g.g.w.w.w.w.w.w.w.C.C.C.C.C.2.[ [ @.W 2.2.2.2.2.2.@.@.@.@.W . X Z W W W F     ",
"  . [ [ [ [ [ [ [ [ [ [ [ [ [ . W [ [ 2.s . 2.g.g.g.a.w.w.w.w.w.V.C.C.C.C.C.C.C.C.C.2.. 2.2.2.2.2.2.@.@.@.@.O.e . e W W W Z .   ",
"  [ [ [ [ [ [ [ [ [ [ [ [ [ [ W W g [ 2.. . 2.g.h.b.N.C.C.C.C.C.C.C.C.C.C.C.C.C.C.C.C.C.C.C.C.C.k.@.@.@.@.@.@.W . 1 U W W F F   ",
"  [ [ [ [ [ [ [ [ [ [ [ [ [ [ W W e [ M . . q.. . . . . ..6.g.C.C.C.C.C.C.C.C.C.C.C.@.2.[ [ [ [ [ R . . . . . R . . e W F F Z   ",
"  [ [ [ [ [ [ [ [ [ [ [ [ [ [ W W e W s . 2.4.g.g.g.g.g.g.g.g.y.2.j.C.C.C.C.C.2.[ [ [ 2.2.2.2.2.2.O.[ [ { Z Z { R . y W Z F Z   ",
". [ [ [ [ [ [ [ [ [ [ [ [ [ R W W y W g . 2.g.u g.g.2.2.2.2.2.2.2.2.2.C.C.C.C.2.[ [ [ [ [ [ [ [ [ [ [ [ Z M e @.W . e e F F F   ",
". [ [ [ [ [ [ [ [ [ [ [ [ [ . W W e W . . 2.g.g.. g.2.2.2.2.2.2.2.2.2.C.C.C.k.2.[ [ [ [ [ [ [ [ [ [ [ Z Z . @.@.W . e 8 F F F . ",
"g [ [ [ [ [ [ [ [ [ [ [ [ [ ; W H e W . . i.g.w.2.. g.2.[ :.2.2.2.2.2.C.C.C.2.[ [ [ [ [ [ [ [ [ ..Z Z Z . @.@.@.( . # 8 F Z F . ",
"[ [ [ [ [ [ [ [ [ [ [ [ [ [ Z W y e e . . r.g.2.2.2.. g.2.[ [ [ ,.2.2.m.C.C.2.[ [ [ [ [ [ [ [ [ M . Z . @.@.@.@.@.. . 8 Z F Z y ",
"v v v v v v v v v v v v v v W W e y y . Z r.r.2.2.2.2.. g.2.[ [ } [ [ [ C.C.[ [ [ [ [ [ [ [ [ Z . Z . @.@.@.@.@.@.. . 8 9 F F F ",
"v v v v v v v v v v v v v v W W y e y . W r.r.@.2.2.2.2.. g.2.{ [ [ [ [ C.C.[ [ [ [ [ [ [ [ Z . Z . @.@.@.@.@.@.` . . 8 9 F C F ",
"v v v v v v v v v v v v v v W W e y e . W r.@.@.@.*.2.2.2.. g.@.[ [ [ [ C.C.[ [ [ [ [ [ [ Z . Z . @.@.@.@.@.@.X.` . . 8 9 C F F ",
"v v v v v v v v v v v v v v W W y e y . W 3.@.@.@.@.@.@.2.2.. s.[ [ [ [ C.x.[ [ [ [ [ [ B . Z . @.@.@.@.@.@.@.` ) . . 8 8 H Z F ",
"v v v v v v v v v v v v v v W W e y e . W ~ @.@.@.@.@.@.@.@.@.. 2.[ [ [ C.[ [ [ [ [ [ [ 0 Z . @.@.@.@.@.@.O.` ) ) . . 8 8 Z F F ",
"v v v v v v v v v v v v v v W W y e e . Z W O.@.@.@.@.@.@.@.@.@.g.$.[ [ C.[ [ [ [ [ [ [ Z Z B @.@.@.@.@.@.` ) ` Z . . 8 9 Z Z F ",
"v v v v v v v v v v v v v v v W p y y . . W } @.@.@.@.@.@.@.@.. g.2.[ [ C.[ [ [ [ [ [ [ Z . . @.@.@.@.@.) ) ` ^ F . . 8 9 F F 9 ",
"* v v v v v v v v v v v v v . Z R e y . . W W @.@.@.@.@.@.@.@.. 2.2.2.[ n.[ [ [ [ [ [ [ Z . # @.@.@...) ) ) ) ` Z . # 8 9 F F . ",
". v v v v v v v v v v v v v . H Z p y . . W W @.@.@.@.@.@.@.@.g.2.2.2.[ [ [ [ [ { { [ [ Z 1 Z @.@.` ` ) ) ` ` R F . 8 8 8 Z F . ",
"  v v v v v v v v v v v v v v S Z 8 e y . W W W @.@.@.@.@.@.. g.2.2.2.[ [ [ Z Z Z Z ` { Z Z n . ` ` ) ) ) ) ` Z F . 8 8 8 F Z   ",
"  v v v v v v v v v v v v v v S H 8 9 e . W W W E @.@.@.@.@.. g.2.2...[ [ [ Z Z Z B B Z Z Z . . ) ) ) ` ` ) ) Z s . 8 8 8 F F   ",
"  v v v v v v v v v v v v v v S Z 9 8 8 . . W W W @.@.@.@.@.%.g.2.2.[ [ [ Z # . B Z Z Z Z Z . Z ^ ` ` ( ` ( Z F . . 8 8 p F F   ",
"  v v v v v v v v v v v v v v S F s 8 8 . . W W W W @.@.@.X g.2.2.[ [ [ Z . c v . Z Z Z Z Z Z Z . ` ^ ` ( F F F . 4 8 8 F Z v   ",
"  . v v v v v v v v k m v v v . Z F 8 8 9 . Z F E E W @.@.. g.2.2.[ [ Z B . @.@.. B . Z Z Z Z Z . ` ` ( E F Z X . 9 8 8 F F .   ",
"    v v v v v v v v v m v v v v F F 8 8 8 . . F F F U W @.g.g.2.[ [ [ p g O.` ) ` 0 v . n Z Z . M ) ` ( Z F F . . 9 8 8 F Z     ",
"    4 9 8 4 8 4 9 4 9 4 9 4 9 4 Z F p 8 8 8 . Z F Z F Z 1 g.g.6.[ [ . ` ( ` ` ) ) ) ` . M . B . Z g ^ Z Z F F . 8 8 9 m Z F     ",
"    X 4 4 8 4 9 4 9 4 9 4 9 4 9 X F Z 8 8 8 . . F F F F . g.g.` [ . ( ` ` ^ ) ) ) ` ) ) . B . v Z . Z H F F . . 8 8 9 F F       ",
"      8 9 4 9 4 9 4 9 4 9 4 9 4 8 F F 9 8 8 ; X F Z Z F l g.2.. ` ` ` ( ` ) ` ` ) ) ` ` ` ` . Z Z * F F F Z . 8 8 8 8 Z F       ",
"      % 4 9 4 9 4 9 4 9 4 9 4 9 4 Z F Z 8 9 9 . . F F M g.2.. F Z Z Z ` ^ ` ) ) ` ) ) ) R Z Z . Z Z X Z Z . . 8 8 8 F F X       ",
"        9 4 9 4 9 4 9 4 9 4 9 4 4 4 F F 9 9 8 8 . . F . . F F F F F F F F F F F F F F F F F F F F . . F . . 9 8 8 8 F F         ",
"        4 4 4 9 4 9 4 9 4 9 4 9 9 4 F F y 9 8 8 X . C . F Z Z F C F C F C F C F F C F C F Z F Z Z F . . . * 8 8 9 Z F M         ",
"          8 9 4 9 4 9 4 9 4 9 4 4 9 4 F Z 9 8 8 9 . . m F F F F F F F C F F F C C F F F Z F F F F Z p . . 8 8 8 9 H Z           ",
"          X 4 8 4 9 4 9 4 9 4 9 9 4 9 y F F 8 8 8 9 . . m Z F Z C F F F C F F F F F F Z F F F Z F . . . 8 8 8 8 F Z X           ",
"            8 4 9 4 9 4 9 4 9 4 9 4 9 4 F F 8 8 8 8 8 . . . F F F C F F F C F C C F C F F Z F F . . . 8 8 8 8 8 F Z             ",
"              8 4 9 4 9 4 9 4 9 4 9 4 9 % F Z 8 8 8 8 8 . . . Z F F C F F F F F F F F F Z H F . . % 8 8 8 8 8 F F               ",
"              . 9 4 9 4 9 4 9 4 9 4 9 4 4 X F F 8 9 9 8 8 8 . . . F F F F C F F F F C F M . . . 9 8 8 8 8 9 Z F .               ",
"                4 9 4 9 4 9 4 9 4 9 4 9 4 4 F Z Z 9 8 8 8 8 8 . . . . . m F C F C r . . . . . 8 8 8 8 8 8 g F .                 ",
"                  9 4 9 4 9 4 9 9 4 9 4 9 4 9 F F F 9 9 8 8 8 8 4 X . . . . . . . . . . * 9 8 8 8 8 8 9 F Z g                   ",
"                    8 4 9 4 9 4 4 9 4 9 4 9 4 9 C F Z 9 8 8 8 8 9 9 8 8 8 8 1 1 8 8 8 8 8 8 8 8 8 8 8 F F m                     ",
"                    . 8 4 9 4 9 9 4 9 4 9 4 9 4 4 8 F Z 8 8 8 8 8 8 8 8 8 8 8 8 8 8 8 9 8 8 8 8 8 8 Z F .                       ",
"                        9 4 9 4 4 9 4 9 4 9 4 9 8 4 . F F Z 8 8 8 8 8 8 8 8 8 8 8 8 8 9 8 8 8 8 F Z F                           ",
"                          8 4 8 9 4 9 4 9 4 9 4 4 4 9 4 F F Z F e 9 9 9 8 8 8 8 8 8 8 9 8 8 F Z F *                             ",
"                            9 4 4 8 4 4 . . . . X . X X . . F F F Z F C 8 8 8 8 9 9 m Z Z F F F                                 ",
"                              . . . . . . . . . . . . . . . . . C Z F Z F F Z F Z F F F F 4                                     ",
"                                        . . . . . . . . . . . . . X . . ; Z F F F .                                             "
};
