/* XPM */
static char *_9e49667ae7a49bff6f9d5297e4c2eb2ZPZWlELBU6JKVEWs[] = {
/* columns rows colors chars-per-pixel */
"64 64 18 1 ",
"  c None",
". c #AD382C",
"X c #BB3C2F",
"o c #C94032",
"O c #E64C3C",
"+ c #E74C3C",
"@ c #E84C3C",
"# c #EB4D3D",
"$ c #ED4D3D",
"% c #EE4E3D",
"& c #F14F3E",
"* c #F75040",
"= c #F95140",
"- c #FA5140",
"; c #FF5241",
": c #FF5341",
"> c #FF5242",
", c #FF5342",
/* pixels */
"                                                                ",
"                                                                ",
"                                                                ",
"                                                                ",
"                                                                ",
"                                                                ",
"                                                                ",
"                                                                ",
"                                                                ",
"                                                                ",
"                                                                ",
"                                                                ",
"                                                                ",
"                                                                ",
"                                                                ",
"                                                                ",
"                                                                ",
"                                                                ",
"                                                                ",
"                                                                ",
"                                                                ",
"                                                                ",
"                                                                ",
"                                                                ",
"     ,,;,,,,,,,,,,,,,,,,,,,,,,,,,,,,,,,,,,,,,,,,,,,,,,,,;,,     ",
"   ;,;,,,,,,,,,,,,,,,,,,,,,,,,,,,,,,,,,,,,,,,,,,,,,,,,,,,,,,,,  ",
"  ;,=&##++++++++++++++++++++++++++++++++++++++++++++++++@$&&,,  ",
" ,,&++++++++++++++++++++++++++++++++++++++++++++++++++++++++$,; ",
";,*+++++++++++++++++++++++++++++++++++++++++++++++++++++++++#*, ",
",,$++++++++++++++++++++++++++++++++++++++++++++++++++++++++++$,,",
";,#+++++++............................................+++++++#,,",
",,++++++++..........XXXXXXXX........XXXXXXXX..........++++++++,,",
",,++++++++..........oooooooo........oooooooo..........++++++++,,",
",,++++++++..........oooooooo........oooooooo..........++++++++,,",
",,++++++++..........oooooooo........oooooooo..........++++++++,,",
",,++++++++..........oooooooo........oooooooo..........++++++++,,",
",,++++++++..........oooooooo........oooooooo..........++++++++,,",
",,++++++++..........oooooooo........oooooooo..........++++++++,,",
",,++++++++..........oooooooo........oooooooo..........++++++++,,",
",,++++++++..........oooooooo........oooooooo..........++++++++,,",
",,++++++++..........oooooooo........oooooooo..........++++++++,,",
",,++++++++..........oooooooo........oooooooo..........++++++++,,",
",,++++++++..........oooooooo........oooooooo..........++++++++,,",
",,++++++++..........oooooooo........oooooooo..........++++++++,,",
",,++++++++..........oooooooo........oooooooo..........++++++++,,",
",,++++++++..........oooooooo........oooooooo..........++++++++,,",
",,++++++++..........oooooooo........oooooooo..........++++++++,,",
",,++++++++..........oooooooo........oooooooo..........++++++++,,",
",,++++++++..........oooooooo........oooooooo..........++++++++,,",
",,++++++++..........oooooooo........oooooooo..........++++++++,,",
",,++++++++..........oooooooo........oooooooo..........++++++++,,",
",,++++++++..........oooooooo........oooooooo..........++++++++,,",
",,++++++++..........oooooooo........oooooooo..........++++++++,,",
",,++++++++..........oooooooo........oooooooo..........++++++++,,",
",,++++++++..........oooooooo........oooooooo..........++++++++,,",
",,++++++++..........oooooooo........oooooooo..........++++++++,,",
",,++++++++..........XXXXXXXX........XXXXXXXX..........++++++++,,",
",,++++++++............................................++++++++,,",
",,++++++++++++++++++++++++++++++++++++++++++++++++++++++++++++,,",
",,++++++++++++++++++++++++++++++++++++++++++++++++++++++++++++,,",
";,++++++++++++++++++++++++++++++++++++++++++++++++++++++++++++,;",
" ,++++++++++++++++++++++++++++++++++++++++++++++++++++++++++++, ",
" ;++++++++++++++++++++++++++++++++++++++++++++++++++++++++++++; ",
"    ++++++++++++++++++++++++++++++++++++++++++++++++++++++++    "
};
