/* XPM */
static char *a35d3131ed204ee0e5e31459cbf2ea311cIbt97jTg5NVti4[] = {
/* columns rows colors chars-per-pixel */
"64 64 76 1 ",
"  c None",
". c #272B34",
"X c #282B35",
"o c #292B35",
"O c #2A2D37",
"+ c #373134",
"@ c #55341C",
"# c #5E3A20",
"$ c #643F23",
"% c #674024",
"& c #794D2C",
"* c #644532",
"= c #614A3D",
"- c #704B31",
"; c #7C5031",
": c #7D5132",
"> c #343740",
", c #3F414A",
"< c #4E4443",
"1 c #564945",
"2 c #584B46",
"3 c #4F5159",
"4 c #755E51",
"5 c #676970",
"6 c #7E7470",
"7 c #80512F",
"8 c #81512F",
"9 c #81522F",
"0 c #82532F",
"q c #805130",
"w c #815130",
"e c #805230",
"r c #815230",
"t c #815330",
"y c #825230",
"u c #825330",
"i c #825331",
"p c #835533",
"a c #8A5C3B",
"s c #895D3D",
"d c #8E6040",
"f c #8D6243",
"g c #90684A",
"h c #926A4C",
"j c #9B6E4F",
"k c #836756",
"l c #9D7151",
"z c #97755D",
"x c #9E7B61",
"c c #A07D64",
"v c #A27F67",
"b c #A98164",
"n c #AE8466",
"m c #83858B",
"M c #8F9095",
"N c #B69B88",
"B c #A3A4A8",
"V c #C4AE9E",
"C c #C5AFA0",
"Z c #C9B5A7",
"A c #CBB9AB",
"S c #CDBCAE",
"D c #D8CAC0",
"F c #CECFD1",
"G c #D7D7D9",
"H c #D9D9DB",
"J c #DBDBDD",
"K c #E5DCD6",
"L c #ECE5E0",
"P c #EDE7E3",
"I c #F1EDE9",
"U c #F5F1EF",
"Y c #F7F4F2",
"T c #FBFBFB",
"R c #FDFDFD",
"E c white",
/* pixels */
"                             88r88                              ",
"                        rrrrrrrr8pr0rr                          ",
"                      rrrrrrrrrr8:88rrrrr                       ",
"                   rrrrrrrrrrrrr8p80rrrrrrr                     ",
"                  rrrrrrrrrrrrrrrrrrrrrrrrrrr                   ",
"                rrrrrrrrrrrrrrrrrrrrrrrrrrrrrrr                 ",
"               rrrrrrrrrrrrrrrrrrrrrrrrrrrrrrrrr                ",
"             rrrrrrrrrrrrrrrrrrrrrrrrrrrrrrrrrrrrr              ",
"            rrrrrrrrrrrrrrrrrrrrrrrrrrrrrrrrrrrrrrr             ",
"           rrrrrrrrrrrrrrrrrrrrrrrrrrrrrrrrrrrrrrrrr            ",
"          rrrrrrrrrrrrrrrrrrrrrrrrrrrrrrrrrr0r8:rrrrr           ",
"         rrrrrrrrrrrrrrrrrrrrrrrrrrrrrrrrrrr808prrrrrr          ",
"         rrrrrrrrrrrrrrrrrrrrrrrrrrrrrrrrrrrrr88rrrrrrr         ",
"        rrrrrrrrrr@@@rrrrrrrrrrrrrrrrrrrrrr@@%8prrrrrrrr        ",
"       rrrrrrrrrrr@@@@rrrrrrrrrrrrrrrrrrrr@@@%:8rrrrrrrrr       ",
"      rrrrrrrrrrrrr@@@@rrrrrrrrrrrrrrrrrr@@@@r80rrrrrrrrr       ",
"      rrrrrrrrrrrrrr@@@@rrrrrrrrrrrrrrrr@@@@rrrrrrrrrrrrrr      ",
"     rrrrrrrrrrrrrrrr@@@@rrrrrrrrrrrrrr@@@@rrrrrrrrrrrrrrrr     ",
"     rrrrrrrrrrrrrrrrr@@@@rrrrrrrrrrrr@@@@rrrrrrrrrrrrrrrrr     ",
"    rrrrrrrrEEEErrrrrrr@@@@rrrrrrrrrr@@@@rrrrrrfEEEZrrrrrrrr    ",
"    rrrrrrrrEEEEEErrrrrr@@@@rrrrrrrr@@@@rrrrrhEEEEEErrrrrrrr    ",
"   rrrrrrrrIEEEEEEEVrrrrr@@@@rrrrrr@@@@rrrrrEEEEEEEErrrrrrrrr   ",
"   rrrrrrrrAEEEEEEEEErrrrr@@@@rrrr@@@@rrrrcEEEEEEEEErrrrrrrrr   ",
"  rrrrrrrrrpEEEEEEEEEEgrrrr@@@&rr@@@@rrrrEEEEEEEEEEErrrrrrrrr8  ",
"  rrrrrrrrrrEEEEEEEEEEELrrrr@@rrr#@@rrrrEEEEEEEEEEEErrrrrrrrrr  ",
"  rrrrrrrrrrEEEEEEEEEEE>XrrrrrrrrrrrrrrXFEEEEEEEEEEKrrrrrrrrrr  ",
" 8rrrrrrrrrrEEEEEEEEEHXXXXrrrrrrrrrrrrXXXXEEEEEEEEErrrrrrrrrrrr ",
" rrrrrrrrrrrNEEEEEEEEmXXXX+rrrrrrrrrrXXXXXEEEEEEEEErrrrrrrrrrrr ",
" rrrrrrrrrrrrEEEEEEEEEXXXXXrrrrrrrrrXXXXX,EEEEEEEEErrrrrrrrrrrr ",
" rrrrrrrrrrrrEEEEEEEEEXXXXXXrrrrrrr;XXXXX5EEEEEEEExrrrrrrrrrrrr8",
"rrrrrrrrrrrrrNEEEEEEEEXXXXXX*rrrrrrXXXXXXXEEEEEEEErrrrrrrrrrrrrr",
"rrrrrrrrrrrrrrEEEEEETXXXXXXX.rrrrrrXXXXXXXXEEEEEEErrrrrrrrrrrrrr",
"rrrrrrrrrrrrrrPEEEEGXXXXXXXXorrrrr;ooXXXXXXXEEEEErrrrrrrrrrrrrrr",
"rrrrrrrrrrrrrr;REEEEXXXXXXXXXrrrrr-XXXXXXXXXEEEEUrrrrrrrrrrrrrrr",
"rrrrrrrrrrrrrrrbEEEEooXXXXXXXrrrrrrXXXXXXX.EEEEErrrrrrrrrrrrrrrr",
"rrrrrrrrrrrrrrrrYEEEEoXXXXXXrrrrrrrXXXXXX.BEEEErrrrrrrrrrrrrrrrr",
"rrrrrrrrrrrrrrrrrEEEEE3XX.X=rrrrrrrrXXXXXEEEEEsrrrrrrrrrrrrrrrrr",
" rrrrrrrrrrrrrrrrrDEEEEEEMrrrrrrrrrrr6JEEEEEErrrrrrrrrrrrrrrrrr ",
" rrrrrrrrrrrrrrrrrrrSEEEprrrrrrrrrrrrrrCEEErrrrrrrrrrrrrrrrrrrr ",
" 0rrrrrrrrrrrrrrrrrrrrrrrrrrrrrrrrrrrrrrrrrrrrrrrrrrrrrrrrrrrrr ",
"  rrrrrrrrrrrrrrrrrrrrrrrrrrrrrrrrrrrrrrrrrrrrrrrrrrrrrrrrrrrr  ",
"   rrrrrrrrrrrrrrrrrrrrrrrrrrrrrrrrrrrrrrrrrrrrrrrrrrrrrrrrrr   ",
"    rrrrrrrrrrrrrrrrrrrrrrrrrrrrrrrrrr88rrrrrrrrrrrrrrrrrrrr    ",
"     rrrrrrrrrrrrrrrrrrrajnnnnnnnnnnnnlfrrrrrrrrrrrrrrrrrrr     ",
"      8prrrrrrrrrrrnnnnnnnnnnnnnnnnnnnnnnnnn rrrrrrrrrrrrr      ",
"         rrrrrr    nnnnnnnnnnnnnnnnnnnnnnnnn      rrrr8         ",
"                   nnnnnnnnnnnnnnnnnnnnnnnnn                    ",
"                   nnnnnnnnnnnnnnnnnnnnnnnnn                    ",
"                   nnnnnnnnnnnnnnnnnnnnnnnnn                    ",
"                   nnnnnnnnnnnnnnnnnnnnnnnnn                    ",
"                   nnnnnnnnnnnnnnnnnnnnnnnnn                    ",
"                   nnnnnnnnnnnnnnnnnnnnnnnnn                    ",
"                   nnnnnnnnnnnnnnnnnnnnnnnnn                    ",
"                   nnnnnnnnnnnnnnnnnnnnnnnnn                    ",
"                   nnnnnnnnnnnnnnnnnnnnnnnnn                    ",
"                 Xo11bnnnnnnnnnnnnnnnnnnnn41Xo                  ",
"              XXXXXXXXXX2nnnnnnnnnnnnnnoXXXXXXXXXX              ",
"             XXXXXXXXXXXXXnnnnnnnnnnnkXXXXXXXXXXXXo             ",
"            XXXXXXXXXXXXXXXnnnnnnnnnzXXXXXXXXXXXXXXX            ",
"           XXXXXXXXXXXXXXXXonnnnnnnnXXXXXXXXXXXXXXXXo           ",
"          XXXXXXXXXXXXXXXXXXnnnnnnnXXXXXXXXXXXXXXXXXX           ",
"          XXXXXXXXXXXXXXXXXX<nnnnnnXXXXXXXXXXXXXXXXXo           ",
"          XXXXXXXXXXXXXXXXXXXnnnnnnXXXXXXXXXXXXXXXXXXX          ",
"          XXXXXXXXXXXXXXXXXXXnnnnnnXXXXXXXXXXXXXXXXXXo          "
};
