/* XPM */
static char *e9c8015cc69a4231c7fa049327c38013YRh24PAWaywK6WO3[] = {
/* columns rows colors chars-per-pixel */
"64 64 29 1 ",
"  c #758C8E",
". c #758D8F",
"X c #768D8F",
"o c #768E90",
"O c #778E90",
"+ c #778E91",
"@ c #778F91",
"# c #788F91",
"$ c #788F92",
"% c #789092",
"& c #799093",
"* c #799193",
"= c #7A9194",
"- c #7A9294",
"; c #7A9295",
": c #7B9295",
"> c #7B9396",
", c #7C9396",
"< c #7C9497",
"1 c #7C9597",
"2 c #7D9598",
"3 c #7D9698",
"4 c #7E9799",
"5 c #7F989B",
"6 c #80999C",
"7 c #819A9D",
"8 c #829B9E",
"9 c #839C9F",
"0 c #849EA1",
/* pixels */
"   100000007o  o<4<<<<6,<,<<6,<,<<6,<,<<<$O  $<<6<6,<<6<6,<,    ",
" o70000000007o  <<<6,6<<<6,6<<<6,6<<<6,6<   $4,6,<<<,6,<<<,6,   ",
" 7000000000007  $44<<,<,6<<<6,6<<,<,6<<<>  O<<6<<,6,<<<,6<6<<$  ",
"700000000000001  <<4<6<6,<,6<<,<<6<6,<,6o  $4<<<<6<<,6<6,<,<4$  ",
"000000000000000% $,,<44<<<6,<<6,,6,6<,<$   $<44<6,<<6,<<<<<4<, 7",
"0000000000000007  $4<<<<,6<<,6<<<<<<<6,+   O<<<<<<,6<<,664<<<$,0",
"0000000000000000, +$6<<4<,<,<,<,<64<,,      ><<46<6<6<6<<<4<, 60",
"0000000000000000,  +$<<4<6<6<6<6<,<<, +$74$  ,4,,<,<,<,<6<<,  40",
"0000000000000000,    $4,<,<,<,<,<<<,  100006o 44<<<<<<<<<<,+  $0",
"0000000000000000$     $,<6<6<6<66,$  60000007  ,6,6,6,6,<<+    6",
"700000000000000>       $<6<<6,<<4$+ 6000000006  ,,<6,<<6<+      ",
"$0000000000000>          ,,6<<4,$  ,00000000004  ,<,6<<,+       ",
" >00000000007>            $<,<,    000000000000>  $46,,  +$$,,$ ",
"  >000000009o                     $0000000000004   OXX  $<66,<4,",
",  40000007$   ><<,                700000000000        $6,<<<4<<",
"41  490004   $114<,,               %0000000000,      X$6<,<6<<<4",
"14<$ Oo$    $<<6,<<6$               >00000000,      +,,<<6,<<<<6",
"4,4<O      ><4<<6<<,<+               >0000091       $<<4<,6<6,<,",
"<<<<>O    $4<<46,6,66,        X$$$$   >00006       $6,6<<<<<,6<6",
"<44<<<O   ,,4<<<<<<<,<$    XX,<6<4,>   $66%       ,<<<,<6,6,<<<,",
"<,<,<<<+  %4,6,6<44<,,$X   $,6,644<<,o           $6,<<6,,6,6<<<6",
"<6<6<4<,  $,<<<<<<<<<6,   $<<<<<<<<4<,O         $4<<,6<<<<<<6,<,",
"6,<<<<<4,  $<6,<6<<4<,  +,6<<<,<,6<6<41X       $<<<,<,<,<6,<,6<6",
"<<<6<6<<,$  ,,6<<<4,,   ,<,<,66<<<<<4,4,X      ,<6<6<6<6<,6<<<<,",
"6<6,<6,6,,X X,<<66<$   ,<<<6,<<<<6,<<<<6<+    X<,6,6,6,6<6,<<<<6",
",<<<<,<<<$    ,4,$+X +,4<4<,6<6,<,6<6,<,<,    $<<<<<<<<<<,6<6,<,",
"<,6,<6<<6$     $X    <<<,6<6,<,6<<<<,6<66,$+  X,<6,<<6,<<<<<,6<6",
"<6<<<,6,,$          ,,6,<<<,6<<<6,6,<<<,<,6$   ,<,6<<,6<6,6,<<<,",
"6,<<6,<6,          $<6<6<6,<<6,<,6,6<<<6<<<<$  $<<6,,<<<,6,6<<<6",
"<<,6<<<,X         +,,,<,<,6<<,6<<<<<6,<,6<6<>   ,<<<6<6,<<<<6,<,",
"6<6<6<6+          $,46,6<<<<<<<<<6,<,6<64<<<,$   ,6,,<,6<6,<,6<6",
",<,<,<+           $6<<<<6,6,6,6,<,6<<<<,<<44<$    ,<6<<<<,6<<<<,",
",64,<$            $<<<<<<,<,<,<,<6,<<<<6<<<<<$     ,<4<<<4<6<6,<",
"<<<4,              ,6,6,<6<6<6<6<,6<6,<,6<6,6$     X<<<4<<<<<<6<",
"<6,$        $X     X,<<66,<<6,<<<<<<,6<64<<<,       O><446<6<<,<",
"<,$       ,<4<,$    ,<<4<<,6<<,66,6,<<<,<<44X         ,,<<<<6,6<",
"<$       $6,,<<<,X   ,,<6<6,<<6<,6,6<<<6,4<$           >,6,6,6,<",
"+       $4<<6<6,,4$  X,4,<<<,6,<<<<<6,<,44$    >666,    $<,<<<<<",
"       $<,6,,<,6<4<>XX$<<,6,<<<,<6,<,6<61%    >700006O  X+$6<<$+",
"      X<<6<<6<<<<,4,$  $<6<<,6<6<,6<<<<,$    >00000007      X   ",
"      $6,<<<<6,<4<6,<$  $6,,4<<<<<<66,<$X   >0000000006O        ",
"     $,,6<6,<,6<4<<<<6+ X$,46<,66,<,<,$    ,000000000007        ",
"     ,4<,<,6<<<<<<<,4<$X  $,,<6<<,<6,X    $00000000000006+      ",
"    $,6<6<<<6,6,<6<6<,,  XX$,<,<<6<$     >0000000000000006      ",
"    $<<6,<<<,6,6,6,6<,$      $6<6$X      70000000000000000,     ",
"    $4<,6<6,<<<<<<<<6,                  ,000000000000000007     ",
"     ,<6,<,6<6,<<64<,$                  ,000000000000000000     ",
"      ,,6<<<<,6<<,<4$                   $000000000000000006     ",
"       ><<4<<<4<<6,,                     70000000000000000o     ",
"        >4<<4<6<<4,                      o700000000000000>   o$o",
"$        O,<<<<<<<X         +              8000000000000>   4000",
"04        O>6<6<,X        $,$,$            $800000000004   40000",
"004         +$$,         ,6<<<6,$           $8000000004   400000",
"0004           +       +<<<<<6<<,$           o7000000>   4000000",
"00004                 $<<<44<,<,,4$           O70000>   <0000000",
"00006                $<<4<<<<6<6411>            $4,     50000000",
"00007               $,6,6<6<6<6<<<,<$X                  70000000",
"00001              $,4<<,<,<,<,<<46<6$                  <0000000",
"0094              +,44<,<<6,<<6,<<<<,6$           O      4000000",
"006               ,,<<<6,6<<,6<<6,6,,<,$          ,<<<,+  400000",
"0,               $666<6<<,<<6,<,6<6<46,,X        ,<<<<4<   40000",
">               $,,<,<,<<6,6<<<6,<,<<<4<$       $<<64<<<>   >000",
"     $466,$     <66<<<6,6<<<6,6<<<6,6<<<6     +,6<<<4<<<4>o   oo",
"    %800008    +<<,<,6<<,<,6<<,<,6<<,<,6<$    $<,<<6<<44,41     "
};
