/* XPM */
static char *_b7f52f04abe4711e1b4a107389dbdd4Hkg2Jzis3V5rP0Mm[] = {
/* columns rows colors chars-per-pixel */
"64 64 101 2 ",
"   c None",
".  c #323232",
"X  c gray20",
"o  c #473433",
"O  c #694C39",
"+  c #725540",
"@  c #7B5E48",
"#  c #803B34",
"$  c #CD4234",
"%  c #CC4334",
"&  c #CD4335",
"*  c #CE4335",
"=  c #D14436",
"-  c #D34536",
";  c #D64637",
":  c #DA4738",
">  c #DD4839",
",  c #DE4939",
"<  c #DB543F",
"1  c #E34A3B",
"2  c #E74C3C",
"3  c #85674F",
"4  c #8E7157",
"5  c #CF5C42",
"6  c #EA5E4A",
"7  c #C46445",
"8  c #EB6751",
"9  c #ED7159",
"0  c #EE7A60",
"q  c #27B061",
"w  c #27B062",
"e  c #28B061",
"r  c #28B162",
"t  c #29B664",
"y  c #29B765",
"u  c #2ABB67",
"i  c #2BBE69",
"p  c #35B56B",
"a  c #739C5D",
"s  c #50B467",
"d  c #42BA75",
"f  c #50BF7F",
"g  c #67A460",
"h  c #7ABC77",
"j  c #39C46D",
"k  c #2DCC70",
"l  c #2ECC70",
"z  c #2ECC71",
"x  c #48CE79",
"c  c #55C072",
"v  c #8A8C56",
"b  c #A38557",
"n  c #A18366",
"m  c #A68B6B",
"M  c #AA8C6D",
"N  c #B49675",
"B  c #B49976",
"V  c #BD9F7C",
"C  c #90B173",
"Z  c #F18C6F",
"A  c #F49F7D",
"S  c #62D181",
"D  c #6FD285",
"F  c #78CE9C",
"G  c #C6A884",
"H  c #D0B18B",
"J  c #D7B692",
"K  c #D6BD92",
"L  c #D6BC93",
"P  c #D7BC93",
"I  c #D7BD93",
"U  c #D9BB93",
"Y  c #D5BD98",
"T  c #F6A885",
"R  c #8CD58D",
"E  c #E1C59A",
"W  c #E2C49A",
"Q  c #E6CA9E",
"!  c #EECC9E",
"~  c #FAC49B",
"^  c #E8CCA0",
"/  c #ECCDA2",
"(  c #FCCDA2",
")  c #E4DDA9",
"_  c #F0D2A5",
"`  c #F2D5A7",
"'  c #F5D6A9",
"]  c #F5D7A9",
"[  c #FDD6A9",
"{  c #F1DEAD",
"}  c #FADBAD",
"|  c #FCDDAF",
" . c #FFE0B0",
".. c #FFE0B1",
"X. c #AEE1C4",
"o. c #BBE6CD",
"O. c #C9EBD7",
"+. c #D6F0E1",
"@. c #E4F5EB",
"#. c #F1FAF5",
"$. c white",
/* pixels */
"                                                                                                                                ",
"                                                                                                                                ",
"                                                                                                                                ",
"                                                                                                                                ",
"                                                                                                                                ",
"                                                                                                                                ",
"                                                                                                                                ",
"                                                w r r e r e r e e r e e r e e r                                                 ",
"                                    w r r r r r r r r r r r r r r r r r r r r r r r r r q e                                     ",
"                                w r r r r r r r r r r r r r r r r r r r r r r r r r r r r r r w                                 ",
"                              r r r r r r r r r r r r r r r r r r r r r r r r r r r r r r r r r r                               ",
"                            r r r r r r r r r r r r r r r r r r r r r r r r r r r r r r r r r r r r                             ",
"                            r r r r r r r r r r r r r r w r r r r r r r r r r r r r r r r r r r r r                             ",
"                            r r r r r r r r r r r r r p F o.O.O.O.O.o.F r r r r r r r r r r r r r r                             ",
"                            r r r r r r r r r r r r F @.$.$.$.$.$.$.$.$.+.f r r r r r r r r r r r r                             ",
"                            r r r r r r r r r r r f #.$.$.$.$.$.$.$.$.$.$.@.f r r r r r r r r r r r                             ",
"                            r r r r r r r r r r d #.$.$.$.$.$.$.$.$.$.$.$.$.+.p r r r r r r r r r r                             ",
"                            r r r r r r r r r r X.$.$.$.$.$.$.$.$.$.$.$.$.$.$.X.r r r r r r r r r r                             ",
"                            r r r r r w r r r r #.$.$.$.$.$.$.$.$.$.$.$.$.$.$.#.r r r r r r w r r r                             ",
"                            r r t t u t t i i i i i i i i i i i i i i i i i i i i i i u y y y t r r                             ",
"                            z z z z z z z z z z z z z z z z z z z z z z z z z z z z z z z z z z z z                             ",
"                            z z z z z z z z z z z z z z z z z z z z z z z z z z z z z z z z z z z z                             ",
"                            z z z z z z z z z z z z z z z z z z z z z z z z z z z z z z z z z z z z                             ",
"                            z z z z z z z z z z z z z z z z z z z z z z z z z z z z z z z z z z z z                             ",
"                              z z z z z z z z z z z z z z z z z z z z z z z z z z z z z z z z z z                               ",
"                              O O O /  ......................... . .........................n O O                               ",
"                              O O M  . ......................... .........................../ O O                               ",
"                          L I O 3 ' .. ...W 4 4 W .............. . ...........W 4 4 U ........N O I I                           ",
"                        I I I @ W ........4 O O 4 ............................4 O O 4 ..........3 I I I                         ",
"                      I I I I ' ..........O O O O ............................O O O O ........ .' I I I I                       ",
"                      I I I I  ...........O O O O .................. .........O O O O ...... . . .I I I I                       ",
"                      I I I I  ...........3 O O 3 ..........^ W E ^  .........3 O O 3 ...... . .| I I I I                       ",
"                      I I I I | ..........W + + W ........_ I I L L ^  . .....W + O J ..........' I I I I                       ",
"                        I I I ' ....................../ V I I I I L I V W ......................' I I I                         ",
"                          I I _ ....................H O O m I I I I B O O H ....................` I I                           ",
"                                ..................P O O O O O O O O O O O O G ..................                                ",
"                                ..................@ O O O O O O O O O O O O + ..................                                ",
"                                ..................+ O O O O O O O O O O O O + ..................                                ",
"                                 ................./ N 4 O O O O O O O O 4 N / ................ .                                ",
"                              z c ( .................... . . . .............................( h z                               ",
"                            z z z b 9 9 9 9 9 9 C S S S S S S S S S S S S S S C 9 9 9 9 9 9 b z z z                             ",
"                          z z z z z v 2 2 2 2 2 5 j z z z z z z z z z z z z j 5 2 2 2 2 2 v z z z z z                           ",
"                        z z z z S S x a 5 2 2 2 2 5 s z z z z z z z z z z s 5 2 2 2 2 5 a x S S z z z z                         ",
"                        z z D { ........! 8 2 2 2 2 2 7 g j z z z z j g 7 2 2 2 2 2 8 ! ........{ D z z                         ",
"                        z D ............ .( 2 2 2 2 2 2 2 2 2 2 2 2 2 2 2 2 2 2 2 2 ( .......... . .D z                         ",
"                        z ) ............ . .2 2 2 2 2 2 2 2 2 2 2 2 2 2 2 2 2 2 2 2 ............ . .) z                         ",
"                        R  .................2 2 2 2 2 2 1 : - - = = : 2 2 2 2 2 2 2 |  ............. .R                         ",
"                          ................~ 2 2 2 2 2 : & & & & & & & & : 2 2 2 2 2 ~  ...............                          ",
"                           . . ...........T 2 2 2 2 > * * $ $ & & & & & * > 2 2 2 2 T ................                          ",
"                           ... .........[ 6 2 2 2 1 * * * * % & & & & & $ * 2 2 2 1 6 [ ..............                          ",
"                           ......... . .9 2 2 2 2 = $ & * * = ; & & * $ $ $ = 2 2 2 2 0 ............ .                          ",
"                             ....... .T 2 2 2 2 > & & $ *             $ $ $ * > 2 2 2 2 T .... ... .                            ",
"                               .Y J Z 2 2 2 2 2 ; = O o                 o # = ; 2 2 2 2 2 Z J Y  .                              ",
"                                X X X X X X X X X X X X                 X X . X . . X . X X X X                                 ",
"                                X X X X X X X X X X X X                 X X X X X X X X X X X X                                 ",
"                                  X X X X X X X X X X X                 X X X X X X X X X X X                                   ",
"                                      X . X X X X X                         X X X X X X X                                       ",
"                                                                                                                                ",
"                                                                                                                                ",
"                                                                                                                                ",
"                                                                                                                                ",
"                                                                                                                                ",
"                                                                                                                                ",
"                                                                                                                                "
};
