/* XPM */
static char *_66d29cfccd84a0489f44c1e6cb37af3YPWnKYaZEEZFhztG[] = {
/* columns rows colors chars-per-pixel */
"64 64 89 1 ",
"  c None",
". c #323232",
"X c gray20",
"o c #4B3533",
"O c #5C5C3F",
"+ c #694C39",
"@ c #64513B",
"# c #60573D",
"$ c #725540",
"% c #765A44",
"& c #7B5E48",
"* c #586543",
"= c #546B45",
"- c #46794A",
"; c #7D6149",
": c #696154",
"> c #756254",
", c #8D3F37",
"< c #AE4439",
"1 c #BA4539",
"2 c #CD4335",
"3 c #D04435",
"4 c #D14436",
"5 c #D34536",
"6 c #D84638",
"7 c #DA4738",
"8 c #DD4839",
"9 c #E0493A",
"0 c #E54B3B",
"q c #E64C3C",
"w c #E74C3C",
"e c #85674F",
"r c #84684F",
"t c #8E7157",
"y c #A17C4F",
"u c #CF5C42",
"i c #E85543",
"p c #C46445",
"a c #ED7159",
"s c #E37860",
"d c #EE7A60",
"f c #23A65A",
"g c #24A65B",
"h c #2CAA5F",
"j c #27B061",
"k c #27B062",
"l c #28B061",
"z c #28B162",
"x c #408B52",
"c c #739C5D",
"v c #45BC6A",
"b c #50B467",
"n c #67A460",
"m c #39C46D",
"M c #2DCC70",
"N c #2ECC70",
"B c #2ECC71",
"V c #55C072",
"C c #8A8C56",
"Z c #A18366",
"A c #AA8C6D",
"S c #B49675",
"D c #89B373",
"F c #90B173",
"G c #E48B6B",
"H c #F39676",
"J c #62D181",
"K c #6FD285",
"L c #C6A884",
"P c #D0B18B",
"I c #D6BD92",
"U c #D6BC93",
"Y c #D7BC93",
"T c #D7BD93",
"R c #D9BB93",
"E c #E8A781",
"W c #F7B18C",
"Q c #8CD58D",
"! c #E2C49A",
"~ c #FAC49B",
"^ c #EBCEA2",
"/ c #FCCDA2",
"( c #E4DDA9",
") c #F0D2A5",
"_ c #F2D5A7",
"` c #F5D6A9",
"' c #F5D7A9",
"] c #FFE0B0",
"[ c #FFE0B1",
/* pixels */
"                                                                ",
"                                                                ",
"                                                                ",
"                                                                ",
"                                                                ",
"                                                                ",
"                                                                ",
"                        jzzlzlzllzllzllz                        ",
"                  jzzzzzzzzzzzzzzzzzzzzzzzzzjl                  ",
"                jzzzzzzzzzzzzzzzzzzzzzzzzzzzzzzj                ",
"               zzzzzzzzzzzzzzzzzzzzzzzzzzzzzzzzzz               ",
"              zzzzzzzzzzzzzzzzzzzzzzzzzzzzzzzzzzzz              ",
"              zzzzzzzzzzzzzzzzzzzzzzzzzzzzzzzzzzzz              ",
"              zzzzzzzzzzzzzzzzzzzzzzzzzzzzzzzzzzzz              ",
"              zzzzzzzzzzzzzzzzzzzzzzzzzzzzzzzzzzzz              ",
"              zzzzzzzzzzzzzzzzzzzzzzzzzzzzzzzzzzzz              ",
"              zzzzzzzzzzzzzzzzzzzzzzzzzzzzzzzzzzzz              ",
"              zzzzzzzzzzzzzzzzzzzzzzzzzzzzzzzzzzzz              ",
"              zzzzzzzzzzzzzzhx****xhzzzzzzzzzzzzzz              ",
"              zzzzzzzzzzzzzz=++++++=zzzzzzzzzzzzzz              ",
"              ggggggggggggg-++++++++-ggggggggggggg              ",
"              ggggggggggggg@++++++++@ggggggggggggg              ",
"              gggggggggggggO++++++++#ggggggggggggg              ",
"              fggggggggggggggggggggggggggggggggggf              ",
"               gggggggggggggggggggggggggfgggggggg               ",
"               ++++++++++++++++++++++++++++++++++               ",
"               ++++++++++++++++++++++++++++++++++               ",
"             UT++++++++++++++++++++++++++++++++++TT             ",
"            TTT++++++++++++++++++++++++++++++++++TTT            ",
"           TTTT++++++++++++++++++++++++++++++++++TTTT           ",
"           TTTT++++++++++++++++++++++++++++++++++TTTT           ",
"           TTTT;++++++++++++++++++++++++++++++++%TTTT           ",
"           YYYYr++++++++++++++++++++++++++++++++eTTTT           ",
"            YYY`!RSt++++++++++++++++++++++++eSR!`TTT            ",
"             YT^[[[[[RPAtt&++++++++++$ttZLR`[[[[)TT             ",
"                [[[[[[[[[[[[[[[[[[[[[[[[[[[[[[[[                ",
"                [[[[[[[[[[[[[[[[[[[[[[[[[[[[[[[[                ",
"                [[[[[[[[[[[[[[[[[[[[[[[[[[[[[[[[                ",
"                [[[[[[[[[[[[[[[[[[[[[[[[[[[[[[[[                ",
"               MV/[[[[[[[[[[[[[[[[[[[[[[[[[[[[/DM               ",
"              BBCiaaaaaaFJJJJJJJJJJJJJJFaaaaaaiyBB              ",
"             MBBuwwwwwwwumMMBMBBBBBBBBmuwwwwwwwwvBB             ",
"            MBBvwwwwwwwwwubMBBBBBBBBBbuwwwwwwwwwcBMM            ",
"            MMKEwwwwwwwwwwwpnmBBBBmnpwwwwwwwwwwwGKMM            ",
"            MK[Hwwwwwwwwwwwwwwwwwwwwwwwwwwwwwwwwa[KM            ",
"            M([Hwwwwwwwwwwwwwwwwwwwwwwwwwwwwwwwwa[(M            ",
"            Q[[Hwww8555555wwwwwwwwwwww5555558wwwa[[Q            ",
"             [[Hwww7222222wwwwwwwwwwww2222227wwwa[[             ",
"             [[Hwww8222222wwwwwwwwwwww5222228wwwd[[             ",
"             [[Wwww0522228wwwwwwwwwwww8222230wwwH[[             ",
"             [[~wwww06559wwwwwwwwwwwwww85570wwww/[[             ",
"              [[swwwwwwwwwwww      wwwwwwwwwwwwa[[              ",
"               [:<wwwwwwww,o        o,wwwwwwww1>[               ",
"                XXXXXXXXXXXX        XXXXXXXXXXXX                ",
"                XXXXXXXXXXXX        XXXXXXXXXXXX                ",
"                 XXXXXXXXXXX        XXXXXXXXXXX                 ",
"                   XXXXXXX            XXXXXXX                   ",
"                                                                ",
"                                                                ",
"                                                                ",
"                                                                ",
"                                                                ",
"                                                                ",
"                                                                "
};
