/* XPM */
static char *cfd3ae34bdca47709e7d78d226c66e765iB6klyB4uqr6Xco[] = {
/* columns rows colors chars-per-pixel */
"64 64 116 2 ",
"   c None",
".  c #323232",
"X  c gray20",
"o  c #3E3433",
"O  c #493634",
"+  c #543734",
"@  c #603935",
"#  c #684B38",
"$  c #684C38",
"%  c #694C39",
"&  c #725540",
"*  c #7B5E48",
"=  c #5A6C47",
"-  c #8D3F37",
";  c #984138",
":  c #AE4439",
">  c #C2473A",
",  c #C5473A",
"<  c #D94A3B",
"1  c #DB543F",
"2  c #E64B3B",
"3  c #E74C3C",
"4  c #85674F",
"5  c #8E7157",
"6  c #977A5E",
"7  c #B86C49",
"8  c #AD744C",
"9  c #A17C4F",
"0  c #CF5C42",
"q  c #E85543",
"w  c #E95A47",
"e  c #EA5E4A",
"r  c #DF6F55",
"t  c #EB6751",
"y  c #ED7159",
"u  c #E1795C",
"i  c #3CAC63",
"p  c #27B061",
"a  c #27B062",
"s  c #27B162",
"d  c #28B061",
"f  c #28B062",
"g  c #28B162",
"h  c #28B262",
"j  c #29B765",
"k  c #29B966",
"l  c #2ABB67",
"z  c #2ABC68",
"x  c #2BBE69",
"c  c #35B56B",
"v  c #4F8451",
"b  c #4B8C55",
"n  c #449C5C",
"m  c #76875D",
"M  c #7E9459",
"N  c #739C5D",
"B  c #40A45F",
"V  c #5CAC63",
"C  c #67A460",
"Z  c #2BC06A",
"A  c #2BC16B",
"S  c #2CC36C",
"D  c #2CC46C",
"F  c #2CC56D",
"G  c #2CC66E",
"H  c #2DC86F",
"J  c #2DCA70",
"K  c #2ECB70",
"L  c #2DCC70",
"P  c #2ECC70",
"I  c #2ECC71",
"U  c #3BCD75",
"Y  c #48CE79",
"T  c #55CF7D",
"R  c #57D07D",
"E  c #6DC97D",
"W  c #968453",
"Q  c #A18366",
"!  c #AA8C6D",
"~  c #B49675",
"^  c #BD9F7C",
"/  c #9CA970",
"(  c #F08367",
")  c #F18C6F",
"_  c #F49F7D",
"`  c #5DC488",
"'  c #5DC489",
"]  c #62D181",
"[  c #6FD285",
"{  c #78CE9C",
"}  c #B9BE87",
"|  c #C6A884",
" . c #D0B18B",
".. c #D9BB93",
"X. c #F6A885",
"o. c #F7B18C",
"O. c #F9BB93",
"+. c #89D48D",
"@. c #96D691",
"#. c #B0D899",
"$. c #BDD99D",
"%. c #93D8B0",
"&. c #E2C49A",
"*. c #CADBA1",
"=. c #D7DCA5",
"-. c #ECCDA2",
";. c #E4DDA9",
":. c #F5D6A9",
">. c #FDD6A9",
",. c #FFE0B0",
"<. c #FFE1B0",
"1. c #FFE0B1",
"2. c #AEE1C4",
"3. c #BBE6CD",
"4. c #CAF2DB",
"5. c white",
/* pixels */
"                                                                                                                                ",
"                                                                                                                                ",
"                                                                                                                                ",
"                                                                                                                                ",
"                                                                                                                                ",
"                                                                                                                                ",
"                                                                                                                                ",
"                                                                                                                                ",
"                                        g g g g g g g g g g g g g g g g g g g g g g g                                           ",
"                                  g g g g g g g g g g g g g g g g g g g g g g g g g g g g                                       ",
"                              a g g g g g g g g g g g g g g g g g g g g g g g g g g g g g                                       ",
"                            a g g g g g g g g g g g g g g g g g g g g g g g g g g g g g g a                                     ",
"                          g g g g g g g g g g g g g g g g g g g g g g g g g g g g g g c ' '                                     ",
"                        g g g g g g g g g g g g g g g g g g g g g g g g g g g g g ' 2.5.5.5.                                    ",
"                      g g g g g g g g g g g g g g g g g g g g g g g g g g g g g %.5.5.5.5.5.                                    ",
"                      g g g g g g g g g g g g g g g g g g g g g g g g g g g g { 5.5.5.5.5.5.                                    ",
"                    g g g g g g g g g g g g g g g g g g g g g g g g g g g g ' 5.5.5.5.5.5.5.                                    ",
"                    g g g g g g g g g g g g g g g g g g g g g g g g g g g g 3.5.5.5.5.5.5.5.                                    ",
"                    g g g g g g g g g g g g g g g g g h g g g g g g g g g g 4.4.4.4.4.4.4.4.                                    ",
"                    g g g g g g g g g g g g g g g g h l k z x A G G I L L L I I L L I L L L I I L L L                           ",
"                    g g g g g g g g g f g j l x H H P P I I I I I I I I I I I I L I I I I I I I L I I I I                       ",
"                    g g g g g g j l S I I I L L I I P P I I I I I I I I I I I I I I I I I I I I I I I I I I                     ",
"                    f g k x H I I I I I I I I I I I I I I I I I I I I I I I I I I I I I I I L L I I I I I I                     ",
"                    S H I I I I I I I I I I I I I I I I I I I I I I I I I I I I I I I I I I L L L L L                           ",
"                    L L L L L I I I I I L I I I I I I I I I ` R ] ] +.@.@.@.#.*.*.*.=.1.1.                                      ",
"                      n i i i i i B b b b v = = = m 1.1.1.1.<.<.1.1.1.1.1.1.1.1.1.1.1.1.1.                                      ",
"                      % % % % % % % # # % % % % % ! 1.1.1.1.1.1.1.1.1.1.1.1.1.1.1.1.1.1.1.                                      ",
"                      % % % % % % % % % % % % % % -.1.1.1.1.1.1.&.& # | 1.1.1.1.1.1.1.1.1.                                      ",
"                      % % % % % % % 4 ..1.1.1...~ 1.1.1.1.1.1.1.5 % % * 1.1.1.1.1.1.1.1.1.                                      ",
"                      % % % % % % & -.1.1.1.1.1.1.1.1.1.1.1.1.1.% % % % 1.1.1.1.1.1.1.1.1.                                      ",
"                      # % % % % % ..1.1.1.1.1.1.1.1.1.1.1.1.1.1.% % % % 1.1.1.1.1.1.1.1.1.                                      ",
"                      % % % % % % 1.1.1.1.1.1.1.1.1.1.1.1.1.1.1.6 % # 4 1.1.1.1.1.1.1.1.1.1.1.                                  ",
"                      % % % % % % 1.1.1.1.1.1.1.1.1.1.1.1.1.1.1.:.* % ..1.1.1.1.1.1.1.1.1.1.1.1.                                ",
"                        % % % % % | 1.1.1.1.1.1.1.1.1.1.1.1.1.1.1.1.1.1.1.-.^ 6 5 5 & 6 &.1.1.1.                                ",
"                        % % % % % & -.1.1.1.1.1.1.1.1.1.1.1.1.1.1.1.1.1. .% % % % % % % * 1.1.                                  ",
"                        % % % & Q ..1.1.1.1.1.1.1.1.1.1.1.1.1.1.1.1.1...% % % % % % % % %                                       ",
"                        ~ ~ ..1.1.1.1.1.1.1.1.1.1.1.1.1.1.1.1.1.1.1.1.* % % % % % % % % %                                       ",
"                        1.1.1.1.1.1.1.1.1.1.1.1.1.1.1.1.1.1.1.1.1.1.1.& % % % % % % % % %                                       ",
"                        1.1.1.1.1.1.1.1.1.1.1.1.1.1.1.1.1.1.1.1.1.1.1.-.~ 5 % % $ % $ $ %                                       ",
"                          1.1.1.1.1.1.1.1.1.1.1.1.1.1.1.1.1.1.1.1.1.1.1.1.1.1.1.1.1.;.]                                         ",
"                          w y y y y y y y E ] ] ] ] ] ] ] E u y / ] ] ] ] ] ] ] ] ] U I                                         ",
"                          3 3 3 3 3 3 3 9 L L L L ] @.@.[ ] N 3 q C L L I I I I I I I I L                                       ",
"                          3 3 3 3 3 3 3 V I I U #.1.1.1.1.1.;.r 2 2 W L I I I I I I I I I                                       ",
"                        2 3 3 3 3 3 3 3 V I I $.1.1.1.1.1.1.1.O.3 2 2 0 N I I I I I I I I                                       ",
"                        3 3 3 3 3 3 2 q N I Y 1.1.1.1.1.1.1.1.1.3 3 3 3 3 3 8 M V I I I I                                       ",
"                        3 3 3 3 3 2 2 2 7 I +.1.1.1.1.1.1.1.1.1.3 3 3 3 3 3 3 3 3 3 3 3 3                                       ",
"                        3 3 3 3 3 3 2 2 2 V @.1.1.1.1.1.1.1.1.o.3 3 3 3 3 3 3 3 3 3 3 3 3                                       ",
"                        < 3 3 3 3 3 2 2 2 q } 1.1.1.1.1.1.1.1.y 3 3 3 3 3 3 3 3 3 3 3 3 3 >                                     ",
"                      X : 3 3 3 3 3 3 3 3 3 ) 1.1.1.1.1.1.1.o.3 3 3 3 3 3 3 3 3 3 3 3 3 3 - X X                                 ",
"                    X X - 2 3 3 3 3 3 3 3 3 q >.1.1.1.1.1.1.e 3 3 3 3 3 3 3 3 3 3 3 3 3 3 + X X X                               ",
"                  X X X + 3 3 3 3 3 3 3 3 3 3 y >.1.1.1.>.( 3 3 3 3 3 3 3 3 3 3 3 3 3 3 3 O X X X                               ",
"                  X X X X , 3 3 3 3 3 3 3 3 3 3 t X.O._ e 3 3 3 3 3 3 3 3 3 3 3 3 3 3 3 ; X X X X                               ",
"                    X X X O , 3 3 3 3 3 3 3 3 3 2 3 3 3 3 3 3 3 3 3 3 3 3 3 3 3 3 3 3 ; o X X X                                 ",
"                      X X X X X X X X X X                                   X X X X X X X X X X                                 ",
"                        X X X X X X X X X                                   X X X X X X X X                                     ",
"                          X X X X X X X X                                   X X X X X X X                                       ",
"                              X X X X X                                       X X X X                                           ",
"                                                                                                                                ",
"                                                                                                                                ",
"                                                                                                                                ",
"                                                                                                                                ",
"                                                                                                                                ",
"                                                                                                                                ",
"                                                                                                                                "
};
