/* XPM */
static char *f46d51af27f442c9d81da4eb6490047bCdu4I6GE4qYVFesa[] = {
/* columns rows colors chars-per-pixel */
"64 64 113 2 ",
"   c None",
".  c #323232",
"X  c gray20",
"o  c #3E3433",
"O  c #493634",
"+  c #603935",
"@  c #6B3A35",
"#  c #684B38",
"$  c #694B39",
"%  c #684C38",
"&  c #694C39",
"*  c #725540",
"=  c #7B5E48",
"-  c #5A6C47",
";  c #8D3F37",
":  c #984138",
">  c #BA4539",
",  c #C2473A",
"<  c #C5473A",
"1  c #D94A3B",
"2  c #DB543F",
"3  c #E64B3B",
"4  c #E74C3C",
"5  c #85674F",
"6  c #8E7157",
"7  c #977A5E",
"8  c #B86C49",
"9  c #AD744C",
"0  c #CF5C42",
"q  c #E85543",
"w  c #E95A47",
"e  c #EA5E4A",
"r  c #ED7159",
"t  c #EE7A60",
"y  c #3CAC63",
"u  c #27B061",
"i  c #27B062",
"p  c #27B162",
"a  c #28B061",
"s  c #28B062",
"d  c #28B162",
"f  c #28B262",
"g  c #29B765",
"h  c #29B966",
"j  c #2ABB67",
"k  c #2ABC68",
"l  c #2BBE69",
"z  c #35B56B",
"x  c #4F8451",
"c  c #4B8C55",
"v  c #449C5C",
"b  c #76875D",
"n  c #7E9459",
"m  c #739C5D",
"M  c #40A45F",
"N  c #5CAC63",
"B  c #50B467",
"V  c #67A460",
"C  c #2BC06A",
"Z  c #2BC16B",
"A  c #2CC36C",
"S  c #2CC46C",
"D  c #2CC56D",
"F  c #2CC66E",
"G  c #2DC86F",
"H  c #2DCA70",
"J  c #2ECB70",
"K  c #2DCC70",
"L  c #2ECC70",
"P  c #2ECC71",
"I  c #3BCD75",
"U  c #48CE79",
"Y  c #55CF7D",
"T  c #57D07D",
"R  c #6DC97D",
"E  c #968453",
"W  c #A18366",
"Q  c #AA8C6D",
"!  c #B49675",
"~  c #BD9F7C",
"^  c #9CA970",
"/  c #84B977",
"(  c #CA8963",
")  c #F08367",
"_  c #F39676",
"`  c #F49F7D",
"'  c #5DC488",
"]  c #5DC489",
"[  c #62D181",
"{  c #78CE9C",
"}  c #C6A884",
"|  c #D0B18B",
" . c #D9BB93",
".. c #89D48D",
"X. c #96D691",
"o. c #A3D795",
"O. c #B0D899",
"+. c #93D8B0",
"@. c #E2C49A",
"#. c #FAC49B",
"$. c #CADBA1",
"%. c #D7DCA5",
"&. c #ECCDA2",
"*. c #E4DDA9",
"=. c #F5D6A9",
"-. c #FDD6A9",
";. c #F1DEAD",
":. c #FFE0B0",
">. c #FFE0B1",
",. c #AEE1C4",
"<. c #BBE6CD",
"1. c #CAF2DB",
"2. c white",
/* pixels */
"                                                                                                                                ",
"                                                                                                                                ",
"                                                                                                                                ",
"                                                                                                                                ",
"                                                                                                                                ",
"                                                                                                                                ",
"                                                                                                                                ",
"                                                                                                                                ",
"                                          p d d d d d d d d d d d d d d d d d d d d d a                                         ",
"                                      d d d d d d d d d d d d d d d d d d d d d d d d d d d d                                   ",
"                                      d d d d d d d d d d d d d d d d d d d d d d d d d d d d d p                               ",
"                                    p d d d d d d d d d d d d d d d d d d d d d d d d d d d d d d p                             ",
"                                    ] ] z d d d d d d d d d d d d d d d d d d d d d d d d d d d d d d                           ",
"                                    2.2.2.,.] d d d d d d d d d d d d d d d d d d d d d d d d d d d d d                         ",
"                                    2.2.2.2.2.+.d d d d d d d d d d d d d d d d d d d d d d d d d d d d d                       ",
"                                    2.2.2.2.2.2.{ d d d d d d d d d d d d d d d d d d d d d d d d d d d d                       ",
"                                    2.2.2.2.2.2.2.] d d d d d d d d d d d d d d d d d d d d d d d d d d d d                     ",
"                                    2.2.2.2.2.2.2.<.d d d d d d d d d d d d d d d d d d d d d d d d d d d d                     ",
"                                    1.1.1.1.1.1.1.1.d d d d d d d d d d d d d d d d d d d d d d d d d d d d                     ",
"                          K P P P P P P P K K K P P P P K K F F A l k g g d d d d d d d d d d d d d d d d d                     ",
"                      P P P P P P P P P P P P P P P P P P P P P H P P P P P H F l k g d d d d s d d d d d d                     ",
"                    P P P P P K P P P P P P P P P P P P P P P P P P P P P P P P P P P P H A k g d d d d d d                     ",
"                    P P P P K K P P P P P P P P P P P P P P K P P P P P P P P P P P P P P P P P K F l h d a                     ",
"                          K K K K P P P P P P P P P P P P P K K P P P P P P P P P P P P P P P P K K P P H A                     ",
"                                      >.>.%.$.$.$.O.X.X.X...[ [ [ Y H K K P P P K K K P P P P P P P P P K K                     ",
"                                      >.>.>.>.>.>.>.>.>.>.>.>.>.>.>.>.>.>.>.b - - - x c c c M y y y y y v                       ",
"                                      >.>.>.>.>.>.>.>.>.>.>.>.>.>.>.>.>.>.>.Q & & & & & & & & & & & & & &                       ",
"                                      >.>.>.>.>.>.>.>.>.} & * @.>.>.>.>.>.>.&.& & & & & & & & & & & & & &                       ",
"                                      >.>.>.>.>.>.>.>.>.= & & 6 >.>.>.>.>.>.>.!  .>.>.>. .5 & & & & & & &                       ",
"                                      >.>.>.>.>.>.>.>.>.& & & & >.>.>.>.>.>.>.>.>.>.>.>.>.&.* & & & & & &                       ",
"                                      >.>.>.>.>.>.>.>.>.& & & & >.>.>.>.>.>.>.>.>.>.>.>.>.>. .& & & & & &                       ",
"                                    >.>.>.>.>.>.>.>.>.>.5 & & 7 >.>.>.>.>.>.>.>.>.>.>.>.>.>.>.& & & & & &                       ",
"                                  >.>.>.>.>.>.>.>.>.>.>. .# = =.>.>.>.>.>.>.>.>.>.>.>.>.>.>.>.& & & & & $                       ",
"                                >.>.>.@.7 * 6 6 7 ~ &.>.>.>.>.>.>.>.>.>.>.>.>.>.>.>.>.>.>.>.} & & & & & &                       ",
"                                  >.>.= & & & & & & % | >.>.>.>.>.>.>.>.>.>.>.>.>.>.>.>.>.&.* & & & & & &                       ",
"                                      & & & & & & & % %  .>.>.>.>.>.>.>.>.>.>.>.>.>.>.>.>.>. .W * & & &                         ",
"                                      & % % % & & & & & = >.>.>.>.>.>.>.>.>.>.>.>.>.>.>.>.>.>.>.>. .! !                         ",
"                                      & % % & & & & & & * >.>.>.>.>.>.>.>.>.>.>.>.>.>.>.>.>.>.>.>.>.>.>.                        ",
"                                      & # % & & & & 6 ! &.>.>.>.>.>.>.>.>.>.>.>.>.>.>.>.>.>.>.>.>.>.>.>.                        ",
"                                        [ *.>.>.>.>.>.>.>.>.>.>.>.>.>.>.>.>.>.>.>.>.>.>.>.>.>.>.>.>.>.                          ",
"                                        P I [ [ [ [ [ [ [ [ [ ^ r r r r r ( [ [ [ [ [ [ [ [ / r r r w                           ",
"                                      K P P P P P P P P P P V q 4 4 4 4 4 N P P P P P P P P P 8 4 4 4                           ",
"                                      P P P P P P P K K P E 4 4 4 4 4 4 4 P P P I X.;.>.>.>.X.V 4 4 4                           ",
"                                      P P P P P P P K m 0 4 4 4 4 4 4 4 4 P P P $.>.>.>.>.>.>.$.q 4 4 3                         ",
"                                      P P P P N n 9 4 4 4 4 4 4 4 4 4 4 4 B K X.>.>.>.>.>.>.>.>.#.4 4 4                         ",
"                                      4 4 4 4 4 4 4 4 4 4 4 4 4 4 4 4 4 4 E U >.>.>.>.>.>.>.>.>.>.) 4 4                         ",
"                                      4 4 4 4 4 4 4 4 4 4 4 4 4 4 4 4 4 4 q R >.>.>.>.>.>.>.>.>.>._ 4 4                         ",
"                                    , 4 4 4 4 4 4 4 4 4 4 4 4 4 4 4 4 4 4 4 ( >.>.>.>.>.>.>.>.>.>._ 4 1                         ",
"                                . X ; 4 4 4 4 4 4 4 4 4 4 4 4 4 4 4 4 4 4 4 q -.>.>.>.>.>.>.>.>.>.) 4 > .                       ",
"                              X X X + 4 4 4 4 4 4 4 4 4 4 4 4 4 4 4 4 4 4 4 4 ) -.>.>.>.>.>.>.>.` 4 4 ; X X                     ",
"                              X X X O 4 4 4 4 4 4 4 4 4 4 4 4 4 4 4 4 4 4 4 4 4 q r _ _ _ _ t e 4 4 4 @ X X X                   ",
"                              X X X X : 4 4 4 4 4 4 4 4 4 4 4 4 4 4 4 4 4 4 4 4 4 4 4 4 4 4 4 4 4 4 < o X X X                   ",
"                                X X X o : 4 4 4 4 4 4 4 4 4 4 4 4 4 4 4 4 4 4 4 4 4 4 4 4 4 4 4 4 < O X X .                     ",
"                                . X X X X X X X X X                                   X X X X X X X X X X                       ",
"                                    X X X X X X X X                                   X X X X X X X X .                         ",
"                                      . X X X X X X                                   . X X X X X X .                           ",
"                                          . X X X                                       X X X . .                               ",
"                                                                                                                                ",
"                                                                                                                                ",
"                                                                                                                                ",
"                                                                                                                                ",
"                                                                                                                                ",
"                                                                                                                                ",
"                                                                                                                                "
};
