/* XPM */
static char *_96ac42c3c9a49dbdd9774199cea195b1PkBz5s72MHDASzw[] = {
/* columns rows colors chars-per-pixel */
"64 64 66 1 ",
"  c None",
". c #145F33",
"X c #176A3A",
"o c #176B3A",
"O c #176C3B",
"+ c #176D3B",
"@ c #186E3C",
"# c #186F3D",
"$ c #18713D",
"% c #18723E",
"& c #19733F",
"* c #19743F",
"= c #197540",
"- c #197740",
"; c #1A7841",
": c #1A7942",
"> c #1A7A42",
", c #1A7B43",
"< c #1B7D44",
"1 c #1C7F46",
"2 c #1C8047",
"3 c #1C8147",
"4 c #1C8348",
"5 c #1F8249",
"6 c #1D8449",
"7 c #1D864A",
"8 c #1D874B",
"9 c #1D884A",
"0 c #1E894C",
"q c #1E8B4D",
"w c #1E8C4D",
"e c #1F8C4D",
"r c #1E8D4D",
"t c #1F8D4E",
"y c #208E4F",
"u c #208F4F",
"i c #268950",
"p c #218E50",
"a c #268F52",
"s c #2B8F55",
"d c #209150",
"f c #209250",
"g c #209251",
"h c #219452",
"j c #219552",
"k c #219653",
"l c #219753",
"z c #2B9156",
"x c #289657",
"c c #219953",
"v c #219854",
"b c #229954",
"n c #229A55",
"m c #229B55",
"M c #239D56",
"N c #229D57",
"B c #239E57",
"V c #2E9258",
"C c #299758",
"Z c #249E58",
"A c #299E5A",
"S c #2A9F5B",
"D c #2E9D5D",
"F c #24A65B",
"G c #25AB5E",
"H c #31A060",
/* pixels */
"     BBGBBBBBBBBBBBBBBBBBBBBBBBBBBBBBBBBBBBBBBBBBBBBBBBBGBB     ",
"   mBBBBBBmFBBBBBBBBBBBBBBBBBBBBBBBBBBBBBBBBBBBBBBBBBBBBBBBBBF  ",
" cBBmhdyptptyyyyyyyyyyyyyyyyyyyyyyyyyyyyyyyyyyyyyyyyyyyyyuhcBB  ",
" BBhyyyytptpyyyyyyyyyyyyyyyyyyyyyyyyyyyyyyyyyyyyyyyyyyyyyyuuuBm ",
"BBmyyyyyyyyyyyyyyyyyyyutyyyyyyyyyyyyyyyyyyyyyyutyyyyyyyyyyyyyhF ",
"hBdyyyyyyyyyyyyyyyyyyyytyyyyyyyyyyyyyyyyyyyyyyytyyyyyyyyyyyyygBu",
"mBdyyyyyyy<<<<<<<<<<*OOXXXXXXXXXXXXXXXXXooO*<<<<<<<<<<yyyyyyyyBm",
"BBtyyyyyyy<<<<<<<<<<<:@OXXXXXXXXXXXXXXXXO&*<<<<<<<<<<<yyyyyyytBB",
"BByyyyyyyy<<<<<<<<<<<<<*XXXXXXXXXXXXXXXO*<<<<<<<<<<<<<yyyyyyyyBB",
"BByyyyyyyy<<<<<<<<<<<<<<<&XOXXXoXXXXXO&:<<<<<<<<<<<<<<yyyyyyyyBB",
"BByyyyyyyy<<<<<<<<<<<<<<<<*OXXooXXXXO:<<<<<<<<<<<<<<<<yyyyyyyyBB",
"BByyyyyyyy<<<<<<<<<<<<<<<<<:&XooXXX*<<<<<<<<<<<<<<<<<<yyyyyyyyBB",
"BByyyyyyyy*:<<<<<<<<<<<<<<<<*OOoXXO:<<<<<<<<<<<<<<<<<-yyyyyyyyBB",
"BByyyyyyyyO&:<<<<<<<<<<<<<<@ooOOOXXX@<<<<<<<<<<<<<<:#XyyyyyyyyBB",
"BByyyyyyyyXXX&<<<<<<<<<<<*XXOo@:<$XOXO*<<<<<<<<<<<*XXXyyyyyyyyBB",
"BByyyyyyyyXXXX@:<<<<<<<<OXXXO*2<<<*OXXXO<<<<<<<<:#XXXXyyyyyyyyBB",
"BByyyyyyyyXXXXXX*<<<<<*OXXX&<<<<<<<<$XXXX&<<<<<&XXXXXXyyyyyyyyBB",
"BByyyyyyyyXXXXXXXO:<*OXXXO:<<<<<<<<<<:OOXXO:<*OXXXXXXXyyyyyyyyBB",
"BByyyyyyyyXXXXXXXXX@XXXX*<<<<<<<<<<<<<<*XXXX$XXXXXXXXXyyyyyyyyBB",
"BByyyyyyyyXXXXXXXXXXXXO:<<<<<<<<<<<<<<<<:OXXXXXXXXXXXXyyyyyyyyBB",
"BByyyyyyyyXXXXXXXXXOXX&<<<<<<<<<<<<<<<<<<&ooXXXXXXXXXXyyyyyyyyBB",
"BByyyyyyyyXXXXXXXXX@XXXX*<<<<<<<<<<<<<<*OXoo@XXXXXXXXXyyyyyyyyBB",
"BByyyyyyyyXXXXXXXO:<*OXXo$*<<<<<<<<<<:$XXXX*<:OOXXXXXXyyyyyyyyBB",
"BByyyyyyyyXXXXXX*<<<<<$XoOO&<<<<<<<<*XXXX&:<<<<*XXXXXXyyyyyyyyBB",
"BByyyyyyyyXXXX@:<<<<<<<*OXXXO:<<<<:OOXXO*<<<<<<<:OXXXXyyyyyyyyBB",
"BByyyyyyyyXXO*<<<<<<<<<<2*XXXX&<<$XXXX*<<<<<<<<<<<*XXXyyyyyyyyBB",
"BByyyyyyyyX&:<<<<<<<<<<<<<:OXXXOOXXXO:<<<<<<<<<<<<<<#XyyyyyyyyBB",
"BByyyyyyyt*<<<<<<<<<<<<<<<<<*XXXXXX$<<<<<<<<<<<<<<<<<*yyyyyyyyBB",
"BByyyyyyyy<<<<<<<<<<<<<<<<<<*OXXXXO:<<<<<<<<<<<<<<<<<<yyyyyyyyBB",
"BByyyyyyyy<<<<<<<<<<<<<<<<:$OOXXXXXX$<<<<<<<<<<<<<<<<<yyyyyyyyBB",
"BByyyyyyyy<<<<<<<<<<<<<<<*OoXXXXXXXXXO*<<<<<<<<<<<<<<<yyyyyyyyBB",
"BByyyyyyyy<<<<<<<<<<<<<:OOOoXXXXXXXXXXOO<<<<<<<<<<<<<<yyyyyyyyBB",
"BByyyyyyyy<<<<<<<<<<<<*XXXXXXXXXXXXXXXXXX*<<<<<<<<<<<<yyyyyyyyBB",
"BByyyyyyyy<<<<<<<<<<:OXXXXXXXXXXXXXXXXXXXXO:<<<<<<<<<<yyyyyyyyBB",
"BByyyyyyyyyyyyyyyyyyyyyyyyyyyyyytyyyyyyyyyyyyyyyyyyyyyyyyyyyyyBB",
"SByyyyyyyyyyyyyyyyyyyyyyyyyyyyyytyyyyyyyyyyyyyyyyyyyyyyyyyyyyyBF",
"DSyyyyyyyyyyyyyyyyyyyyyyyyyyyyyyyyyyyyyyyyyyyyyyyyyyyyyyyyyyyyAD",
"xHVayyyyyyyyyyyyyyyyyyyyyyyyyyyyyyyyyyyyyyyyyyyyyyyyyyyyyyyyasHx",
"yVVVVVVVVVVVVVVVVVVVVVVVVVVVVVVVVVVVVVVVVVVVVVVVVVVVVVVVVVVVVVCy",
"ty1ysVVVVVVVVVVVVVVVVVVVVVVVVVVVVVVVVVVVVVVVVVVVVVVVVVVVVVVsi1yy",
"tt111111111111112211111111111111211111111111111111111111111111yy",
"tt111111111111111111111111111111211111111111111111111111111111yy",
"tt111111111111111111111111111111111111111111111111111111111111yy",
"tt11111111............................................111111119y",
"tt11111111............................................11111111yy",
"tt11111111............................................11111111y9",
"tt11111111............................................11111111yq",
"tt11111111............................................11111111ty",
"tt11111111............................................11111111tt",
"tt11111111............................................11111111tt",
"tt11111111............................................11111111tt",
"tt11111111............................................11111111tt",
"tt11111111............................................11111111tt",
"tt11111111............................................11111111tt",
"tt11111111............................................11111111tt",
"tt11111111............................................11111111tt",
"tt11111111............................................11111111tt",
"qt11111111............................................11111111tt",
"tt711111111111111111111111111111111111111111111111111111111122tu",
"tt911111111111111111111111111111111111111111111111111111111127tt",
" tt7111111111111111111111111111111111111111111111111111111112tt ",
" 7tt72111111111111111111111111111111111111111111111111111127rt9 ",
"  7tttttttttttttttttttttttttttttttttttttttttttttttttttttttttt9  ",
"    tqttttttttttttttttttttttttttttttttttttttttttttttttttttqt    "
};
